<svg width="1170" height="260" viewBox="0 0 1170 260" fill="none" xmlns="http://www.w3.org/2000/svg">
    <g clip-path="url(#clip0_0_142)">
        <rect width="1170" height="260" rx="15" fill="#151515"/>
        <path d="M584.5 277C919.461 277 1191 265.359 1191 251C1191 236.641 919.461 225 584.5 225C249.539 225 -22 236.641 -22 251C-22 265.359 249.539 277 584.5 277Z" fill="#F38118"/>
        <path d="M1170.26 101.107C1170.26 101.107 1147.42 117.864 1114.25 82.9137C1081.08 47.9638 1086.88 3.21453 1086.88 3.21453C1086.88 3.21453 1087.09 -3.66699 1089.03 -0.482291C1091.03 0.052167 1092.08 -0.482291 1092.08 -0.482291C1092.08 -0.482291 1081.81 23.761 1102.36 61.6952C1132.12 108.323 1165.95 103.05 1170.26 91.6981C1170.25 91.6976 1170.26 95.356 1170.26 101.107Z" fill="#F38118"/>
        <path d="M1170.32 40.0942C1170.32 40.0942 1161.87 62.3548 1106.83 54.0561C1051.8 45.7574 1023.06 -0.474326 1023.06 -0.474326C1023.06 -0.474326 1021.55 -2.04387 1025.59 -0.561077C1025.65 -0.37553 1025.7 -1.0012 1025.7 -1.0012C1025.7 -1.0012 1057.2 33.5509 1086.06 45.518C1127.76 62.8087 1173.51 46.3213 1169.27 33.5084C1169.27 39.8307 1169.27 31.6644 1170.32 40.0942Z" fill="#F38118"/>
        <path d="M376.132 83.4729H363.291V187.06H376.132V83.4729Z" fill="#D9D9D9" fill-opacity="0.2"/>
        <path d="M200.132 83.4729H187.291V187.06H200.132V83.4729Z" fill="#D9D9D9" fill-opacity="0.2"/>
        <path d="M397.971 23.2905H385.129V137.744H397.971V23.2905Z" fill="#D9D9D9" fill-opacity="0.2"/>
        <path d="M221.971 23.2905H209.129V137.744H221.971V23.2905Z" fill="#D9D9D9" fill-opacity="0.2"/>
        <path d="M354.724 23.2905H341.882V137.744H354.724V23.2905Z" fill="#D9D9D9" fill-opacity="0.2"/>
        <path d="M178.724 23.2905H165.882V137.744H178.724V23.2905Z" fill="#D9D9D9" fill-opacity="0.2"/>
        <path d="M420.542 168.334H406.234V63.9028H420.542V168.334ZM407.693 166.875H419.076V65.3615H407.693V166.875Z" fill="#D9D9D9" fill-opacity="0.2"/>
        <path d="M333.308 168.334H319V63.9028H333.308V168.334ZM320.459 166.875H331.842V65.3615H320.459V166.875Z" fill="#D9D9D9" fill-opacity="0.2"/>
        <path d="M442.38 155.988H428.072V43.356H442.38V155.988ZM429.531 154.529H440.914V44.8146H429.531V154.529Z" fill="#D9D9D9" fill-opacity="0.2"/>
        <path d="M310.824 155.988H296.516V43.356H310.824V155.988ZM297.975 154.529H309.358V44.8146H297.975V154.529Z" fill="#D9D9D9" fill-opacity="0.2"/>
        <path d="M463.478 23.2905H450.636V141.555H463.478V23.2905Z" fill="#D9D9D9" fill-opacity="0.2"/>
        <path d="M486.05 187.786H471.742V43.356H486.05V187.786ZM473.208 186.327H484.591V44.8146H473.208V186.327Z" fill="#D9D9D9" fill-opacity="0.2"/>
        <path d="M507.155 23.2905H494.313V126.347H507.155V23.2905Z" fill="#D9D9D9" fill-opacity="0.2"/>
        <path d="M528.993 -0.362305H516.151V141.555H528.993V-0.362305Z" fill="#D9D9D9" fill-opacity="0.2"/>
        <path d="M550.831 50.9075H537.99V160.622H550.831V50.9075Z" fill="#D9D9D9" fill-opacity="0.2"/>
        <path d="M573.395 201.102H559.088V22.5645H573.395V201.102ZM560.554 199.643H571.937V24.0231H560.554V199.643Z" fill="#D9D9D9" fill-opacity="0.2"/>
        <path d="M594.501 46.9363H581.659V126.354H594.501V46.9363Z" fill="#D9D9D9" fill-opacity="0.2"/>
        <path d="M898.08 46.9363H885.238V126.354H898.08V46.9363Z" fill="#D9D9D9" fill-opacity="0.2"/>
        <path d="M617 145H603V-7H617V145ZM604.421 143.44H615.565V-5.43961H604.421V143.44Z" fill="#D9D9D9" fill-opacity="0.2"/>
        <path d="M921 145H906V-6H921V145ZM907.523 143.45H919.463V-4.44988H907.523V143.45Z" fill="#D9D9D9" fill-opacity="0.2"/>
        <path d="M638.177 23.2905H625.335V111.244H638.177V23.2905Z" fill="#D9D9D9" fill-opacity="0.2"/>
        <path d="M660.009 -0.362305H647.167V146.217H660.009V-0.362305Z" fill="#D9D9D9" fill-opacity="0.2"/>
        <path d="M682.58 135.999H668.279V55.9116H682.58V135.999ZM669.738 134.54H681.121V57.3703H669.738V134.54Z" fill="#D9D9D9" fill-opacity="0.2"/>
        <path d="M703.685 23.2905H690.843V164.279H703.685V23.2905Z" fill="#D9D9D9" fill-opacity="0.2"/>
        <path d="M725.523 5.52124H712.681V117.846H725.523V5.52124Z" fill="#D9D9D9" fill-opacity="0.2"/>
        <path d="M748.087 142.288H733.78V46.2104H748.087V142.288ZM735.245 140.829H746.629V47.6691H735.245V140.829Z" fill="#D9D9D9" fill-opacity="0.2"/>
        <path d="M877.307 142.288H863V46.2104H877.307V142.288ZM864.465 140.829H875.849V47.6691H864.465V140.829Z" fill="#D9D9D9" fill-opacity="0.2"/>
        <path d="M769.193 23.2905H756.351V103.685H769.193V23.2905Z" fill="#D9D9D9" fill-opacity="0.2"/>
        <path d="M854.842 23.2905H842V103.685H854.842V23.2905Z" fill="#D9D9D9" fill-opacity="0.2"/>
        <path d="M791.031 56.6377H778.189V155.779H791.031V56.6377Z" fill="#D9D9D9" fill-opacity="0.2"/>
        <path d="M833.842 56.6377H821V155.779H833.842V56.6377Z" fill="#D9D9D9" fill-opacity="0.2"/>
        <path d="M812.869 82.426H800.027V172.822H812.869V82.426Z" fill="#D9D9D9" fill-opacity="0.2"/>
        <path d="M410.443 189.883C419.86 187.566 425.617 178.053 423.3 168.635C420.983 159.217 411.47 153.461 402.052 155.778C392.635 158.095 386.878 167.608 389.195 177.025C391.512 186.443 401.025 192.2 410.443 189.883Z" fill="#F38118"/>
        <path d="M415.205 183.593C421.149 178.647 421.957 169.819 417.011 163.875C412.065 157.931 403.236 157.122 397.293 162.069C391.349 167.015 390.54 175.843 395.487 181.787C400.433 187.731 409.261 188.539 415.205 183.593Z" fill="#151515"/>
        <path d="M412.299 178.091C411.713 178.929 411.099 179.683 410.457 180.339C409.815 181.002 409.284 181.476 408.852 181.776L405.481 179.732L407.749 175.984C408.112 176.207 408.419 176.284 408.656 176.228C408.901 176.172 409.145 175.942 409.389 175.53C409.612 175.167 409.71 174.867 409.696 174.637C409.682 174.406 409.564 174.218 409.333 174.078C409.173 173.981 408.984 173.967 408.768 174.029C408.552 174.092 408.258 174.274 407.896 174.56C406.667 175.537 405.648 176.256 404.839 176.703C404.029 177.156 403.247 177.387 402.48 177.407C401.719 177.428 400.902 177.177 400.037 176.654C398.864 175.949 398.145 175.041 397.88 173.953C397.608 172.857 397.866 171.489 398.648 169.835L396.687 168.648L398.041 166.415L399.967 167.581C400.581 166.694 401.216 165.94 401.886 165.319C402.549 164.698 403.108 164.272 403.554 164.049L406.604 165.892L404.441 169.472C403.875 169.13 403.401 169.27 403.024 169.891C402.801 170.268 402.682 170.568 402.682 170.791C402.682 171.014 402.794 171.196 403.038 171.342C403.219 171.454 403.401 171.461 403.582 171.37C403.764 171.28 404.036 171.063 404.413 170.728C405.397 169.87 406.269 169.207 407.016 168.753C407.763 168.299 408.559 168.041 409.396 167.978C410.234 167.916 411.113 168.167 412.027 168.725C413.325 169.507 414.1 170.505 414.365 171.712C414.631 172.92 414.386 174.295 413.633 175.844L415.691 177.093L414.337 179.327L412.299 178.091Z" fill="#F38118"/>
        <path d="M773.773 103.14C774.981 93.5172 768.159 84.7379 758.537 83.5305C748.914 82.3231 740.135 89.1448 738.927 98.7672C737.72 108.39 744.542 117.169 754.164 118.376C763.787 119.584 772.566 112.762 773.773 103.14Z" fill="#F38118"/>
        <path d="M770.218 102.774C771.244 95.1093 765.862 88.0644 758.198 87.0384C750.534 86.0123 743.489 91.3936 742.463 99.0578C741.437 106.722 746.818 113.767 754.483 114.793C762.147 115.819 769.192 110.438 770.218 102.774Z" fill="#151515"/>
        <path d="M750.635 106.581C749.839 105.932 749.141 105.262 748.534 104.578C747.927 103.887 747.487 103.322 747.222 102.868L749.511 99.6579L753.078 102.205C752.834 102.554 752.729 102.847 752.764 103.092C752.799 103.336 753.015 103.601 753.399 103.88C753.748 104.125 754.034 104.25 754.271 104.257C754.502 104.264 754.697 104.153 754.851 103.936C754.955 103.783 754.99 103.601 754.941 103.378C754.892 103.155 754.739 102.854 754.474 102.471C753.594 101.172 752.959 100.098 752.568 99.2601C752.177 98.4226 752.01 97.6199 752.045 96.8592C752.087 96.0984 752.401 95.3028 752.987 94.4862C753.783 93.3765 754.739 92.7274 755.849 92.539C756.958 92.3575 758.312 92.7135 759.897 93.6208L761.23 91.7573L763.351 93.2718L762.046 95.1004C762.884 95.7774 763.589 96.4753 764.154 97.1802C764.726 97.8921 765.103 98.4784 765.299 98.939L763.226 101.842L759.82 99.4136C760.204 98.8762 760.099 98.3877 759.506 97.9689C759.15 97.7176 758.857 97.5781 758.64 97.5571C758.417 97.5362 758.229 97.6409 758.061 97.8642C757.935 98.0387 757.914 98.2202 757.991 98.4016C758.068 98.5901 758.263 98.8832 758.564 99.274C759.345 100.321 759.938 101.242 760.336 102.017C760.734 102.799 760.93 103.608 760.923 104.446C760.916 105.283 760.608 106.142 759.98 107.014C759.101 108.242 758.047 108.947 756.826 109.115C755.604 109.282 754.25 108.94 752.764 108.068L751.361 110.029L749.239 108.515L750.635 106.581Z" fill="#F38118"/>
        <path d="M614.438 76.2254C615.215 66.5583 608.008 58.0919 598.341 57.3151C588.673 56.5383 580.207 63.7452 579.43 73.4123C578.653 83.0793 585.86 91.5457 595.527 92.3226C605.194 93.0994 613.661 85.8924 614.438 76.2254Z" fill="#F38118"/>
        <path d="M609.859 80.1661C612.808 73.0184 609.403 64.834 602.256 61.8857C595.108 58.9374 586.923 62.3416 583.975 69.4893C581.027 76.637 584.431 84.8215 591.579 87.7698C598.726 90.7181 606.911 87.3138 609.859 80.1661Z" fill="#151515"/>
        <path d="M593.07 81.8678C592.121 81.477 591.263 81.0373 590.481 80.5487C589.699 80.0671 589.113 79.6484 588.729 79.2924L589.999 75.5585L594.145 76.9753C594.006 77.3801 593.992 77.6942 594.096 77.9175C594.201 78.1408 594.48 78.3293 594.934 78.4898C595.339 78.6294 595.653 78.6643 595.876 78.6015C596.099 78.5387 596.26 78.3781 596.344 78.1269C596.406 77.9524 596.379 77.764 596.274 77.5685C596.169 77.3731 595.932 77.1219 595.569 76.8357C594.348 75.8446 593.433 75.0002 592.819 74.3092C592.205 73.6183 591.807 72.8994 591.626 72.1596C591.444 71.4198 591.514 70.5683 591.842 69.6121C592.282 68.321 593.008 67.4206 594.02 66.9251C595.032 66.4296 596.427 66.3877 598.207 66.7995L598.947 64.6289L601.418 65.4734L600.692 67.6021C601.69 68.0139 602.562 68.4745 603.309 68.991C604.056 69.5074 604.593 69.9611 604.907 70.345L603.756 73.716L599.798 72.369C600.015 71.7408 599.777 71.3081 599.087 71.0708C598.675 70.9312 598.354 70.8824 598.137 70.9242C597.921 70.9661 597.767 71.1266 597.677 71.3849C597.607 71.5873 597.642 71.7618 597.767 71.9223C597.893 72.0758 598.165 72.3061 598.57 72.5923C599.624 73.374 600.454 74.0789 601.055 74.714C601.662 75.3491 602.081 76.068 602.318 76.8706C602.555 77.6732 602.499 78.5875 602.15 79.5995C601.662 81.0303 600.859 82.0074 599.736 82.5238C598.612 83.0403 597.216 83.0961 595.541 82.6913L594.766 84.9736L592.296 84.1291L593.07 81.8678Z" fill="#F38118"/>
        <path d="M484.281 22.578C484.903 14.9481 479.222 8.25835 471.592 7.63599C463.962 7.01362 457.273 12.6944 456.65 20.3242C456.028 27.9541 461.709 34.6439 469.339 35.2663C476.968 35.8887 483.658 30.2079 484.281 22.578Z" fill="#F38118"/>
        <path d="M477.018 30.3347C481.924 26.7078 482.962 19.7902 479.335 14.8838C475.708 9.97734 468.79 8.94007 463.884 12.567C458.977 16.1939 457.94 23.1115 461.567 28.0179C465.194 32.9244 472.112 33.9616 477.018 30.3347Z" fill="#151515"/>
        <path d="M464.563 23.7698C464.187 23.0509 463.886 22.353 463.656 21.662C463.426 20.9711 463.286 20.4267 463.23 20.0149L465.89 18.3957L467.69 21.348C467.404 21.5224 467.237 21.7039 467.188 21.8923C467.139 22.0808 467.209 22.339 467.404 22.6601C467.579 22.9462 467.753 23.1277 467.921 23.2044C468.088 23.2812 468.263 23.2603 468.444 23.1556C468.57 23.0788 468.646 22.9532 468.681 22.7787C468.716 22.6042 468.695 22.339 468.625 21.9761C468.388 20.7617 468.256 19.7846 468.235 19.0587C468.214 18.3259 468.332 17.6908 468.598 17.1534C468.863 16.609 469.337 16.1344 470.014 15.7157C470.936 15.1573 471.829 14.9758 472.694 15.1852C473.56 15.3946 474.425 16.0716 475.298 17.2232L476.84 16.281L477.908 18.0398L476.393 18.961C476.791 19.7148 477.084 20.4337 477.28 21.1246C477.475 21.8156 477.566 22.3599 477.566 22.7578L475.165 24.2234L473.448 21.4038C473.895 21.1316 473.972 20.7477 473.671 20.2592C473.49 19.966 473.323 19.7776 473.169 19.6939C473.015 19.6101 472.841 19.6241 472.653 19.7427C472.506 19.8265 472.436 19.9521 472.436 20.1126C472.436 20.2731 472.485 20.5453 472.583 20.9292C472.827 21.9342 472.974 22.7787 473.015 23.4697C473.064 24.1606 472.953 24.8097 472.694 25.4169C472.429 26.0241 471.941 26.5475 471.215 26.9872C470.196 27.6084 469.212 27.7898 468.276 27.5386C467.334 27.2804 466.462 26.6103 465.652 25.5216L464.026 26.5126L462.958 24.7538L464.563 23.7698Z" fill="#F38118"/>
        <path d="M813.398 211.478C815.453 204.104 811.141 196.46 803.766 194.405C796.392 192.351 788.749 196.663 786.694 204.037C784.639 211.411 788.952 219.055 796.326 221.11C803.7 223.164 811.344 218.852 813.398 211.478Z" fill="#F38118"/>
        <path d="M810.767 210.412C812.23 204.488 808.614 198.5 802.69 197.037C796.767 195.573 790.779 199.189 789.315 205.113C787.852 211.036 791.468 217.025 797.392 218.488C803.315 219.951 809.303 216.335 810.767 210.412Z" fill="#151515"/>
        <path d="M794.123 210.064C793.746 209.345 793.446 208.647 793.216 207.956C792.986 207.265 792.846 206.72 792.79 206.309L795.449 204.69L797.25 207.642C796.964 207.816 796.796 207.998 796.747 208.186C796.699 208.375 796.768 208.633 796.964 208.954C797.138 209.24 797.313 209.421 797.48 209.498C797.648 209.575 797.822 209.554 798.004 209.449C798.129 209.373 798.206 209.247 798.241 209.073C798.276 208.898 798.255 208.633 798.185 208.27C797.948 207.055 797.815 206.078 797.794 205.353C797.773 204.62 797.892 203.985 798.157 203.447C798.422 202.903 798.897 202.428 799.574 202.016C800.495 201.458 801.389 201.277 802.254 201.486C803.119 201.695 803.985 202.372 804.857 203.524L806.4 202.582L807.475 204.341L805.96 205.262C806.358 206.016 806.651 206.734 806.846 207.425C807.042 208.116 807.133 208.661 807.133 209.059L804.732 210.524L803.015 207.705C803.461 207.432 803.538 207.049 803.238 206.56C803.057 206.267 802.889 206.078 802.736 205.995C802.582 205.911 802.408 205.925 802.219 206.043C802.073 206.127 802.003 206.253 802.003 206.413C802.003 206.574 802.052 206.846 802.149 207.223C802.394 208.228 802.54 209.073 802.582 209.763C802.631 210.454 802.519 211.104 802.261 211.711C801.996 212.318 801.507 212.841 800.781 213.281C799.762 213.902 798.778 214.084 797.843 213.832C796.901 213.574 796.029 212.904 795.219 211.815L793.593 212.806L792.525 211.048L794.123 210.064Z" fill="#F38118"/>
        <path d="M689.309 51.1322C689.436 43.4778 683.334 37.1696 675.679 37.0426C668.025 36.9155 661.717 43.0176 661.59 50.672C661.463 58.3264 667.565 64.6345 675.219 64.7616C682.874 64.8887 689.182 58.7866 689.309 51.1322Z" fill="#F38118"/>
        <path d="M686.012 54.0669C687.751 48.2183 684.42 42.0674 678.571 40.3284C672.723 38.5894 666.572 41.9208 664.833 47.7694C663.094 53.6179 666.425 59.7689 672.274 61.5079C678.122 63.2469 684.273 59.9154 686.012 54.0669Z" fill="#151515"/>
        <path d="M679.02 56.135C678.406 56.6585 677.792 57.1121 677.171 57.489C676.55 57.8659 676.047 58.1311 675.663 58.2707L673.486 56.0443L675.957 53.6294C676.194 53.8667 676.403 53.9924 676.606 53.9994C676.801 54.0063 677.038 53.8737 677.304 53.6155C677.541 53.3782 677.68 53.1758 677.715 52.9943C677.75 52.8129 677.694 52.6454 677.548 52.4988C677.443 52.3941 677.304 52.3453 677.129 52.3522C676.948 52.3592 676.696 52.436 676.361 52.5895C675.231 53.092 674.309 53.441 673.605 53.6225C672.9 53.8039 672.251 53.8318 671.664 53.6923C671.078 53.5527 670.506 53.2037 669.947 52.6314C669.194 51.8567 668.824 51.0262 668.831 50.1398C668.838 49.2534 669.305 48.2554 670.234 47.1457L668.97 45.8545L670.443 44.4168L671.685 45.687C672.327 45.1287 672.962 44.682 673.598 44.333C674.226 43.991 674.735 43.7747 675.119 43.6909L677.087 45.701L674.728 48.0111C674.365 47.6342 673.974 47.6482 673.563 48.053C673.318 48.2973 673.172 48.4997 673.123 48.6672C673.074 48.8347 673.13 49.0022 673.283 49.1557C673.402 49.2744 673.535 49.3162 673.695 49.2813C673.849 49.2464 674.107 49.1348 674.456 48.9533C675.377 48.4927 676.173 48.1577 676.836 47.9553C677.499 47.7529 678.155 47.718 678.804 47.8366C679.453 47.9553 680.074 48.3182 680.668 48.9254C681.505 49.7769 681.903 50.6912 681.861 51.6683C681.826 52.6454 681.365 53.6434 680.486 54.6833L681.812 56.0443L680.34 57.482L679.02 56.135Z" fill="#F38118"/>
        <path d="M437.418 176.772C432.274 190.822 431.178 207.879 440.51 219.569C448.173 229.173 460.98 232.893 473.11 234.854C482.204 236.327 492.059 236.983 500.106 232.495C508.67 227.714 513.339 218.055 515.74 208.542C518.448 197.794 518.922 186.62 519.383 175.544C519.683 168.251 519.99 160.964 520.29 153.671C520.437 150.132 520.569 146.503 519.446 143.146C517.791 138.233 513.667 134.589 509.486 131.518C506.359 129.222 503.1 127.101 499.729 125.181C498.242 124.337 496.686 123.283 495.06 122.732C493.706 122.278 492.478 122.732 491.186 123.199C485.247 125.356 479.545 128.203 474.206 131.581C468.86 134.966 463.869 138.91 459.326 143.32C454.782 147.724 450.692 152.596 447.147 157.837C443.601 163.079 440.607 168.69 438.269 174.567C437.969 175.3 437.69 176.032 437.418 176.772Z" fill="#6663DE"/>
        <path d="M472.37 123.925C470.067 123.904 467.52 123.792 465.859 122.201C464.714 121.105 464.219 119.479 464.163 117.895C464.044 114.119 466.187 110.713 467.848 107.321C469.509 103.929 470.709 99.7626 468.797 96.5032C466.591 92.7344 461.022 92.1412 457.155 94.1861C453.296 96.231 450.811 100.139 448.78 104.013C443.148 114.719 439.596 127.764 444.565 138.798C449.36 149.462 462.585 155.744 473.696 152.1C479.475 150.202 484.13 145.617 486.678 140.159C487.955 137.416 488.723 134.422 488.828 131.386C488.897 129.404 489.107 124.63 486.594 124.099C484.521 123.66 482.065 124.002 479.957 123.988C477.43 123.967 474.904 123.946 472.37 123.925Z" fill="#6663DE"/>
        <path d="M536.098 153.524C541.026 152.952 544.871 149.204 548.675 146.022C552.479 142.839 557.392 139.901 562.138 141.331C567.519 142.958 569.885 149.846 568.217 155.206C566.549 160.573 561.977 164.517 557.197 167.476C549.673 172.131 541.109 175.083 532.315 176.054C529.119 176.402 525.825 176.486 522.747 175.544C515.621 173.353 511.091 165.892 510.373 158.473C510.037 155.032 510.386 151.556 511.147 148.192C511.629 146.043 512.159 143.411 514.686 142.902C519.85 141.869 523.186 148.213 526.662 150.719C529.377 152.666 532.727 153.915 536.098 153.524Z" fill="#6663DE"/>
        <path d="M434.536 200.153C426.977 207.949 420.158 216.471 414.212 225.558C412.39 228.342 410.583 231.427 410.813 234.742C411.113 239.09 414.714 242.35 417.094 246C419.474 249.65 420.088 255.617 416.138 257.46C415.273 257.865 414.233 258.032 413.612 258.758C412.767 259.756 413.165 261.382 414.128 262.269C415.091 263.155 416.431 263.476 417.715 263.72C422.531 264.642 427.465 264.956 432.358 264.663C433.852 264.572 435.408 264.397 436.643 263.56C439.91 261.347 438.995 256.462 439.337 252.526C439.903 245.958 445.088 240.479 451.125 237.834C457.162 235.189 463.953 234.896 470.542 235.001C478.854 235.133 488.353 236.487 492.952 243.411C495.235 246.844 495.856 251.074 497.014 255.024C498.173 258.981 500.239 263.092 504.028 264.705C506.471 265.737 509.221 265.563 511.859 265.793C517.219 266.261 523.005 268.404 527.702 265.772C529.81 264.593 531.345 261.494 529.58 259.847C529.063 259.365 528.372 259.128 527.765 258.779C525.399 257.425 524.394 254.466 524.443 251.744C524.485 249.022 525.371 246.391 525.888 243.718C527.493 235.412 525.448 226.618 521.044 219.395C516.64 212.171 510.01 206.462 502.598 202.393C494.236 197.801 484.787 195.198 475.253 194.849C466.543 194.535 457.881 196.07 449.304 197.599C444.614 198.436 439.917 199.274 435.226 200.111C434.843 197.954 434.459 195.791 434.075 193.634" fill="#6663DE"/>
        <path d="M526.753 103.957C527.877 102.61 528.924 100.809 528.247 99.1973C528.044 98.7087 527.695 98.2969 527.332 97.9131C524.164 94.577 519.243 93.0066 514.728 93.893C514.162 94.0047 513.59 94.1582 513.129 94.4932C512.208 95.1632 511.908 96.3846 511.775 97.5083C511.545 99.5532 511.685 101.633 512.187 103.629C512.376 104.383 512.634 105.158 513.185 105.709C513.813 106.344 514.721 106.595 515.579 106.819C516.87 107.154 518.155 107.496 519.446 107.831C520.842 108.194 522.803 108.654 523.94 107.44C524.296 107.063 524.485 106.539 524.799 106.128C525.385 105.367 526.125 104.704 526.753 103.957Z" fill="#3030A0"/>
        <path d="M534.033 143.181C533.565 144.409 526.802 138.225 525.944 139.21C524.98 140.312 523.305 140.403 521.854 140.187C520.248 139.949 518.538 139.307 517.785 137.877C516.982 136.348 517.527 134.485 518.169 132.886C518.699 131.553 519.285 130.227 520.116 129.055C521.198 127.512 522.726 126.242 524.527 125.684C526.327 125.125 528.4 125.342 529.915 126.451C531.122 127.338 532.12 129.048 531.904 130.597C531.813 131.232 541.033 133.103 540.523 133.424C539.804 133.877 543.231 132.014 542.61 132.593C541.933 133.228 534.361 142.315 534.033 143.181Z" fill="#3030A0"/>
        <path d="M514.581 99.909C504.929 98.3526 495.214 103.65 488.807 111.034C484.703 115.759 481.52 122.152 483.279 128.161C484.521 132.405 487.976 135.601 491.501 138.267C494.767 140.745 498.34 143.02 502.367 143.774C508.014 144.828 513.988 142.769 519.529 144.304C522.775 145.205 525.608 147.278 528.868 148.122C532.127 148.966 536.378 147.948 537.341 144.723C533.216 140.654 527.29 138.484 521.512 138.923C519.892 139.049 517.729 139.042 517.268 137.486C517.024 136.655 517.443 135.797 517.854 135.036C519.069 132.788 520.29 130.541 521.505 128.294C522.189 127.031 522.921 125.711 524.129 124.916C525.329 124.127 527.158 124.071 528.051 125.202C528.637 125.935 528.693 126.947 528.972 127.847C529.636 129.948 531.618 131.421 533.725 132.07C535.833 132.719 538.08 132.663 540.286 132.614C541.284 132.586 542.338 132.551 543.196 132.035C544.327 131.351 544.843 130.018 545.29 128.775C546.588 125.167 547.9 121.28 546.909 117.574C546.232 115.04 543.985 112.765 541.382 112.262C538.45 111.704 537.194 113.993 534.898 115.117C534.228 115.445 533.188 115.906 532.427 115.822C531.869 115.759 531.96 115.717 531.792 115.166C531.673 114.789 531.562 114.419 531.429 114.049C530.941 112.688 530.306 111.376 529.552 110.141C528.016 107.635 525.964 105.444 523.584 103.72C520.925 101.779 517.834 100.432 514.581 99.909Z" fill="#6663DE"/>
        <path d="M540.37 137.074C540.125 137.597 539.811 138.17 539.26 138.316C539.183 137.276 539.323 136.215 539.672 135.231C539.49 135.552 539.211 135.825 538.89 136.006C538.715 135.769 538.625 135.462 538.646 135.161C538.185 135.441 537.724 135.72 537.257 135.999C537.061 135.622 536.866 135.245 536.664 134.861C536.377 135.245 535.903 135.489 535.421 135.496C535.491 135.148 535.428 134.771 535.24 134.464C534.954 134.959 534.346 135.245 533.781 135.161C533.872 134.812 533.795 134.422 533.579 134.129C533.195 134.826 532.811 135.524 532.427 136.222C532.302 136.453 532.162 136.697 531.939 136.843C531.715 136.99 531.38 136.99 531.213 136.781C531.08 136.606 531.108 136.369 531.143 136.153C531.29 135.203 531.436 134.247 531.576 133.298C531.645 132.837 531.729 132.349 532.029 131.993C532.371 131.595 532.916 131.448 533.432 131.351C535.645 130.939 537.955 131.058 540.104 131.7C540.865 131.923 542.373 132.607 542.01 133.626C541.612 134.799 540.9 135.95 540.37 137.074Z" fill="#D9D9D9" fill-opacity="0.2"/>
        <path d="M528.931 135.783C529.308 135.35 529.768 134.883 530.34 134.889C530.131 135.915 529.705 136.893 529.098 137.744C529.363 137.486 529.705 137.297 530.068 137.214C530.173 137.493 530.173 137.807 530.068 138.093C530.592 137.953 531.108 137.807 531.632 137.667C531.715 138.086 531.806 138.505 531.89 138.917C532.274 138.623 532.79 138.519 533.258 138.644C533.09 138.965 533.055 139.342 533.153 139.684C533.565 139.286 534.228 139.175 534.744 139.412C534.563 139.726 534.528 140.117 534.654 140.459C535.212 139.894 535.777 139.328 536.336 138.763C536.524 138.575 536.72 138.379 536.978 138.302C537.229 138.226 537.557 138.316 537.655 138.561C537.732 138.763 537.641 138.986 537.557 139.182C537.159 140.054 536.754 140.934 536.357 141.806C536.161 142.232 535.952 142.678 535.561 142.937C535.121 143.23 534.556 143.216 534.033 143.174C531.792 142.965 529.608 142.218 527.709 141.017C527.039 140.592 525.776 139.524 526.404 138.637C527.116 137.632 528.114 136.725 528.931 135.783Z" fill="#D9D9D9" fill-opacity="0.2"/>
        <path d="M528.449 132.6C528.31 131.832 528.407 131.023 528.735 130.318C528.414 130.416 528.1 130.513 527.779 130.611C527.751 130.164 527.716 129.725 527.688 129.285C527.116 129.773 526.481 130.185 525.804 130.506C525.644 129.78 525.748 128.999 526.097 128.343C525.776 128.573 525.371 128.671 524.974 128.629C524.659 127.449 525.609 126.165 526.802 125.914C527.996 125.663 529.266 126.298 529.971 127.296C530.515 128.064 531.094 129.536 530.731 130.478C530.585 130.862 530.201 131.176 529.922 131.469C529.482 131.909 528.994 132.3 528.449 132.6Z" fill="#D9D9D9" fill-opacity="0.2"/>
        <path d="M520.276 135.671C520.856 136.195 521.274 136.893 521.442 137.653C521.637 137.381 521.826 137.109 522.021 136.837C522.314 137.172 522.614 137.5 522.908 137.835C523.061 137.102 523.312 136.383 523.654 135.713C524.227 136.188 524.618 136.872 524.743 137.604C524.862 137.228 525.12 136.9 525.455 136.697C526.425 137.444 526.46 139.035 525.664 139.963C524.869 140.892 523.48 141.157 522.307 140.808C521.407 140.536 520.046 139.726 519.767 138.749C519.655 138.358 519.76 137.87 519.802 137.472C519.879 136.851 520.025 136.243 520.276 135.671Z" fill="#D9D9D9" fill-opacity="0.2"/>
        <path d="M513.311 137.918C513.144 138.54 513.325 139.21 513.786 139.656C514.749 140.577 514.916 142.434 515.859 143.551C516.801 144.681 518.406 144.933 519.851 145.233C522.866 145.861 525.769 147.026 528.379 148.66C529.531 149.378 530.794 150.23 532.134 149.972C533.014 149.804 533.726 149.176 534.389 148.576C535.149 147.885 535.91 147.194 536.664 146.51C537.236 145.986 537.85 145.386 537.906 144.618C537.955 143.948 537.564 143.327 537.152 142.797C533.677 138.316 527.298 136.278 521.882 138.086C521.03 138.372 520.067 138.225 519.383 137.646C518.336 136.746 518.797 135.566 519.292 134.603C520.402 132.447 521.77 130.423 523.361 128.594C523.885 127.994 524.471 127.387 525.239 127.156C526.488 126.786 527.814 127.554 528.673 128.538C529.531 129.515 530.117 130.723 531.018 131.665C533.377 134.136 537.222 134.233 540.635 134.101C541.598 134.066 542.624 134.003 543.42 133.452C543.992 133.047 544.369 132.433 544.718 131.832C546.553 128.643 548.019 125.097 547.928 121.419C547.845 118.041 546.198 114.454 543.134 112.8C539.846 111.027 536.734 112.932 533.733 114.252C530.452 115.696 527.409 117.623 524.694 119.968C521.972 122.32 519.592 125.069 517.659 128.098C515.726 131.127 514.239 134.443 513.311 137.911V137.918Z" fill="#F38118"/>
        <path d="M541.082 115.152C540.802 114.733 540.53 114.279 540.516 113.77C540.502 112.639 541.752 111.969 542.819 111.613C544.145 111.167 545.499 110.79 546.86 110.49C547.768 110.287 548.787 110.134 549.582 110.622C550.413 111.132 550.727 112.172 550.908 113.121C551.167 114.461 551.306 115.815 551.32 117.176C551.334 118.251 551.257 119.367 550.755 120.317C549.98 121.782 548.375 122.389 547.028 121.405C545.527 120.31 544.159 119.018 542.952 117.616C542.282 116.841 541.654 116.01 541.082 115.152Z" fill="#6663DE"/>
        <path d="M509.423 113.595C509.8 117.301 512.934 120.393 516.647 120.7C517.247 120.749 517.247 119.814 516.647 119.758C513.478 119.493 510.68 116.757 510.359 113.588C510.303 113.002 509.361 112.995 509.423 113.595Z" fill="#3030A0"/>
        <path d="M509.891 115.403C509.891 115.403 504.726 124.902 514.937 120.233C514.944 120.233 511.385 117.078 509.891 115.403Z" fill="#3030A0"/>
        <path d="M539.665 121.922C540.272 121.922 540.272 120.979 539.665 120.979C539.058 120.979 539.058 121.922 539.665 121.922Z" fill="#3030A0"/>
        <path d="M536.412 123.08C536.412 123.136 536.412 123.192 536.412 123.241C536.412 123.304 536.426 123.367 536.454 123.422C536.475 123.478 536.503 123.534 536.552 123.576C536.594 123.625 536.643 123.653 536.705 123.674C536.761 123.702 536.824 123.716 536.887 123.716C536.929 123.709 536.971 123.702 537.013 123.702C537.089 123.681 537.159 123.639 537.222 123.583C537.25 123.548 537.271 123.52 537.299 123.485C537.341 123.408 537.362 123.332 537.362 123.248C537.362 123.192 537.362 123.136 537.362 123.087C537.362 123.025 537.348 122.962 537.32 122.906C537.299 122.85 537.271 122.794 537.222 122.752C537.18 122.704 537.131 122.676 537.068 122.655C537.013 122.627 536.95 122.613 536.887 122.613C536.845 122.62 536.803 122.627 536.761 122.627C536.685 122.648 536.615 122.69 536.552 122.745C536.524 122.78 536.503 122.808 536.475 122.843C536.44 122.92 536.412 122.997 536.412 123.08Z" fill="#3030A0"/>
        <path d="M539.497 126.821C540.104 126.821 540.104 125.879 539.497 125.879C538.897 125.879 538.897 126.821 539.497 126.821Z" fill="#3030A0"/>
        <path d="M542.603 124.372C543.21 124.372 543.21 123.429 542.603 123.429C542.003 123.429 541.996 124.372 542.603 124.372Z" fill="#3030A0"/>
        <path d="M535.254 127.966C535.861 127.966 535.861 127.024 535.254 127.024C534.647 127.024 534.647 127.966 535.254 127.966Z" fill="#3030A0"/>
        <path d="M545.325 115.166C545.402 115.047 545.485 114.936 545.569 114.824C545.653 114.712 545.513 114.894 545.597 114.789C545.618 114.768 545.632 114.747 545.653 114.726C545.695 114.67 545.744 114.615 545.786 114.566C545.974 114.349 546.176 114.14 546.393 113.952C546.497 113.861 546.609 113.77 546.714 113.679C546.777 113.631 546.63 113.742 546.735 113.665C546.763 113.645 546.791 113.624 546.819 113.603C546.874 113.561 546.93 113.519 546.993 113.477C547.23 113.316 547.482 113.163 547.733 113.03C547.949 112.919 548.033 112.591 547.9 112.388C547.754 112.165 547.489 112.095 547.258 112.221C546.149 112.8 545.199 113.658 544.508 114.698C544.369 114.901 544.46 115.229 544.676 115.34C544.92 115.459 545.178 115.389 545.325 115.166Z" fill="#D9D9D9" fill-opacity="0.2"/>
        <path d="M544.808 117.609C545.116 118.069 545.506 118.453 545.967 118.746C546.072 118.809 546.218 118.823 546.33 118.795C546.442 118.767 546.56 118.683 546.609 118.579C546.735 118.348 546.665 118.076 546.442 117.937C546.351 117.881 546.267 117.818 546.183 117.755C546.218 117.783 546.246 117.804 546.281 117.832C546.058 117.657 545.855 117.455 545.681 117.232C545.709 117.267 545.73 117.295 545.758 117.329C545.709 117.267 545.667 117.204 545.625 117.141C545.555 117.036 545.465 116.959 545.346 116.925C545.234 116.897 545.081 116.911 544.983 116.973C544.885 117.036 544.795 117.134 544.767 117.253C544.732 117.364 544.739 117.497 544.808 117.609Z" fill="#D9D9D9" fill-opacity="0.2"/>
        <path d="M508.349 98.7994C508.718 97.0895 508.809 95.0027 507.455 93.893C507.043 93.558 506.548 93.3556 506.045 93.1811C501.69 91.7015 496.602 92.6018 493.015 95.4843C492.568 95.8472 492.136 96.245 491.877 96.7615C491.375 97.7805 491.675 99.0018 492.087 100.063C492.834 101.982 493.929 103.762 495.297 105.29C495.814 105.869 496.407 106.435 497.147 106.665C497.998 106.937 498.913 106.735 499.785 106.533C501.083 106.232 502.381 105.932 503.679 105.632C505.082 105.304 507.029 104.802 507.476 103.196C507.616 102.694 507.539 102.15 507.63 101.64C507.797 100.684 508.146 99.7486 508.349 98.7994Z" fill="#6663DE"/>
        <path d="M498.243 103.217C500.267 101.926 502.612 101.144 505.006 100.956C505.18 98.9668 503.973 96.8521 502.067 96.2449C500.162 95.6446 497.894 96.524 496.889 98.2549C495.891 99.9858 496.77 101.87 498.243 103.217Z" fill="#F38118"/>
        <path d="M555.25 144.011C554.705 142.267 554.754 140.424 555.375 138.707C555.494 138.393 555.243 138.023 554.942 137.939C554.593 137.842 554.293 138.058 554.175 138.372C553.477 140.278 553.442 142.406 554.049 144.339C554.286 145.107 555.494 144.779 555.25 144.011Z" fill="#3030A0"/>
        <path d="M559.521 144.2C561.105 142.462 562.696 140.717 564.281 138.979C564.511 138.728 564.525 138.344 564.281 138.1C564.05 137.87 563.625 137.849 563.401 138.1C561.817 139.838 560.233 141.583 558.642 143.32C558.418 143.572 558.397 143.955 558.642 144.2C558.872 144.43 559.291 144.451 559.521 144.2Z" fill="#3030A0"/>
        <path d="M563.687 145.114C565.293 144.27 566.891 143.425 568.496 142.581C568.796 142.427 568.887 142.008 568.719 141.729C568.545 141.429 568.168 141.345 567.868 141.506C566.263 142.35 564.665 143.195 563.059 144.039C562.759 144.193 562.668 144.612 562.836 144.891C563.01 145.191 563.387 145.275 563.687 145.114Z" fill="#3030A0"/>
        <path d="M567.456 149.972C568.768 149.72 570.073 149.469 571.386 149.218C571.707 149.155 571.916 148.75 571.818 148.45C571.707 148.108 571.393 147.948 571.051 148.018C569.738 148.269 568.433 148.52 567.121 148.771C566.8 148.834 566.591 149.239 566.688 149.539C566.8 149.881 567.114 150.035 567.456 149.972Z" fill="#3030A0"/>
        <path d="M566.409 155.89C567.512 157.195 569.082 157.991 570.764 158.214C571.093 158.256 571.4 157.9 571.386 157.593C571.372 157.216 571.113 157.014 570.764 156.972C570.834 156.979 570.792 156.972 570.744 156.965C570.695 156.958 570.639 156.951 570.59 156.937C570.499 156.923 570.409 156.902 570.318 156.881C570.15 156.839 569.976 156.798 569.815 156.742C569.725 156.714 569.641 156.679 569.55 156.651C569.508 156.637 569.473 156.623 569.438 156.609C569.257 156.539 569.494 156.637 569.39 156.588C569.222 156.511 569.055 156.428 568.894 156.344C568.74 156.26 568.594 156.169 568.447 156.072C568.371 156.023 568.294 155.967 568.217 155.911C568.21 155.904 568.119 155.834 568.154 155.869C568.203 155.904 568.084 155.813 568.07 155.8C567.784 155.562 567.526 155.304 567.282 155.018C567.072 154.767 566.612 154.788 566.402 155.018C566.165 155.276 566.179 155.618 566.409 155.89Z" fill="#3030A0"/>
        <path d="M466.871 104.885C468.804 105.542 470.94 105.556 472.887 104.934C473.648 104.69 473.32 103.49 472.552 103.734C470.8 104.292 468.937 104.271 467.199 103.685C466.878 103.573 466.515 103.811 466.431 104.118C466.34 104.46 466.55 104.781 466.871 104.885Z" fill="#3030A0"/>
        <path d="M468.797 99.4765C469.872 98.1086 470.646 96.5382 471.03 94.8423C471.107 94.5142 470.933 94.1653 470.598 94.0745C470.284 93.9908 469.907 94.1792 469.83 94.5073C469.495 95.9938 468.853 97.4106 467.918 98.5901C467.708 98.8553 467.659 99.2113 467.918 99.4695C468.134 99.6929 468.588 99.7417 468.797 99.4765Z" fill="#3030A0"/>
        <path d="M465.887 95.5541C466.068 93.9698 466.243 92.3786 466.424 90.7943C466.459 90.4592 466.11 90.1731 465.803 90.1731C465.433 90.1731 465.217 90.4592 465.182 90.7943C465 92.3786 464.826 93.9698 464.644 95.5541C464.609 95.8891 464.958 96.1753 465.265 96.1753C465.635 96.1823 465.852 95.8891 465.887 95.5541Z" fill="#3030A0"/>
        <path d="M461.21 94.0885C461.029 92.7904 460.84 91.4992 460.659 90.201C460.61 89.88 460.184 89.6706 459.891 89.7683C459.535 89.88 459.403 90.1871 459.459 90.536C459.64 91.8342 459.828 93.1254 460.01 94.4235C460.059 94.7446 460.485 94.9539 460.778 94.8562C461.127 94.7376 461.259 94.4305 461.21 94.0885Z" fill="#3030A0"/>
        <path d="M456.751 95.2471C456.576 95.0029 456.416 94.7516 456.276 94.4934C456.199 94.3538 456.13 94.2142 456.06 94.0676C456.053 94.0467 455.955 93.8373 456.004 93.942C455.976 93.8792 455.955 93.8164 455.927 93.7466C455.822 93.4674 455.732 93.1813 455.662 92.8951C455.627 92.7485 455.599 92.602 455.571 92.4554C455.557 92.3786 455.543 92.3019 455.536 92.2181C455.557 92.3507 455.522 92.1134 455.522 92.0855C455.487 91.7645 455.257 91.4434 454.901 91.4644C454.594 91.4783 454.238 91.7435 454.28 92.0855C454.42 93.4465 454.887 94.7516 455.69 95.8683C455.878 96.1335 456.241 96.287 456.541 96.0916C456.786 95.9311 456.953 95.5263 456.751 95.2471Z" fill="#3030A0"/>
        <path d="M412.837 261.78C414.03 260.74 415.587 260.175 417.15 260.168C417.953 260.168 417.953 258.919 417.15 258.919C415.238 258.926 413.395 259.638 411.95 260.894C411.699 261.117 411.727 261.55 411.95 261.773C412.209 262.031 412.585 262.004 412.837 261.78Z" fill="#3030A0"/>
        <path d="M462.585 188.337C462.306 192.58 462.578 197.04 464.714 200.711C467.101 204.822 471.463 207.362 475.825 209.254C482.037 211.955 489.658 213.588 495.248 209.77C498.173 207.774 500.036 204.592 501.655 201.437C505.606 193.732 508.649 185.573 510.715 177.17C509.786 177.714 508.858 178.266 507.93 178.81C508.516 174.246 510.987 169.946 514.637 167.141C515.223 166.687 515.9 166.164 515.921 165.424C515.949 164.391 514.721 163.846 513.702 163.665C512.006 163.372 510.268 163.344 508.565 163.588C509.528 160.05 510.708 156.567 512.089 153.175C510.282 154.082 508.474 154.99 506.667 155.897C506.911 151.626 506.373 147.306 505.096 143.223C503.254 144.912 501.683 146.901 500.483 149.092C498.48 147.703 496.742 145.924 495.395 143.893C494.453 145.77 493.511 147.648 492.568 149.525C492.827 149.015 490.977 146.677 490.656 146.252C489.881 145.233 488.96 144.172 487.906 143.453C487.355 146.28 485.624 147.78 483.335 149.218C480.389 151.067 477.919 153.72 475.685 156.351C470.842 162.053 467.157 168.739 464.93 175.886C463.66 179.927 462.864 184.114 462.585 188.337Z" fill="#F38118"/>
        <path d="M520.039 160.21C520.144 165.103 519.851 169.988 519.132 174.832C519.013 175.621 520.221 175.956 520.332 175.167C521.065 170.219 521.386 165.222 521.281 160.217C521.267 159.408 520.025 159.408 520.039 160.21Z" fill="#3030A0"/>
        <path d="M435.799 203.189C439.037 206.009 441.787 209.324 443.95 213.037C444.355 213.728 445.43 213.099 445.025 212.409C442.813 208.612 439.993 205.192 436.678 202.309C436.071 201.786 435.191 202.665 435.799 203.189Z" fill="#3030A0"/>
        <path d="M500.783 223.91C503.61 220.253 507.127 217.182 511.14 214.893C511.838 214.495 511.21 213.414 510.512 213.818C506.415 216.163 502.793 219.297 499.904 223.031C499.694 223.296 499.645 223.652 499.904 223.91C500.113 224.127 500.574 224.176 500.783 223.91Z" fill="#3030A0"/>
        <path d="M461.734 149.483C465.405 147.431 468.804 144.912 471.833 142.001C472.412 141.443 471.533 140.564 470.953 141.122C467.994 143.962 464.686 146.405 461.106 148.408C460.401 148.792 461.029 149.874 461.734 149.483Z" fill="#3030A0"/>
        <path d="M554.761 150.886C556.048 150.886 557.092 149.842 557.092 148.555C557.092 147.268 556.048 146.224 554.761 146.224C553.473 146.224 552.43 147.268 552.43 148.555C552.43 149.842 553.473 150.886 554.761 150.886Z" fill="#F38118"/>
        <path d="M562.948 150.886C562.948 152.177 561.901 153.217 560.617 153.217C559.325 153.217 558.285 152.17 558.285 150.886C558.285 149.595 559.332 148.555 560.617 148.555C561.908 148.555 562.948 149.595 562.948 150.886Z" fill="#F38118"/>
        <path d="M562.585 157.586C562.585 158.877 561.538 159.917 560.253 159.917C558.962 159.917 557.922 158.87 557.922 157.586C557.922 156.295 558.969 155.255 560.253 155.255C561.545 155.255 562.585 156.302 562.585 157.586Z" fill="#F38118"/>
        <path d="M555.57 159.15C554.251 160.231 551.941 159.603 550.42 157.74C548.898 155.876 548.731 153.496 550.057 152.408C551.376 151.326 553.686 151.954 555.207 153.817C556.729 155.681 556.896 158.068 555.57 159.15Z" fill="#F38118"/>
        <path d="M456.43 100.126C457.107 101.221 456.772 102.659 455.676 103.336C454.58 104.013 453.142 103.678 452.465 102.582C451.788 101.487 452.123 100.049 453.219 99.3719C454.315 98.6949 455.753 99.0299 456.43 100.126Z" fill="#F38118"/>
        <path d="M462.641 99.0089C463.318 100.105 462.983 101.542 461.888 102.219C460.792 102.896 459.354 102.561 458.677 101.466C458 100.37 458.335 98.9321 459.431 98.2551C460.52 97.5851 461.957 97.9201 462.641 99.0089Z" fill="#F38118"/>
        <path d="M465.866 104.899C466.543 105.995 466.208 107.433 465.112 108.11C464.016 108.787 462.578 108.452 461.901 107.356C461.224 106.26 461.559 104.823 462.655 104.146C463.751 103.469 465.189 103.804 465.866 104.899Z" fill="#F38118"/>
        <path d="M460.736 109.925C460.185 111.544 457.888 112.221 455.613 111.446C453.338 110.671 451.942 108.731 452.493 107.112C453.045 105.493 455.341 104.816 457.616 105.591C459.884 106.372 461.287 108.312 460.736 109.925Z" fill="#F38118"/>
        <path d="M716.946 222.242C714.58 224.741 712.13 228.677 714.412 231.253C716.199 233.27 720.268 233.388 720.477 236.075C720.561 237.15 719.87 238.12 719.214 238.979C714.036 245.672 708.382 252.002 702.31 257.893C703.19 260.14 706.219 260.838 708.494 260.028C710.769 259.219 712.472 257.355 714.161 255.638C718.865 250.857 724.211 246.712 729.997 243.327C731.896 242.217 733.885 241.156 735.301 239.474C736.711 237.792 737.416 235.287 736.348 233.367C735.895 232.551 735.141 231.839 735.092 230.904C735.043 230.003 735.671 229.215 736.306 228.573C738.547 226.325 741.297 224.657 743.642 222.522C745.987 220.386 747.976 217.524 747.941 214.349C747.892 209.833 743.572 206.246 739.105 205.618C735.574 205.122 731.91 206.197 729.083 208.333C727.659 209.407 726.382 210.768 725.572 212.367C724.756 213.986 723.695 215.13 722.439 216.463C720.603 218.383 718.774 220.316 716.946 222.242Z" fill="#3030A0"/>
        <path d="M655.032 208.668C648.744 225.39 642.456 242.12 636.167 258.842C636.042 259.17 635.923 259.526 636.035 259.854C636.23 260.398 636.928 260.524 637.5 260.559C640.013 260.726 642.526 260.894 645.038 261.068C647.299 255.932 649.833 249.343 652.094 244.199C654.027 239.809 656.023 235.315 659.339 231.846C663.373 227.623 669.047 225.251 673.06 221.014C673.772 220.26 674.435 219.437 674.826 218.481C675.307 217.28 675.328 215.933 675.119 214.656C674.477 210.713 671.643 207.195 667.923 205.736C664.203 204.278 658.187 206.204 655.032 208.668Z" fill="#3030A0"/>
        <path d="M760.664 180.52C754.125 173.213 747.313 166.164 740.494 159.115C738.98 157.544 737.402 155.939 735.392 155.109C732.956 154.104 730.137 154.376 727.666 155.297C725.195 156.218 722.32 157.977 720.149 159.471C704.418 153.266 694.375 135.232 677.631 132.852C668.384 131.54 659.213 135.476 651.11 140.131C637.78 147.794 625.622 157.817 616.821 170.421C615.711 172.013 614.615 173.743 614.511 175.684C614.441 177.024 614.846 178.336 614.992 179.669C615.544 184.673 612.452 189.272 609.506 193.355C605.151 193.216 600.091 197.689 599.728 202.023C599.366 206.365 601.745 210.58 605.026 213.442C608.313 216.296 612.417 218.013 616.5 219.535C618.552 220.302 621.015 220.979 622.788 219.688C624.03 218.781 624.568 217.099 625.887 216.303C627.415 215.382 629.551 215.919 630.961 214.831C633.913 212.562 630.081 207.063 632.559 204.285C633.131 203.643 633.948 203.287 634.765 203.029C639.852 201.43 645.471 203.098 649.993 205.918C654.523 208.738 658.264 212.625 662.375 216.024C668.23 220.868 674.979 224.776 682.37 226.556C689.761 228.335 697.823 227.847 704.586 224.378C707.489 222.892 710.106 220.889 713.051 219.479C716.813 217.678 720.973 216.903 725.07 216.143C730.639 215.117 736.837 214.202 741.59 217.273C742.092 222.389 742.748 226.968 743.251 232.083C743.342 233.019 743.46 234.01 744.04 234.749C744.654 235.531 745.666 235.859 746.615 236.152C751.647 237.702 756.679 239.251 761.711 240.807C762.409 241.024 763.128 241.247 763.686 241.722C764.642 242.538 764.908 243.892 765.11 245.142C766.045 250.872 766.98 256.609 767.916 262.339C770.372 262.339 772.759 262.709 775.216 262.709C775.837 254.075 775.921 245.365 776.535 236.725C776.647 235.161 776.751 233.528 776.158 232.069C775.23 229.78 772.864 228.489 771.105 226.751C767.155 222.85 766.401 216.722 766.953 211.201C767.504 205.681 769.123 200.251 769.025 194.702C768.949 189.161 764.363 184.659 760.664 180.52Z" fill="#6663DE"/>
        <path d="M671.287 236.061C675.258 240.549 679.23 245.037 683.194 249.525C684.66 251.179 686.265 252.923 688.414 253.419C690.878 253.991 693.37 252.791 695.589 251.59C698.192 250.188 700.935 248.568 702.143 245.867C703.35 243.166 702.01 239.209 699.072 238.93C696.252 238.658 694.012 241.722 691.178 241.736C688.1 241.757 686.272 238.386 685.141 235.524C690.334 234.393 695.526 233.263 700.719 232.132C701.731 231.909 702.813 231.651 703.497 230.876C704.069 230.234 704.264 229.347 704.376 228.496C704.865 224.692 704.034 220.728 702.045 217.441C701.173 216.003 700.063 214.67 698.611 213.825C693.084 210.629 685.434 214.998 681.009 218.334C679.23 219.674 677.841 221.3 676.291 222.871C674.421 224.762 671.894 225.718 669.989 227.505C667.079 230.241 669.138 233.633 671.287 236.061Z" fill="#6663DE"/>
        <path d="M620.471 199.302C620.841 199.504 621.218 199.713 621.644 199.755C622.935 199.867 623.723 198.45 624.491 197.41C626.376 194.863 630.228 193.872 632.957 195.484C635.686 197.096 636.6 201.263 634.555 203.692C633.871 204.501 632.929 205.108 632.448 206.051C630.933 209.01 634.897 212.506 633.76 215.633C633.09 217.476 630.786 218.299 628.867 217.908C628.218 217.776 627.576 217.538 626.92 217.629C625.287 217.873 624.707 219.877 623.633 221.126C621.316 223.813 616.995 222.731 613.701 221.426C610.149 220.009 606.547 218.557 603.532 216.205C599.017 212.702 596.009 206.818 597.188 201.228C597.893 197.864 600.392 194.939 603.504 193.523C605.019 192.832 606.722 192.49 608.376 192.706C610.072 192.922 611.726 194.444 613.213 195.267C615.627 196.614 618.049 197.962 620.471 199.302Z" fill="#F38118"/>
        <path d="M623.988 203.315C624.777 201.751 625.824 200.223 627.373 199.42C628.923 198.618 631.079 198.764 632.147 200.153C633.487 201.891 632.496 204.494 630.954 206.064C629.411 207.628 627.38 208.71 626.124 210.517C625.168 211.892 624.763 213.546 624.379 215.152C624.219 215.829 623.765 219.241 622.572 218.844C621.671 218.543 621.685 214.977 621.657 214.154C621.588 212.395 621.734 210.622 622.076 208.898C622.46 206.951 623.102 205.073 623.988 203.315Z" fill="#151515"/>
        <path d="M613.443 203.14C612.843 202.072 612.061 201.018 610.916 200.579C609.772 200.139 608.222 200.586 607.866 201.758C607.615 202.575 607.992 203.44 608.397 204.187C609.36 205.96 610.574 207.593 611.991 209.031C612.878 209.931 615.872 211.857 615.537 209.303C615.251 207.153 614.511 205.032 613.443 203.14Z" fill="#3030A0"/>
        <path d="M625.168 184.533C628.672 183.514 631.177 179.885 630.821 176.235C630.765 175.642 629.823 175.635 629.879 176.235C630.193 179.473 628.051 182.712 624.917 183.626C624.338 183.8 624.589 184.708 625.168 184.533Z" fill="#3030A0"/>
        <path d="M626.822 183.759C626.822 183.759 637.096 187.13 630.661 177.924C630.661 177.924 628.204 181.993 626.822 183.759Z" fill="#3030A0"/>
        <path d="M606.799 165.487C605.577 166.953 604.775 168.739 603.532 170.184C601.466 172.578 598.179 173.855 595.038 173.485C591.898 173.115 589.001 171.098 587.557 168.293C586.921 167.064 586.566 165.717 586.042 164.44C582.762 167.867 584.13 174.009 587.85 176.954C592.058 180.283 597.858 180.262 602.89 179.39C607.545 178.587 612.396 177.624 616.891 176.13C619.731 175.188 622.425 173.764 624.003 171.112C624.861 169.674 625.336 168.041 625.636 166.401C625.824 165.382 625.943 164.349 626.006 163.323C626.103 161.774 626.034 160.978 624.351 160.825C618.433 160.28 610.93 160.532 606.799 165.487Z" fill="#F38118"/>
        <path d="M695.827 239.844L700.803 247.919L707.678 245.211L700.161 237.115L695.827 239.844Z" fill="#151515"/>
        <path d="M645.98 259.47L637.019 256.371L633.411 262.827L644.361 264.328L645.98 259.47Z" fill="#151515"/>
        <path d="M712.367 257.858L703.406 254.759L699.805 261.215L710.755 262.715L712.367 257.858Z" fill="#151515"/>
        <path d="M776.361 259.652L766.883 260.056L765.892 267.378L776.633 264.76L776.361 259.652Z" fill="#151515"/>
        <path d="M761.739 187.137C765.48 189.754 770.442 188.574 773.701 185.783C777.045 182.914 779.452 178.329 779.976 173.967C780.241 171.761 779.948 169.465 778.803 167.532C777.673 165.64 775.858 164.342 774.064 163.142C772.152 161.858 770.296 160.594 768.983 158.661C767.72 156.805 766.925 154.606 766.827 152.352C766.617 147.459 769.898 142.825 774.672 141.604C775.705 141.338 775.272 139.733 774.232 139.998C770.296 141.01 767.141 144.088 765.808 147.899C764.398 151.933 765.361 156.567 767.867 159.959C769.137 161.669 770.763 162.939 772.522 164.119C774.344 165.34 776.319 166.548 777.435 168.509C779.753 172.564 777.687 177.805 775.349 181.358C773.981 183.431 772.145 185.357 769.807 186.313C767.441 187.276 764.705 187.206 762.576 185.72C761.697 185.085 760.867 186.522 761.739 187.137Z" fill="#6663DE"/>
        <path d="M774.518 133.438C776.493 132.866 778.566 132.754 780.576 132.335C782.586 131.909 784.631 131.1 785.887 129.474C785.943 132.789 785.769 136.188 784.52 139.266C782.935 143.174 778.845 147.096 774.302 145.756C770.938 144.765 769.102 142.036 769.374 138.463C769.577 135.776 772.166 134.122 774.518 133.438Z" fill="#F38118"/>
        <path d="M741.967 221.063C741.199 213.972 743.02 206.811 747.096 200.963C747.557 200.299 746.475 199.678 746.022 200.334C741.841 206.344 739.929 213.79 740.717 221.063C740.801 221.852 742.05 221.859 741.967 221.063Z" fill="#3030A0"/>
        <path d="M675.594 225.565C679.062 224.685 682.531 223.806 686 222.926C686.774 222.731 686.446 221.524 685.665 221.726C682.196 222.605 678.727 223.485 675.259 224.364C674.484 224.56 674.812 225.76 675.594 225.565Z" fill="#3030A0"/>
        <path d="M637.521 162.346C641.632 157.977 645.659 153.531 649.589 148.995C649.261 148.953 648.933 148.911 648.611 148.869C650.866 152.484 652.01 157.705 649.295 161.411C647.216 164.251 642.888 165.654 639.852 163.505C639.196 163.037 638.575 164.119 639.224 164.579C642.707 167.043 647.669 165.515 650.147 162.339C653.343 158.249 652.248 152.338 649.686 148.234C649.484 147.913 648.981 147.794 648.709 148.108C644.78 152.638 640.753 157.091 636.642 161.46C636.091 162.046 636.97 162.932 637.521 162.346Z" fill="#3030A0"/>
        <path d="M646.35 200.99C650.936 201.032 655.361 198.771 658.11 195.121C660.888 191.443 661.516 186.543 660.065 182.202C659.255 179.78 657.838 177.596 655.912 175.921C655.312 175.397 654.425 176.277 655.033 176.8C659.032 180.283 660.658 186.145 658.864 191.171C657.036 196.3 651.745 199.797 646.35 199.748C645.548 199.734 645.548 200.983 646.35 200.99Z" fill="#3030A0"/>
        <path d="M427.375 105.018H355.683C353.094 105.018 351 102.924 351 100.335V60.7134C351 58.1241 353.094 56.0303 355.683 56.0303H427.368C429.957 56.0303 432.051 58.1241 432.051 60.7134V100.335C432.058 102.917 429.957 105.018 427.375 105.018Z" fill="#F38118"/>
        <path d="M426.781 102.771H356.276C355.027 102.771 354.008 101.752 354.008 100.502V60.5388C354.008 59.2895 355.027 58.2705 356.276 58.2705H426.781C428.031 58.2705 429.05 59.2895 429.05 60.5388V100.502C429.057 101.752 428.038 102.771 426.781 102.771ZM356.276 58.8149C355.327 58.8149 354.552 59.5896 354.552 60.5388V100.502C354.552 101.451 355.327 102.226 356.276 102.226H426.781C427.73 102.226 428.505 101.451 428.505 100.502V60.5388C428.505 59.5896 427.73 58.8149 426.781 58.8149H356.276Z" fill="#151515"/>
        <path d="M354.462 95.596L354.092 95.1981L372.761 77.8825L382.616 86.467L401 71.4755L411.392 77.9034L428.582 60.3435L428.973 60.7274L411.476 78.6014L401.049 72.1455L382.609 87.1859L372.768 78.6223L354.462 95.596Z" fill="#151515"/>
        <path d="M372.762 80.06C373.664 80.06 374.395 79.3288 374.395 78.4269C374.395 77.5249 373.664 76.7937 372.762 76.7937C371.86 76.7937 371.128 77.5249 371.128 78.4269C371.128 79.3288 371.86 80.06 372.762 80.06Z" fill="#151515"/>
        <path d="M384.249 86.7042C384.249 87.6045 383.517 88.3374 382.616 88.3374C381.716 88.3374 380.983 87.6045 380.983 86.7042C380.983 85.8039 381.716 85.071 382.616 85.071C383.517 85.071 384.249 85.8039 384.249 86.7042Z" fill="#151515"/>
        <path d="M401.021 73.5693C401.923 73.5693 402.654 72.8381 402.654 71.9361C402.654 71.0342 401.923 70.303 401.021 70.303C400.119 70.303 399.387 71.0342 399.387 71.9361C399.387 72.8381 400.119 73.5693 401.021 73.5693Z" fill="#151515"/>
        <path d="M411.441 79.5993C412.343 79.5993 413.074 78.8681 413.074 77.9662C413.074 77.0642 412.343 76.333 411.441 76.333C410.539 76.333 409.808 77.0642 409.808 77.9662C409.808 78.8681 410.539 79.5993 411.441 79.5993Z" fill="#151515"/>
        <path d="M421.219 98.234H410.199C409.256 98.234 408.496 97.4733 408.496 96.5311C408.496 95.5889 409.256 94.8281 410.199 94.8281H421.219C422.161 94.8281 422.922 95.5889 422.922 96.5311C422.922 97.4733 422.161 98.234 421.219 98.234Z" fill="#151515"/>
        <path d="M371.833 65.0475H360.813C359.871 65.0475 359.11 64.2868 359.11 63.3446C359.11 62.4023 359.871 61.6416 360.813 61.6416H371.833C372.775 61.6416 373.536 62.4023 373.536 63.3446C373.536 64.2868 372.775 65.0475 371.833 65.0475Z" fill="#151515"/>
        <path d="M806.197 61.5439H734.513C731.923 61.5439 729.83 59.4501 729.83 56.8608V17.2393C729.83 14.6499 731.923 12.5562 734.513 12.5562H806.197C808.786 12.5562 810.88 14.6499 810.88 17.2393V56.8608C810.88 59.4501 808.786 61.5439 806.197 61.5439Z" fill="#F38118"/>
        <path d="M805.611 59.3035H735.099C733.85 59.3035 732.831 58.2845 732.831 57.0352V17.0717C732.831 15.8224 733.85 14.8035 735.099 14.8035H805.604C806.853 14.8035 807.879 15.8224 807.879 17.0717V57.0352C807.879 58.2845 806.86 59.3035 805.611 59.3035ZM735.099 15.3409C734.15 15.3409 733.375 16.1156 733.375 17.0648V57.0282C733.375 57.9774 734.15 58.7521 735.099 58.7521H805.604C806.553 58.7521 807.328 57.9774 807.328 57.0282V17.0648C807.328 16.1156 806.553 15.3409 805.604 15.3409H735.099Z" fill="#151515"/>
        <path d="M753.147 51.6263C745.107 51.6263 738.568 45.0867 738.568 37.0466C738.568 29.0064 745.107 22.4668 753.147 22.4668C761.188 22.4668 767.727 29.0064 767.727 37.0466C767.727 45.0867 761.188 51.6263 753.147 51.6263ZM753.147 23.06C745.435 23.06 739.161 29.3344 739.161 37.0466C739.161 44.7587 745.435 51.0331 753.147 51.0331C760.86 51.0331 767.134 44.7587 767.134 37.0466C767.134 29.3344 760.86 23.06 753.147 23.06Z" fill="#151515"/>
        <path d="M753.147 37.0466L757.195 23.3462C757.195 23.3462 765.361 25.8936 766.911 33.2149C768.46 40.5362 765.18 47.69 759.115 50.0211L753.147 37.0466Z" fill="#151515"/>
        <path d="M787.562 51.6263C779.522 51.6263 772.983 45.0867 772.983 37.0466C772.983 29.0064 779.522 22.4668 787.562 22.4668C795.603 22.4668 802.142 29.0064 802.142 37.0466C802.142 45.0867 795.603 51.6263 787.562 51.6263ZM787.562 23.06C779.85 23.06 773.576 29.3344 773.576 37.0466C773.576 44.7587 779.85 51.0331 787.562 51.0331C795.275 51.0331 801.549 44.7587 801.549 37.0466C801.556 29.3344 795.282 23.06 787.562 23.06Z" fill="#151515"/>
        <path d="M787.563 37.0466L773.325 38.1842C773.325 38.1842 774.413 51.5357 789.21 51.3333L787.563 37.0466Z" fill="#151515"/>
        <path d="M369.719 206.42L358.573 191.436H380.858L369.719 206.42Z" fill="#F38118"/>
        <path d="M193.719 206.42L182.573 191.436H204.858L193.719 206.42Z" fill="#F38118"/>
        <path d="M567.289 220.211L556.15 205.234H578.428L567.289 220.211Z" fill="#F38118"/>
        <path d="M588.08 133.214L597.746 146.203H578.421L588.08 133.214Z" fill="#F38118"/>
        <path d="M631.757 115.396L638.178 124.03H625.336L631.757 115.396Z" fill="#F38118"/>
        <path d="M741.157 144.088L747.578 152.722H734.736L741.157 144.088Z" fill="#F38118"/>
        <path d="M870.377 144.088L876.798 152.722H863.956L870.377 144.088Z" fill="#F38118"/>
        <path d="M719.103 121.07L727.052 131.763H711.153L719.103 121.07Z" fill="#F38118"/>
        <path d="M806.448 175.816L814.398 186.501H798.499L806.448 175.816Z" fill="#F38118"/>
        <path d="M541.954 190.508L535.002 181.155H548.905L541.954 190.508Z" fill="#F38118"/>
        <path d="M391.55 153.217L382.247 140.703H400.86L391.55 153.217Z" fill="#F38118"/>
        <path d="M215.55 153.217L206.247 140.703H224.86L215.55 153.217Z" fill="#F38118"/>
        <path d="M348.303 153.217L339 140.703H357.614L348.303 153.217Z" fill="#F38118"/>
        <path d="M172.303 153.217L163 140.703H181.614L172.303 153.217Z" fill="#F38118"/>
        <path d="M435.226 169.214L427.556 158.898H442.897L435.226 169.214Z" fill="#F38118"/>
        <path d="M244.824 155.988H230.516V43.356H244.824V155.988ZM231.975 154.529H243.358V44.8146H231.975V154.529Z" fill="#D9D9D9" fill-opacity="0.2"/>
        <path d="M265.922 23.2905H253.081V141.555H265.922V23.2905Z" fill="#D9D9D9" fill-opacity="0.2"/>
        <path d="M288.494 187.786H274.186V43.356H288.494V187.786ZM275.652 186.327H287.035V44.8146H275.652V186.327Z" fill="#D9D9D9" fill-opacity="0.2"/>
        <path d="M237.67 169.214L230 158.898H245.341L237.67 169.214Z" fill="#F38118"/>
        <path d="M943.824 127.697H929.516V15.0654H943.824V127.697ZM930.975 126.239H942.358V16.5241H930.975V126.239Z" fill="#D9D9D9" fill-opacity="0.2"/>
        <path d="M964.922 -5H952.081V113.264H964.922V-5Z" fill="#D9D9D9" fill-opacity="0.2"/>
        <path d="M987.494 159.495H973.186V15.0654H987.494V159.495ZM974.652 158.036H986.035V16.5241H974.652V158.036Z" fill="#D9D9D9" fill-opacity="0.2"/>
        <path d="M936.67 140.923L929 130.608H944.341L936.67 140.923Z" fill="#F38118"/>
        <path d="M303.67 169.214L296 158.898H311.341L303.67 169.214Z" fill="#F38118"/>
        <path d="M413.388 210.852L407.923 203.503H418.86L413.388 210.852Z" fill="#F38118"/>
        <path d="M4.3485 256.846L-6.72939 253.146L3.23542 208.841L24.4214 215.915L4.3485 256.846Z" fill="#F38118"/>
        <path d="M1.66343 215.818L-0.868917 227.081L16.1584 232.765L21.2589 222.352L1.66343 215.818Z" fill="#F38118"/>
        <path d="M72.9867 177.79L70.6064 176.996C62.6341 174.339 54.0066 178.652 51.3439 186.626L46.6878 200.596C44.0274 208.577 48.3373 217.198 56.3079 219.869L58.6881 220.663C66.6688 223.324 75.2941 219.005 77.9568 211.031L82.6129 197.061C85.2756 189.086 80.9696 180.457 72.9867 177.79ZM74.1568 207.517C72.2145 213.347 65.9081 216.483 60.0861 214.544L58.3474 213.961C52.5255 212.023 49.3714 205.723 51.316 199.899L54.7194 189.703C56.664 183.879 62.9637 180.725 68.794 182.667L70.5327 183.25C76.3631 185.193 79.5071 191.503 77.5603 197.321L74.1568 207.517Z" fill="#F38118"/>
        <path d="M-6.24585 151.366L-8.61994 150.57C-16.6006 147.909 -25.222 152.219 -27.8824 160.2L-32.5385 174.17C-35.1989 182.15 -30.8868 190.778 -22.9123 193.441L-20.5343 194.229C-12.5536 196.889 -3.92609 192.577 -1.27183 184.598L3.38653 170.635C6.04078 162.656 1.72868 154.029 -6.24585 151.366ZM-5.0757 181.093C-7.01805 186.923 -13.3222 190.065 -19.1464 188.12L-20.8829 187.544C-26.707 185.599 -29.8612 179.299 -27.9143 173.481L-24.5131 163.279C-22.5685 157.455 -16.2688 154.301 -10.4385 156.243L-8.69976 156.826C-2.8756 158.771 0.274622 165.079 -1.66384 170.901L-5.0757 181.093Z" fill="#F38118"/>
        <path d="M12.3762 252.837L-10.7365 245.124C-17.6557 242.814 -25.1285 246.55 -27.4349 253.461L20.7254 269.531C23.0257 262.623 19.2931 255.141 12.3762 252.837Z" fill="#F38118"/>
        <path d="M32.2842 226.023C31.4406 228.554 28.7068 229.916 26.1845 229.077L-6.56596 218.153C-9.09662 217.309 -10.4566 214.581 -9.6107 212.057C-8.76706 209.526 -6.03935 208.166 -3.51483 209.012L29.2356 219.936C31.7556 220.77 33.1262 223.507 32.2842 226.023Z" fill="#F38118"/>
        <path d="M-11.6173 211.655L36.5408 227.719C44.5154 230.382 53.1429 226.07 55.8033 218.089L74.0522 163.392L-2.99856 137.696L-21.2413 192.391C-23.9101 200.367 -19.598 208.995 -11.6173 211.655Z" fill="#F38118"/>
        <path d="M55.801 218.083L74.0499 163.386L45.1573 153.754L22.0922 222.897L36.5408 227.719C44.5153 230.382 53.1429 226.07 55.801 218.083Z" fill="#F38118"/>
        <path d="M-27.4388 253.469L20.7216 269.54C21.8698 266.089 21.526 262.502 20.0168 259.481L-20.8396 245.859C-23.8549 247.366 -26.2845 250.017 -27.4388 253.469Z" fill="#F38118"/>
        <path d="M26.6126 270.429C26.0813 272.023 24.3492 272.887 22.7548 272.355L-30.2829 254.663C-31.8774 254.132 -32.7386 252.406 -32.2073 250.811C-31.6721 249.208 -29.9439 248.353 -28.3494 248.885L24.6883 266.577C26.2744 267.104 27.1439 268.834 26.6126 270.429Z" fill="#F38118"/>
        <path d="M79.428 163.293C78.6566 165.602 76.0924 166.818 73.7038 166.02L-4.30606 140.006C-6.69692 139.202 -8.01735 136.696 -7.25209 134.389C-6.48459 132.089 -3.91649 130.864 -1.51948 131.666L76.4865 157.688C78.8729 158.48 80.1916 161 79.428 163.293Z" fill="#F38118"/>
        <path d="M1.35918 140.602C1.93984 140.285 3.24254 138.743 3.24254 138.743C3.24254 138.743 3.46822 140.75 3.77896 141.333C4.09809 141.92 5.63421 143.225 5.63421 143.225C5.63421 143.225 3.62928 143.456 3.04412 143.761C2.46959 144.076 1.15626 145.608 1.15626 145.608C1.15626 145.608 0.932828 143.607 0.615945 143.026C0.31135 142.441 -1.22253 141.142 -1.22253 141.142C-1.22253 141.142 0.771769 140.9 1.35918 140.602Z" fill="#D9D9D9" fill-opacity="0.2"/>
        <path d="M1176.91 253.999L1166.04 258.267L1145.26 217.89L1166.05 209.724L1176.91 253.999Z" fill="#F38118"/>
        <path d="M1148.53 224.25L1153.81 234.514L1170.52 227.95L1167.75 216.69L1148.53 224.25Z" fill="#F38118"/>
        <path d="M1178.84 149.322L1176.5 150.24C1168.68 153.317 1164.83 162.159 1167.91 169.985L1173.3 183.688C1176.38 191.516 1185.21 195.364 1193.04 192.3L1195.38 191.382C1203.21 188.302 1207.05 179.456 1203.98 171.631L1198.59 157.928C1195.51 150.103 1186.67 146.246 1178.84 149.322ZM1198.81 171.373C1201.06 177.092 1198.23 183.543 1192.52 185.791L1190.82 186.46C1185.11 188.708 1178.65 185.899 1176.4 180.184L1172.47 170.179C1170.23 164.464 1173.03 158.003 1178.75 155.753L1180.46 155.084C1186.18 152.834 1192.64 155.657 1194.88 161.369L1198.81 171.373Z" fill="#F38118"/>
        <path d="M1101.11 179.885L1098.78 180.797C1090.95 183.877 1087.1 192.714 1090.18 200.542L1095.57 214.245C1098.65 222.074 1107.49 225.925 1115.32 222.852L1117.65 221.931C1125.48 218.851 1129.33 210.008 1126.25 202.185L1120.86 188.486C1117.78 180.663 1108.94 176.811 1101.11 179.885ZM1121.08 201.937C1123.33 207.655 1120.51 214.11 1114.79 216.355L1113.09 217.026C1107.38 219.271 1100.92 216.463 1098.68 210.751L1094.74 200.743C1092.5 195.028 1095.3 188.567 1101.02 186.316L1102.73 185.648C1108.45 183.403 1114.91 186.22 1117.16 191.93L1121.08 201.937Z" fill="#F38118"/>
        <path d="M1180.49 245.773L1157.82 254.685C1151.03 257.352 1147.69 265.012 1150.36 271.793L1197.61 253.222C1194.94 246.447 1187.28 243.103 1180.49 245.773Z" fill="#F38118"/>
        <path d="M1178.56 212.433C1179.54 214.916 1178.32 217.714 1175.84 218.688L1143.71 231.321C1141.23 232.297 1138.44 231.077 1137.47 228.598C1136.49 226.115 1137.71 223.322 1140.19 222.352L1172.32 209.719C1174.79 208.742 1177.59 209.963 1178.56 212.433Z" fill="#F38118"/>
        <path d="M1135.67 229.577L1182.92 211.003C1190.74 207.93 1194.59 199.087 1191.51 191.258L1170.42 137.594L1094.83 167.316L1115.93 220.974C1119 228.805 1127.84 232.657 1135.67 229.577Z" fill="#F38118"/>
        <path d="M1191.51 191.255L1170.41 137.591L1142.07 148.738L1168.74 216.574L1182.92 211.003C1190.74 207.929 1194.59 199.087 1191.51 191.255Z" fill="#F38118"/>
        <path d="M1150.36 271.802L1197.61 253.231C1196.28 249.848 1193.71 247.317 1190.62 245.968L1150.54 261.73C1149.19 264.821 1149.03 268.413 1150.36 271.802Z" fill="#F38118"/>
        <path d="M1202.7 250.134C1203.32 251.698 1202.54 253.471 1200.98 254.087L1148.94 274.542C1147.38 275.158 1145.61 274.386 1145 272.822C1144.38 271.25 1145.16 269.485 1146.72 268.87L1198.75 248.414C1200.31 247.801 1202.09 248.57 1202.7 250.134Z" fill="#F38118"/>
        <path d="M1174.48 134.068C1175.37 136.335 1174.18 138.913 1171.84 139.833L1095.31 169.927C1092.96 170.844 1090.34 169.769 1089.45 167.508C1088.56 165.251 1089.74 162.664 1092.1 161.741L1168.63 131.657C1170.97 130.733 1173.59 131.82 1174.48 134.068Z" fill="#F38118"/>
        <path d="M1100.04 166.749C1100.28 166.133 1100.29 164.115 1100.29 164.115C1100.29 164.115 1101.75 165.509 1102.36 165.757C1102.98 166.003 1105 166.018 1105 166.018C1105 166.018 1103.61 167.482 1103.36 168.091C1103.12 168.701 1103.09 170.719 1103.09 170.719C1103.09 170.719 1101.64 169.328 1101.02 169.085C1100.41 168.832 1098.4 168.82 1098.4 168.82C1098.4 168.82 1099.78 167.355 1100.04 166.749Z" fill="#D9D9D9" fill-opacity="0.2"/>
        <path d="M-0.261808 101.107C-0.261808 101.107 22.5833 117.864 55.7538 82.9137C88.9244 47.9638 83.119 3.21452 83.119 3.21452C83.119 3.21452 82.9099 -3.667 80.9705 -0.482302C78.9715 0.0521557 77.9177 -0.482296 77.9177 -0.482296C77.9177 -0.482296 88.1916 23.761 67.6439 61.6952C37.8761 108.323 4.04689 103.05 -0.261808 91.6981C-0.249798 91.6976 -0.261808 95.356 -0.261808 101.107Z" fill="#F38118"/>
        <path d="M-0.3214 40.0939C-0.3214 40.0939 8.13478 62.3545 63.1657 54.0558C118.197 45.7571 146.937 -0.474572 146.937 -0.474572C146.937 -0.474572 148.447 -2.04412 144.411 -0.561324C144.353 -0.375776 144.303 -1.00145 144.303 -1.00145C144.303 -1.00145 112.8 33.5507 83.936 45.5177C42.2395 62.8085 -3.5143 46.3211 0.732299 33.5081C0.732311 39.8305 0.732299 31.6641 -0.3214 40.0939Z" fill="#F38118"/>
    </g>
    <rect x="0.5" y="0.5" width="1169" height="259" rx="14.5" stroke="#F38118"/>
    <defs>
        <clipPath id="clip0_0_142">
            <rect width="1170" height="260" rx="15" fill="white"/>
        </clipPath>
    </defs>
</svg>
