<svg width="22" height="22" viewBox="0 0 22 22" fill="none" xmlns="http://www.w3.org/2000/svg">
    <path d="M16.9227 21.1539C16.9227 21.3783 16.8336 21.5935 16.6749 21.7522C16.5162 21.9109 16.301 22 16.0766 22H5.92338C5.69898 22 5.48378 21.9109 5.3251 21.7522C5.16642 21.5935 5.07728 21.3783 5.07728 21.1539C5.07728 20.9295 5.16642 20.7142 5.3251 20.5556C5.48378 20.3969 5.69898 20.3077 5.92338 20.3077H16.0766C16.301 20.3077 16.5162 20.3969 16.6749 20.5556C16.8336 20.7142 16.9227 20.9295 16.9227 21.1539ZM21.7519 10.4017L11.5986 0.248158C11.52 0.169488 11.4267 0.107078 11.324 0.0644977C11.2213 0.0219169 11.1112 0 11 0C10.8888 0 10.7787 0.0219169 10.676 0.0644977C10.5733 0.107078 10.48 0.169488 10.4014 0.248158L0.248151 10.4017C0.129687 10.52 0.0489967 10.6709 0.0162945 10.8351C-0.0164077 10.9993 0.000349012 11.1695 0.0644434 11.3242C0.128538 11.4789 0.237088 11.6111 0.376351 11.7041C0.515614 11.797 0.679329 11.8466 0.846769 11.8465H5.07728V17.7694C5.07728 17.9938 5.16642 18.209 5.3251 18.3677C5.48378 18.5263 5.69898 18.6155 5.92338 18.6155H16.0766C16.301 18.6155 16.5162 18.5263 16.6749 18.3677C16.8336 18.209 16.9227 17.9938 16.9227 17.7694V11.8465H21.1532C21.3207 11.8466 21.4844 11.797 21.6236 11.7041C21.7629 11.6111 21.8715 11.4789 21.9356 11.3242C21.9997 11.1695 22.0164 10.9993 21.9837 10.8351C21.951 10.6709 21.8703 10.52 21.7519 10.4017Z" fill="#26A69A"/>
</svg>
