<svg width="15" height="15" viewBox="0 0 15 15" fill="none" xmlns="http://www.w3.org/2000/svg">
<path d="M1.51195 1.5L6.41278 7.57575C6.6273 7.84187 6.74409 8.17251 6.74393 8.51325V13.5L8.25607 12.375V8.5125C8.25608 8.17202 8.37286 7.84167 8.58722 7.57575L13.4881 1.5H1.5127H1.51195ZM1.51195 0H13.4881C13.7729 3.52505e-05 14.052 0.0798927 14.2931 0.230374C14.5342 0.380856 14.7276 0.59584 14.8509 0.850565C14.9743 1.10529 15.0226 1.38939 14.9902 1.67015C14.9579 1.95091 14.8463 2.21691 14.6683 2.4375L9.7682 8.5125V12.375C9.7682 12.6079 9.71355 12.8375 9.60856 13.0458C9.50358 13.2541 9.35115 13.4353 9.16335 13.575L7.65121 14.7C7.42656 14.8671 7.15942 14.9689 6.87973 14.9939C6.60004 15.019 6.31886 14.9662 6.06769 14.8416C5.81651 14.7171 5.60527 14.5256 5.45763 14.2886C5.31 14.0516 5.2318 13.7786 5.2318 13.5V8.5125L0.331726 2.4375C0.153682 2.21691 0.0420757 1.95091 0.00976123 1.67015C-0.0225533 1.38939 0.0257388 1.10529 0.149075 0.850565C0.272411 0.59584 0.465774 0.380856 0.706893 0.230374C0.948012 0.0798927 1.22708 3.52505e-05 1.51195 0V0Z" fill="#F2C037"/>
</svg>
