<svg width="22" height="22" viewBox="0 0 22 22" fill="none" xmlns="http://www.w3.org/2000/svg">
    <path d="M5.07742 0.846128C5.07742 0.621721 5.16656 0.406505 5.32524 0.247825C5.48392 0.0891456 5.69914 0 5.92354 0H16.077C16.3015 0 16.5167 0.0891456 16.6754 0.247825C16.834 0.406505 16.9232 0.621721 16.9232 0.846128C16.9232 1.07054 16.834 1.28575 16.6754 1.44443C16.5167 1.60311 16.3015 1.69226 16.077 1.69226H5.92354C5.69914 1.69226 5.48392 1.60311 5.32524 1.44443C5.16656 1.28575 5.07742 1.07054 5.07742 0.846128ZM21.9354 10.676C21.8714 10.5214 21.763 10.3892 21.6239 10.2962C21.4847 10.2032 21.3211 10.1536 21.1538 10.1535H16.9232V7.61515C16.9232 7.39075 16.834 7.17553 16.6754 7.01685C16.5167 6.85817 16.3015 6.76903 16.077 6.76903H5.92354C5.69914 6.76903 5.48392 6.85817 5.32524 7.01685C5.16656 7.17553 5.07742 7.39075 5.07742 7.61515V10.1535H0.846792C0.679347 10.1534 0.515628 10.203 0.376361 10.2959C0.237094 10.3889 0.128541 10.5211 0.0644451 10.6758C0.000349022 10.8305 -0.0164082 11.0007 0.0162949 11.1649C0.048998 11.3291 0.129691 11.48 0.248158 11.5983L10.4017 21.7518C10.4802 21.8305 10.5736 21.8929 10.6763 21.9355C10.779 21.9781 10.8891 22 11.0003 22C11.1115 22 11.2216 21.9781 11.3243 21.9355C11.427 21.8929 11.5203 21.8305 11.5989 21.7518L21.7524 11.5983C21.8707 11.4799 21.9513 11.3291 21.9838 11.1649C22.0164 11.0008 21.9995 10.8306 21.9354 10.676ZM5.92354 5.07677H16.077C16.3015 5.07677 16.5167 4.98762 16.6754 4.82894C16.834 4.67026 16.9232 4.45505 16.9232 4.23064C16.9232 4.00623 16.834 3.79102 16.6754 3.63234C16.5167 3.47366 16.3015 3.38451 16.077 3.38451H5.92354C5.69914 3.38451 5.48392 3.47366 5.32524 3.63234C5.16656 3.79102 5.07742 4.00623 5.07742 4.23064C5.07742 4.45505 5.16656 4.67026 5.32524 4.82894C5.48392 4.98762 5.69914 5.07677 5.92354 5.07677Z"
          fill="#EF5350"/>
</svg>
