<svg width="16" height="16" viewBox="0 0 16 16" fill="none" xmlns="http://www.w3.org/2000/svg">
    <path fill-rule="evenodd" clip-rule="evenodd" d="M7.26623 2.64206C7.39423 2.47462 7.62642 2.23276 8 2.23276C8.37358 2.23276 8.60577 2.47462 8.73377 2.64206C8.85656 2.80132 8.97935 3.02234 9.10586 3.24932L9.19591 3.41155L9.23833 3.48597L9.312 3.50308L9.48912 3.54327C9.73247 3.59834 9.97507 3.65266 10.1611 3.72634C10.3665 3.80746 10.6448 3.96448 10.7527 4.31052C10.8584 4.64913 10.7252 4.93639 10.6091 5.12169C10.5012 5.29285 10.3375 5.48336 10.17 5.67908L10.051 5.81899L9.98995 5.89118C9.99144 5.91797 9.99516 5.94922 9.99888 5.99164L10.0167 6.17769C10.042 6.4389 10.0666 6.69192 10.0577 6.89434C10.0487 7.10718 9.99814 7.42866 9.7094 7.64671C9.41172 7.87294 9.08428 7.82383 8.87591 7.76355C8.68391 7.70922 8.45693 7.60429 8.22847 7.49936L8.06326 7.42271L8 7.39369L7.93675 7.42346L7.77079 7.49936C7.54307 7.60429 7.31609 7.70922 7.12409 7.76355C6.91572 7.82308 6.58828 7.87294 6.29061 7.64671C6.00261 7.42866 5.95126 7.10718 5.94233 6.89508C5.9334 6.69192 5.95721 6.4389 5.98326 6.17694L6.00112 5.9909L6.01079 5.89118C5.99035 5.86699 5.96976 5.84292 5.94903 5.81899L5.82995 5.67908C5.66251 5.48336 5.49879 5.29211 5.39089 5.12094C5.27479 4.93639 5.14158 4.64913 5.24726 4.30978C5.35442 3.96522 5.63349 3.80746 5.83889 3.72634C6.02493 3.65266 6.26754 3.59834 6.51088 3.54327L6.688 3.50308L6.76242 3.48597L6.80409 3.41155L6.89414 3.24932C7.02065 3.02234 7.14344 2.80132 7.26623 2.64206ZM8 3.56039C7.95684 3.63555 7.90847 3.72187 7.85191 3.82383L7.77898 3.9548L7.76186 3.98457C7.70382 4.09173 7.60707 4.26885 7.44558 4.39164C7.28112 4.51666 7.08242 4.55983 6.96707 4.58513L6.93433 4.59183L6.79293 4.62383C6.66196 4.65359 6.55554 4.67741 6.46549 4.70048C6.52428 4.77266 6.60093 4.86346 6.70065 4.98029L6.7974 5.09341L6.81972 5.11871C6.90009 5.21173 7.02958 5.36057 7.08986 5.55406C7.1494 5.74457 7.12856 5.94104 7.11591 6.06457L7.11219 6.09955L7.0973 6.25062C7.08584 6.36463 7.07542 6.47874 7.06605 6.59294C7.14419 6.55871 7.232 6.51853 7.33693 6.47015L7.47014 6.40913L7.49991 6.39425C7.60707 6.34439 7.79237 6.25657 8 6.25657C8.20763 6.25657 8.39293 6.34439 8.50009 6.39499L8.52986 6.40913L8.66307 6.47015C8.76726 6.51853 8.85656 6.55946 8.93396 6.59294C8.92458 6.47874 8.91416 6.36463 8.9027 6.25062L8.88782 6.09955L8.88409 6.06457C8.87144 5.94029 8.85061 5.74457 8.91014 5.55406C8.96968 5.36057 9.09991 5.21173 9.18028 5.11871L9.20261 5.09341L9.29935 4.98029C9.39907 4.86346 9.47572 4.77266 9.53451 4.70048C9.44447 4.67815 9.33805 4.65359 9.20707 4.62383L9.06568 4.59183L9.03293 4.58439C8.91758 4.55983 8.71889 4.51666 8.55442 4.3909C8.39293 4.26885 8.29619 4.09173 8.23814 3.98532L8.22102 3.9548L8.14809 3.82383C8.09154 3.72187 8.04391 3.63555 8 3.56039Z" fill="#F2C037"/>
    <path fill-rule="evenodd" clip-rule="evenodd" d="M4.64967 0.265854C5.75712 0.0843134 6.87778 -0.00455274 8 0.000179454C9.36037 0.000179454 10.4848 0.119993 11.3503 0.265854L11.4508 0.28297C12.2024 0.408738 12.8275 0.513668 13.3157 1.11497C13.629 1.5012 13.7302 1.91869 13.7533 2.38381L14.1194 2.50585C14.464 2.62046 14.7669 2.72167 15.0058 2.8333C15.2647 2.95385 15.5021 3.10864 15.6837 3.36092C15.8653 3.61246 15.9375 3.88706 15.9702 4.1706C16 4.4333 16 4.75106 16 5.11571V5.22288C16 5.52204 16 5.78623 15.9777 6.00725C15.9539 6.24613 15.901 6.47906 15.7693 6.70381C15.6361 6.9293 15.4582 7.08855 15.261 7.22548C15.0787 7.35199 14.848 7.48074 14.586 7.62585L12.6214 8.71757C12.2195 9.50716 11.6688 10.2112 10.9098 10.7194C10.2586 11.1563 9.47944 11.4331 8.55814 11.512V13.0234H9.62233C9.92341 13.0234 10.2152 13.1278 10.448 13.3187C10.6808 13.5096 10.8403 13.7753 10.8993 14.0705L11.0623 14.8839H12.4651C12.6131 14.8839 12.7551 14.9427 12.8598 15.0474C12.9645 15.152 13.0233 15.294 13.0233 15.442C13.0233 15.5901 12.9645 15.732 12.8598 15.8367C12.7551 15.9414 12.6131 16.0002 12.4651 16.0002H3.53488C3.38686 16.0002 3.24489 15.9414 3.14022 15.8367C3.03555 15.732 2.97674 15.5901 2.97674 15.442C2.97674 15.294 3.03555 15.152 3.14022 15.0474C3.24489 14.9427 3.38686 14.8839 3.53488 14.8839H4.93767L5.10065 14.0705C5.15966 13.7753 5.31915 13.5096 5.55198 13.3187C5.78481 13.1278 6.07659 13.0234 6.37767 13.0234H7.44186V11.512C6.52056 11.4331 5.7414 11.1563 5.09023 10.7202C4.33191 10.2112 3.78047 9.50716 3.3786 8.71757L1.41395 7.62585C1.18277 7.50312 0.957527 7.36951 0.738977 7.22548C0.533155 7.09175 0.359764 6.91379 0.231442 6.70455C0.11057 6.49064 0.0391179 6.25238 0.0223256 6.00725C-2.07923e-08 5.78623 0 5.52204 0 5.22288V5.11497C0 4.75181 -2.77231e-08 4.4333 0.0297674 4.1706C0.0625116 3.88706 0.133953 3.61246 0.316279 3.36092C0.49786 3.10864 0.735256 2.95385 0.993488 2.83255C1.23386 2.72092 1.536 2.62046 1.88056 2.50585L2.2467 2.38381C2.26977 1.91795 2.37098 1.5012 2.68428 1.11497C3.17321 0.512924 3.79758 0.407993 4.54995 0.28297L4.64967 0.265854ZM6.07628 14.8839H9.92372L9.80465 14.2893C9.79622 14.2471 9.77346 14.2092 9.74022 14.1819C9.70698 14.1547 9.66532 14.1397 9.62233 14.1397H6.37767C6.33468 14.1397 6.29302 14.1547 6.25978 14.1819C6.22654 14.2092 6.20378 14.2471 6.19535 14.2893L6.07628 14.8839ZM2.27126 3.55218L2.26084 3.5559C1.8813 3.68241 1.64019 3.76427 1.46456 3.84539C1.30307 3.91981 1.25098 3.97264 1.22195 4.01357C1.19219 4.05376 1.15944 4.11999 1.13935 4.29711C1.11702 4.48911 1.11628 4.74362 1.11628 5.14399V5.19832C1.11628 5.52948 1.11628 5.73711 1.13265 5.89637C1.14753 6.04223 1.17135 6.10102 1.19367 6.13823C1.21526 6.17544 1.2547 6.22455 1.37526 6.30864C1.50623 6.39944 1.68781 6.50064 1.97805 6.66213L2.7706 7.10269C2.45209 5.93432 2.32409 4.68409 2.272 3.55292L2.27126 3.55218ZM13.2294 7.10195C13.5479 5.93358 13.6759 4.68334 13.7287 3.55218L13.7392 3.5559C14.1187 3.68241 14.3598 3.76427 14.5354 3.84539C14.6969 3.91981 14.749 3.97264 14.778 4.01357C14.8078 4.05376 14.8406 4.11999 14.8607 4.29711C14.883 4.48911 14.8837 4.74362 14.8837 5.14399V5.19832C14.8837 5.52948 14.8837 5.73711 14.8673 5.89637C14.8525 6.04223 14.8287 6.10102 14.8063 6.13823C14.7847 6.17544 14.7453 6.22455 14.6247 6.30864C14.493 6.39944 14.3122 6.50064 14.022 6.66213L13.2294 7.10195ZM8 1.11646C6.70512 1.11646 5.64316 1.23032 4.83572 1.36651C3.93749 1.51832 3.74921 1.57488 3.55126 1.81897C3.35628 2.0586 3.33767 2.28632 3.37712 3.29469C3.44409 4.97506 3.66586 6.78939 4.352 8.16911C4.69135 8.8493 5.13488 9.40595 5.71237 9.79292C6.2854 10.1777 7.02586 10.4188 8 10.4188C8.97488 10.4188 9.7146 10.1777 10.2884 9.79292C10.8659 9.40595 11.3087 8.8493 11.6473 8.16837C12.3341 6.78939 12.5559 4.97581 12.6221 3.29395C12.6631 2.28632 12.6445 2.0586 12.4495 1.81897C12.2515 1.57488 12.0625 1.51832 11.1643 1.36651C10.1183 1.19537 9.05988 1.11174 8 1.11646Z" fill="#F2C037"/>
</svg>
