<svg width="277" height="266" viewBox="0 0 277 266" fill="none" xmlns="http://www.w3.org/2000/svg">
    <rect width="277" height="266" rx="12" fill="#1F1F1F"/>
    <path d="M24.128 33.712C23.2973 32.7507 22.882 31.5327 22.882 30.058C22.882 28.5833 23.2973 27.37 24.128 26.418C24.9587 25.466 26.0833 24.99 27.502 24.99C28.7527 24.99 29.77 25.3447 30.554 26.054C31.3473 26.754 31.8187 27.7153 31.968 28.938H30.82C30.708 27.986 30.3673 27.2533 29.798 26.74C29.2287 26.2267 28.4633 25.97 27.502 25.97C26.382 25.97 25.5233 26.3433 24.926 27.09C24.3287 27.8367 24.03 28.826 24.03 30.058C24.03 31.2993 24.3287 32.2933 24.926 33.04C25.5233 33.7867 26.382 34.16 27.502 34.16C28.4633 34.16 29.2287 33.9033 29.798 33.39C30.3673 32.8673 30.708 32.13 30.82 31.178H31.968C31.8187 32.41 31.3473 33.3807 30.554 34.09C29.77 34.79 28.7527 35.14 27.502 35.14C26.0833 35.14 24.9587 34.664 24.128 33.712ZM33.2693 31.514C33.2693 30.4873 33.61 29.6287 34.2913 28.938C34.9727 28.2473 35.8593 27.902 36.9513 27.902C38.034 27.902 38.9113 28.2473 39.5833 28.938C40.2647 29.6287 40.6053 30.4873 40.6053 31.514C40.6053 32.55 40.2647 33.4133 39.5833 34.104C38.9113 34.7947 38.034 35.14 36.9513 35.14C35.8593 35.14 34.9727 34.7947 34.2913 34.104C33.61 33.4133 33.2693 32.55 33.2693 31.514ZM34.4173 31.514C34.4173 32.2793 34.6413 32.914 35.0893 33.418C35.5373 33.9127 36.158 34.16 36.9513 34.16C37.7447 34.16 38.3607 33.908 38.7993 33.404C39.2473 32.9 39.4713 32.27 39.4713 31.514C39.4713 30.758 39.2473 30.1327 38.7993 29.638C38.3607 29.134 37.7447 28.882 36.9513 28.882C36.158 28.882 35.5373 29.134 35.0893 29.638C34.6413 30.1327 34.4173 30.758 34.4173 31.514ZM50.7716 27.902C51.4716 27.902 52.0036 28.154 52.3676 28.658C52.741 29.1527 52.9276 29.806 52.9276 30.618V35H51.7796V30.884C51.7796 30.1747 51.677 29.666 51.4716 29.358C51.2663 29.0407 50.893 28.882 50.3516 28.882C49.6703 28.882 49.129 29.162 48.7276 29.722C48.3356 30.2727 48.1396 31.01 48.1396 31.934V35H46.9916V30.884C46.9916 30.1747 46.889 29.666 46.6836 29.358C46.4783 29.0407 46.105 28.882 45.5636 28.882C44.8823 28.882 44.341 29.162 43.9396 29.722C43.5476 30.2727 43.3516 31.01 43.3516 31.934V35H42.2036V28.042H43.3516V29.232L43.1696 30.016H43.4916C43.809 28.6067 44.6396 27.902 45.9836 27.902C46.5903 27.902 47.0663 28.0933 47.4116 28.476C47.7663 28.8493 47.9856 29.3627 48.0696 30.016H48.2796C48.597 28.6067 49.4276 27.902 50.7716 27.902ZM63.3634 27.902C64.0634 27.902 64.5954 28.154 64.9594 28.658C65.3328 29.1527 65.5194 29.806 65.5194 30.618V35H64.3714V30.884C64.3714 30.1747 64.2688 29.666 64.0634 29.358C63.8581 29.0407 63.4848 28.882 62.9434 28.882C62.2621 28.882 61.7208 29.162 61.3194 29.722C60.9274 30.2727 60.7314 31.01 60.7314 31.934V35H59.5834V30.884C59.5834 30.1747 59.4808 29.666 59.2754 29.358C59.0701 29.0407 58.6968 28.882 58.1554 28.882C57.4741 28.882 56.9328 29.162 56.5314 29.722C56.1394 30.2727 55.9434 31.01 55.9434 31.934V35H54.7954V28.042H55.9434V29.232L55.7614 30.016H56.0834C56.4008 28.6067 57.2314 27.902 58.5754 27.902C59.1821 27.902 59.6581 28.0933 60.0034 28.476C60.3581 28.8493 60.5774 29.3627 60.6614 30.016H60.8714C61.1888 28.6067 62.0194 27.902 63.3634 27.902ZM69.2945 26.936C69.0052 26.936 68.7625 26.8427 68.5665 26.656C68.3798 26.4693 68.2865 26.236 68.2865 25.956C68.2865 25.6853 68.3798 25.4567 68.5665 25.27C68.7625 25.0833 69.0052 24.99 69.2945 24.99C69.5745 24.99 69.8125 25.0833 70.0085 25.27C70.2045 25.4567 70.3025 25.6853 70.3025 25.956C70.3025 26.236 70.2045 26.4693 70.0085 26.656C69.8125 26.8427 69.5745 26.936 69.2945 26.936ZM66.9705 35V34.02H68.9305V28.896L67.4885 29.022V28.042L69.0985 27.902C69.7052 27.846 70.0085 28.126 70.0085 28.742V34.02H71.9685V35H66.9705ZM74.6933 34.174L77.1433 34.02V35L74.5113 35.14C74.1846 35.1587 73.9419 35.0887 73.7833 34.93C73.6339 34.762 73.5593 34.5147 73.5593 34.188V29.022H72.0193V28.042H73.5593V26.25L74.6933 25.9V28.042H76.8633V29.022H74.6933V34.174ZM80.9039 29.89C80.6799 30.114 80.4046 30.226 80.0779 30.226C79.7512 30.226 79.4759 30.114 79.2519 29.89C79.0279 29.666 78.9159 29.3907 78.9159 29.064C78.9159 28.7373 79.0279 28.462 79.2519 28.238C79.4759 28.014 79.7512 27.902 80.0779 27.902C80.3952 27.902 80.6659 28.0187 80.8899 28.252C81.1232 28.476 81.2399 28.7467 81.2399 29.064C81.2399 29.3907 81.1279 29.666 80.9039 29.89ZM80.9039 34.804C80.6799 35.028 80.4046 35.14 80.0779 35.14C79.7512 35.14 79.4759 35.028 79.2519 34.804C79.0279 34.58 78.9159 34.3 78.9159 33.964C78.9159 33.6373 79.0279 33.3667 79.2519 33.152C79.4759 32.928 79.7512 32.816 80.0779 32.816C80.4046 32.816 80.6799 32.928 80.9039 33.152C81.1279 33.376 81.2399 33.6467 81.2399 33.964C81.2399 34.3 81.1279 34.58 80.9039 34.804Z"
          fill="#F2C037"/>
    <path d="M219.265 31.332V25.13H220.413V31.15C220.413 32.186 220.623 32.9467 221.043 33.432C221.463 33.9173 222.173 34.16 223.171 34.16C224.17 34.16 224.879 33.9173 225.299 33.432C225.729 32.9467 225.943 32.186 225.943 31.15V25.13H227.091V31.332C227.091 33.8707 225.785 35.14 223.171 35.14C220.567 35.14 219.265 33.8707 219.265 31.332ZM236.559 32.508C236.559 34.2627 235.295 35.14 232.765 35.14C231.132 35.14 229.979 34.8133 229.307 34.16C228.635 33.4973 228.299 32.5453 228.299 31.304H229.447C229.447 32.4053 229.718 33.1567 230.259 33.558C230.801 33.9593 231.636 34.16 232.765 34.16C233.643 34.16 234.301 34.0387 234.739 33.796C235.187 33.544 235.411 33.1333 235.411 32.564C235.411 32.4053 235.393 32.256 235.355 32.116C235.318 31.9667 235.253 31.836 235.159 31.724C235.075 31.612 234.991 31.5093 234.907 31.416C234.823 31.3227 234.702 31.234 234.543 31.15C234.385 31.066 234.249 30.996 234.137 30.94C234.025 30.884 233.862 30.8233 233.647 30.758C233.442 30.6833 233.279 30.632 233.157 30.604C233.036 30.5667 232.859 30.5153 232.625 30.45C232.392 30.3847 232.219 30.3333 232.107 30.296C231.529 30.1187 231.071 29.9647 230.735 29.834C230.399 29.7033 230.059 29.5307 229.713 29.316C229.377 29.092 229.13 28.826 228.971 28.518C228.822 28.21 228.747 27.846 228.747 27.426C228.747 25.802 229.914 24.99 232.247 24.99C232.947 24.99 233.559 25.088 234.081 25.284C234.604 25.48 235.01 25.746 235.299 26.082C235.589 26.418 235.803 26.7773 235.943 27.16C236.083 27.5427 236.153 27.9487 236.153 28.378H235.005C235.005 27.5753 234.749 26.9733 234.235 26.572C233.722 26.1707 233.059 25.97 232.247 25.97C230.679 25.97 229.895 26.446 229.895 27.398C229.895 27.8833 230.082 28.2567 230.455 28.518C230.838 28.77 231.482 29.036 232.387 29.316C232.481 29.344 232.616 29.386 232.793 29.442C233.139 29.5447 233.4 29.6287 233.577 29.694C233.764 29.75 234.011 29.8387 234.319 29.96C234.637 30.072 234.879 30.1793 235.047 30.282C235.225 30.3847 235.421 30.5153 235.635 30.674C235.859 30.8327 236.027 30.996 236.139 31.164C236.251 31.332 236.349 31.5327 236.433 31.766C236.517 31.99 236.559 32.2373 236.559 32.508ZM241.289 25.13C241.821 25.13 242.302 25.1627 242.731 25.228C243.16 25.2933 243.599 25.4333 244.047 25.648C244.504 25.8533 244.882 26.1333 245.181 26.488C245.489 26.8333 245.741 27.3093 245.937 27.916C246.133 28.5227 246.231 29.2367 246.231 30.058C246.231 30.8793 246.133 31.5933 245.937 32.2C245.741 32.8067 245.489 33.2873 245.181 33.642C244.882 33.9873 244.504 34.2673 244.047 34.482C243.599 34.6967 243.16 34.8367 242.731 34.902C242.302 34.9673 241.821 35 241.289 35H238.153V25.13H241.289ZM241.289 34.02C241.625 34.02 241.924 34.006 242.185 33.978C242.446 33.95 242.731 33.894 243.039 33.81C243.356 33.726 243.627 33.5953 243.851 33.418C244.075 33.2313 244.285 32.998 244.481 32.718C244.677 32.438 244.826 32.074 244.929 31.626C245.032 31.1687 245.083 30.646 245.083 30.058C245.083 29.358 245.004 28.756 244.845 28.252C244.686 27.748 244.49 27.3607 244.257 27.09C244.033 26.8193 243.734 26.6093 243.361 26.46C242.997 26.3013 242.661 26.2033 242.353 26.166C242.054 26.1287 241.7 26.11 241.289 26.11H239.301V34.02H241.289ZM254.381 25.13V26.11H250.965V35H249.831V26.11H246.387V25.13H254.381Z"
          fill="#F2C037"/>
    <path d="M225.519 55.99C226.881 55.99 227.941 56.4613 228.697 57.404C229.453 58.3373 229.831 59.5553 229.831 61.058C229.831 62.57 229.453 63.7973 228.697 64.74C227.941 65.6733 226.881 66.14 225.519 66.14C224.147 66.14 223.083 65.6733 222.327 64.74C221.571 63.7973 221.193 62.57 221.193 61.058C221.193 59.5553 221.571 58.3373 222.327 57.404C223.083 56.4613 224.147 55.99 225.519 55.99ZM225.519 57.166C224.567 57.166 223.834 57.5207 223.321 58.23C222.817 58.93 222.565 59.8727 222.565 61.058C222.565 61.8887 222.691 62.6073 222.943 63.214L227.423 57.894C226.919 57.4087 226.284 57.166 225.519 57.166ZM225.519 64.964C226.471 64.964 227.199 64.614 227.703 63.914C228.207 63.2047 228.459 62.2527 228.459 61.058C228.459 60.2087 228.333 59.4853 228.081 58.888L223.601 64.236C224.105 64.7213 224.744 64.964 225.519 64.964ZM233.869 65.776C233.635 66.0187 233.341 66.14 232.987 66.14C232.632 66.14 232.338 66.0233 232.105 65.79C231.881 65.5473 231.769 65.2487 231.769 64.894C231.769 64.5487 231.881 64.2593 232.105 64.026C232.338 63.7833 232.632 63.662 232.987 63.662C233.332 63.662 233.626 63.7833 233.869 64.026C234.111 64.2593 234.233 64.5487 234.233 64.894C234.233 65.2393 234.111 65.5333 233.869 65.776ZM240.489 55.99C241.852 55.99 242.911 56.4613 243.667 57.404C244.423 58.3373 244.801 59.5553 244.801 61.058C244.801 62.57 244.423 63.7973 243.667 64.74C242.911 65.6733 241.852 66.14 240.489 66.14C239.117 66.14 238.053 65.6733 237.297 64.74C236.541 63.7973 236.163 62.57 236.163 61.058C236.163 59.5553 236.541 58.3373 237.297 57.404C238.053 56.4613 239.117 55.99 240.489 55.99ZM240.489 57.166C239.537 57.166 238.805 57.5207 238.291 58.23C237.787 58.93 237.535 59.8727 237.535 61.058C237.535 61.8887 237.661 62.6073 237.913 63.214L242.393 57.894C241.889 57.4087 241.255 57.166 240.489 57.166ZM240.489 64.964C241.441 64.964 242.169 64.614 242.673 63.914C243.177 63.2047 243.429 62.2527 243.429 61.058C243.429 60.2087 243.303 59.4853 243.051 58.888L238.571 64.236C239.075 64.7213 239.715 64.964 240.489 64.964Z"
          fill="#493F24"/>
    <rect x="22.5" y="47.5" width="232" height="29" rx="5.5" stroke="#F2C037"/>
    <line x1="22.5" y1="95.5" x2="254.5" y2="95.5" stroke="#493F24" stroke-linecap="round"/>
    <line x1="22.5" y1="95.5" x2="60.5" y2="95.5" stroke="#F2C037" stroke-linecap="round"/>
    <circle cx="61.5" cy="95.5" r="5" fill="#1B1B1B" stroke="#F2C037"/>
    <rect x="22" y="113" width="45" height="22" rx="3" fill="#1B1B1B"/>
    <path d="M30.062 123.224C30.83 122.912 31.382 122.448 31.718 121.832C32.054 121.216 32.23 120.452 32.246 119.54H34.586V128H33.422V120.62L33.614 119.864H33.302C33.262 120.4 33.194 120.872 33.098 121.28C33.01 121.688 32.862 122.096 32.654 122.504C32.454 122.904 32.166 123.252 31.79 123.548C31.422 123.844 30.974 124.076 30.446 124.244L30.062 123.224ZM39.9018 119.42C41.0698 119.42 41.9778 119.824 42.6258 120.632C43.2738 121.432 43.5978 122.476 43.5978 123.764C43.5978 125.06 43.2738 126.112 42.6258 126.92C41.9778 127.72 41.0698 128.12 39.9018 128.12C38.7258 128.12 37.8138 127.72 37.1658 126.92C36.5178 126.112 36.1938 125.06 36.1938 123.764C36.1938 122.476 36.5178 121.432 37.1658 120.632C37.8138 119.824 38.7258 119.42 39.9018 119.42ZM39.9018 120.428C39.0858 120.428 38.4578 120.732 38.0178 121.34C37.5858 121.94 37.3698 122.748 37.3698 123.764C37.3698 124.476 37.4778 125.092 37.6938 125.612L41.5338 121.052C41.1018 120.636 40.5578 120.428 39.9018 120.428ZM39.9018 127.112C40.7178 127.112 41.3418 126.812 41.7738 126.212C42.2058 125.604 42.4218 124.788 42.4218 123.764C42.4218 123.036 42.3138 122.416 42.0978 121.904L38.2578 126.488C38.6898 126.904 39.2378 127.112 39.9018 127.112ZM52.8071 118.268L53.6831 118.592L49.9391 129.344L49.0631 129.032L52.8071 118.268ZM49.6271 123.416C49.1551 123.904 48.5471 124.148 47.8031 124.148C47.0591 124.148 46.4471 123.904 45.9671 123.416C45.4951 122.92 45.2591 122.316 45.2591 121.604C45.2591 120.892 45.4951 120.292 45.9671 119.804C46.4471 119.308 47.0591 119.06 47.8031 119.06C48.5471 119.06 49.1551 119.308 49.6271 119.804C50.1071 120.292 50.3471 120.892 50.3471 121.604C50.3471 122.316 50.1071 122.92 49.6271 123.416ZM47.8031 123.224C48.2671 123.224 48.6511 123.068 48.9551 122.756C49.2591 122.436 49.4111 122.052 49.4111 121.604C49.4111 121.156 49.2591 120.776 48.9551 120.464C48.6511 120.144 48.2671 119.984 47.8031 119.984C47.3311 119.984 46.9431 120.144 46.6391 120.464C46.3351 120.776 46.1831 121.156 46.1831 121.604C46.1831 122.052 46.3351 122.436 46.6391 122.756C46.9431 123.068 47.3311 123.224 47.8031 123.224ZM56.8151 127.628C56.3431 128.116 55.7351 128.36 54.9911 128.36C54.2471 128.36 53.6351 128.116 53.1551 127.628C52.6831 127.132 52.4471 126.528 52.4471 125.816C52.4471 125.104 52.6831 124.504 53.1551 124.016C53.6351 123.52 54.2471 123.272 54.9911 123.272C55.7351 123.272 56.3431 123.52 56.8151 124.016C57.2951 124.504 57.5351 125.104 57.5351 125.816C57.5351 126.528 57.2951 127.132 56.8151 127.628ZM53.8271 126.968C54.1391 127.28 54.5271 127.436 54.9911 127.436C55.4551 127.436 55.8391 127.28 56.1431 126.968C56.4551 126.648 56.6111 126.264 56.6111 125.816C56.6111 125.368 56.4551 124.988 56.1431 124.676C55.8391 124.356 55.4551 124.196 54.9911 124.196C54.5271 124.196 54.1391 124.356 53.8271 124.676C53.5231 124.988 53.3711 125.368 53.3711 125.816C53.3711 126.264 53.5231 126.648 53.8271 126.968Z"
          fill="#F2C037"/>
    <rect x="69" y="113" width="45" height="22" rx="3" fill="#1B1B1B"/>
    <path d="M76.612 123.572C76.612 122.148 76.948 121.1 77.62 120.428C78.3 119.756 79.196 119.42 80.308 119.42C81.252 119.42 82.004 119.668 82.564 120.164C83.124 120.66 83.404 121.36 83.404 122.264C83.404 122.936 83.244 123.536 82.924 124.064C82.604 124.584 82.148 125.028 81.556 125.396C80.964 125.756 80.3 126.056 79.564 126.296C78.828 126.528 77.988 126.72 77.044 126.872V127.196L77.848 126.992H83.404V128H76.732V125.948C76.964 125.916 77.204 125.876 77.452 125.828C77.7 125.772 78.06 125.688 78.532 125.576C79.004 125.456 79.436 125.304 79.828 125.12C80.22 124.928 80.608 124.704 80.992 124.448C81.376 124.192 81.68 123.872 81.904 123.488C82.128 123.104 82.24 122.688 82.24 122.24C82.24 121.656 82.076 121.208 81.748 120.896C81.428 120.584 80.956 120.428 80.332 120.428C79.516 120.428 78.884 120.672 78.436 121.16C77.996 121.648 77.776 122.452 77.776 123.572H76.612ZM84.4184 124.976H85.5944C85.5944 126.4 86.4104 127.112 88.0424 127.112C88.7944 127.112 89.3704 126.92 89.7704 126.536C90.1704 126.144 90.3704 125.584 90.3704 124.856C90.3704 124.232 90.2184 123.752 89.9144 123.416C89.6184 123.08 89.1704 122.912 88.5704 122.912C87.6824 122.912 86.9904 123.276 86.4944 124.004L85.0544 123.236V119.54H90.9224V120.548H86.2184V122.432L86.0264 123.188L86.2904 123.344C86.5304 122.904 86.8704 122.556 87.3104 122.3C87.7504 122.036 88.2584 121.904 88.8344 121.904C89.6584 121.904 90.3144 122.172 90.8024 122.708C91.2904 123.236 91.5344 123.964 91.5344 124.892C91.5344 125.916 91.2184 126.712 90.5864 127.28C89.9544 127.84 89.1064 128.12 88.0424 128.12C86.9224 128.12 86.0384 127.852 85.3904 127.316C84.7424 126.772 84.4184 125.992 84.4184 124.976ZM100.305 118.268L101.181 118.592L97.4372 129.344L96.5612 129.032L100.305 118.268ZM97.1252 123.416C96.6532 123.904 96.0452 124.148 95.3012 124.148C94.5572 124.148 93.9452 123.904 93.4652 123.416C92.9932 122.92 92.7572 122.316 92.7572 121.604C92.7572 120.892 92.9932 120.292 93.4652 119.804C93.9452 119.308 94.5572 119.06 95.3012 119.06C96.0452 119.06 96.6532 119.308 97.1252 119.804C97.6052 120.292 97.8452 120.892 97.8452 121.604C97.8452 122.316 97.6052 122.92 97.1252 123.416ZM95.3012 123.224C95.7652 123.224 96.1492 123.068 96.4532 122.756C96.7572 122.436 96.9092 122.052 96.9092 121.604C96.9092 121.156 96.7572 120.776 96.4532 120.464C96.1492 120.144 95.7652 119.984 95.3012 119.984C94.8292 119.984 94.4412 120.144 94.1372 120.464C93.8332 120.776 93.6812 121.156 93.6812 121.604C93.6812 122.052 93.8332 122.436 94.1372 122.756C94.4412 123.068 94.8292 123.224 95.3012 123.224ZM104.313 127.628C103.841 128.116 103.233 128.36 102.489 128.36C101.745 128.36 101.133 128.116 100.653 127.628C100.181 127.132 99.9452 126.528 99.9452 125.816C99.9452 125.104 100.181 124.504 100.653 124.016C101.133 123.52 101.745 123.272 102.489 123.272C103.233 123.272 103.841 123.52 104.313 124.016C104.793 124.504 105.033 125.104 105.033 125.816C105.033 126.528 104.793 127.132 104.313 127.628ZM101.325 126.968C101.637 127.28 102.025 127.436 102.489 127.436C102.953 127.436 103.337 127.28 103.641 126.968C103.953 126.648 104.109 126.264 104.109 125.816C104.109 125.368 103.953 124.988 103.641 124.676C103.337 124.356 102.953 124.196 102.489 124.196C102.025 124.196 101.637 124.356 101.325 124.676C101.021 124.988 100.869 125.368 100.869 125.816C100.869 126.264 101.021 126.648 101.325 126.968Z"
          fill="#F2C037"/>
    <rect x="22.5" y="172.5" width="111" height="45" rx="5.5" stroke="#26A69A"/>
    <path d="M83.9227 205.154C83.9227 205.378 83.8336 205.593 83.6749 205.752C83.5162 205.911 83.301 206 83.0766 206H72.9234C72.699 206 72.4838 205.911 72.3251 205.752C72.1664 205.593 72.0773 205.378 72.0773 205.154C72.0773 204.929 72.1664 204.714 72.3251 204.556C72.4838 204.397 72.699 204.308 72.9234 204.308H83.0766C83.301 204.308 83.5162 204.397 83.6749 204.556C83.8336 204.714 83.9227 204.929 83.9227 205.154ZM88.7518 194.402L78.5986 184.248C78.52 184.169 78.4267 184.107 78.324 184.064C78.2213 184.022 78.1112 184 78 184C77.8888 184 77.7787 184.022 77.676 184.064C77.5733 184.107 77.48 184.169 77.4014 184.248L67.2482 194.402C67.1297 194.52 67.049 194.671 67.0163 194.835C66.9836 194.999 67.0003 195.17 67.0644 195.324C67.1285 195.479 67.2371 195.611 67.3764 195.704C67.5156 195.797 67.6793 195.847 67.8468 195.846H72.0773V201.769C72.0773 201.994 72.1664 202.209 72.3251 202.368C72.4838 202.526 72.699 202.615 72.9234 202.615H83.0766C83.301 202.615 83.5162 202.526 83.6749 202.368C83.8336 202.209 83.9227 201.994 83.9227 201.769V195.846H88.1532C88.3207 195.847 88.4844 195.797 88.6236 195.704C88.7629 195.611 88.8715 195.479 88.9356 195.324C88.9997 195.17 89.0164 194.999 88.9837 194.835C88.951 194.671 88.8703 194.52 88.7518 194.402Z"
          fill="#26A69A"/>
    <path d="M62.2074 235.828C62.2074 237.324 61.1474 238.088 59.0274 238.12V239.776H58.1754V238.096C57.0314 238 56.2154 237.676 55.7274 237.124C55.2394 236.564 54.9954 235.796 54.9954 234.82H56.1594C56.1594 235.572 56.3234 236.12 56.6514 236.464C56.9874 236.8 57.4954 237.004 58.1754 237.076V234.004C57.2234 233.716 56.5194 233.404 56.0634 233.068C55.6074 232.724 55.3794 232.216 55.3794 231.544C55.3794 230.2 56.3114 229.492 58.1754 229.42V227.764H59.0274V229.444C59.9874 229.548 60.6994 229.872 61.1634 230.416C61.6274 230.96 61.8594 231.6 61.8594 232.336H60.6954C60.6954 231.8 60.5434 231.376 60.2394 231.064C59.9434 230.752 59.5394 230.556 59.0274 230.476V233.188C59.4114 233.308 59.7194 233.412 59.9514 233.5C60.1914 233.58 60.4714 233.7 60.7914 233.86C61.1114 234.02 61.3594 234.184 61.5354 234.352C61.7194 234.52 61.8754 234.732 62.0034 234.988C62.1394 235.244 62.2074 235.524 62.2074 235.828ZM56.5434 231.532C56.5434 231.876 56.6634 232.144 56.9034 232.336C57.1514 232.52 57.5754 232.712 58.1754 232.912V230.428C57.0874 230.484 56.5434 230.852 56.5434 231.532ZM59.0274 237.112C59.7074 237.096 60.2114 236.992 60.5394 236.8C60.8754 236.608 61.0434 236.3 61.0434 235.876C61.0434 235.452 60.8714 235.128 60.5274 234.904C60.1834 234.672 59.6834 234.46 59.0274 234.268V237.112ZM63.7398 233.224C64.5078 232.912 65.0598 232.448 65.3958 231.832C65.7318 231.216 65.9078 230.452 65.9238 229.54H68.2638V238H67.0998V230.62L67.2918 229.864H66.9798C66.9398 230.4 66.8718 230.872 66.7758 231.28C66.6878 231.688 66.5398 232.096 66.3318 232.504C66.1318 232.904 65.8438 233.252 65.4678 233.548C65.0998 233.844 64.6518 234.076 64.1238 234.244L63.7398 233.224ZM69.7995 233.572C69.7995 232.148 70.1355 231.1 70.8075 230.428C71.4875 229.756 72.3835 229.42 73.4955 229.42C74.4395 229.42 75.1915 229.668 75.7515 230.164C76.3115 230.66 76.5915 231.36 76.5915 232.264C76.5915 232.936 76.4315 233.536 76.1115 234.064C75.7915 234.584 75.3355 235.028 74.7435 235.396C74.1515 235.756 73.4875 236.056 72.7515 236.296C72.0155 236.528 71.1755 236.72 70.2315 236.872V237.196L71.0355 236.992H76.5915V238H69.9195V235.948C70.1515 235.916 70.3915 235.876 70.6395 235.828C70.8875 235.772 71.2475 235.688 71.7195 235.576C72.1915 235.456 72.6235 235.304 73.0155 235.12C73.4075 234.928 73.7955 234.704 74.1795 234.448C74.5635 234.192 74.8675 233.872 75.0915 233.488C75.3155 233.104 75.4275 232.688 75.4275 232.24C75.4275 231.656 75.2635 231.208 74.9355 230.896C74.6155 230.584 74.1435 230.428 73.5195 230.428C72.7035 230.428 72.0715 230.672 71.6235 231.16C71.1835 231.648 70.9635 232.452 70.9635 233.572H69.7995ZM77.8511 234.772H79.0151C79.0151 235.62 79.2031 236.224 79.5791 236.584C79.9631 236.936 80.5791 237.112 81.4271 237.112C82.8191 237.112 83.5151 236.576 83.5151 235.504C83.5151 234.544 83.0031 234.064 81.9791 234.064H80.8031V233.056H81.9791C82.9231 233.056 83.3951 232.648 83.3951 231.832C83.3951 230.896 82.7391 230.428 81.4271 230.428C80.6111 230.428 80.0231 230.58 79.6631 230.884C79.3111 231.188 79.1351 231.668 79.1351 232.324H77.9711C77.9711 231.364 78.2711 230.64 78.8711 230.152C79.4711 229.664 80.3231 229.42 81.4271 229.42C82.4271 229.42 83.1991 229.624 83.7431 230.032C84.2871 230.44 84.5591 230.988 84.5591 231.676C84.5591 232.196 84.4151 232.592 84.1271 232.864C83.8391 233.136 83.4151 233.316 82.8551 233.404V233.728C83.4551 233.832 83.9071 234.028 84.2111 234.316C84.5231 234.596 84.6791 235.048 84.6791 235.672C84.6791 236.44 84.3911 237.04 83.8151 237.472C83.2391 237.904 82.4431 238.12 81.4271 238.12C79.0431 238.12 77.8511 237.004 77.8511 234.772ZM86.8823 235.996L87.8543 236.26L86.8703 239.884L85.8983 239.62L86.8823 235.996ZM88.4312 233.224C89.1992 232.912 89.7512 232.448 90.0872 231.832C90.4232 231.216 90.5992 230.452 90.6152 229.54H92.9552V238H91.7912V230.62L91.9832 229.864H91.6712C91.6312 230.4 91.5632 230.872 91.4672 231.28C91.3792 231.688 91.2312 232.096 91.0232 232.504C90.8232 232.904 90.5352 233.252 90.1592 233.548C89.7912 233.844 89.3432 234.076 88.8152 234.244L88.4312 233.224ZM94.4909 233.572C94.4909 232.148 94.8269 231.1 95.4989 230.428C96.1789 229.756 97.0749 229.42 98.1869 229.42C99.1309 229.42 99.8829 229.668 100.443 230.164C101.003 230.66 101.283 231.36 101.283 232.264C101.283 232.936 101.123 233.536 100.803 234.064C100.483 234.584 100.027 235.028 99.4349 235.396C98.8429 235.756 98.1789 236.056 97.4429 236.296C96.7069 236.528 95.8669 236.72 94.9229 236.872V237.196L95.7269 236.992H101.283V238H94.6109V235.948C94.8429 235.916 95.0829 235.876 95.3309 235.828C95.5789 235.772 95.9389 235.688 96.4109 235.576C96.8829 235.456 97.3149 235.304 97.7069 235.12C98.0989 234.928 98.4869 234.704 98.8709 234.448C99.2549 234.192 99.5589 233.872 99.7829 233.488C100.007 233.104 100.119 232.688 100.119 232.24C100.119 231.656 99.9549 231.208 99.6269 230.896C99.3069 230.584 98.8349 230.428 98.2109 230.428C97.3949 230.428 96.7629 230.672 96.3149 231.16C95.8749 231.648 95.6549 232.452 95.6549 233.572H94.4909Z"
          fill="#26A69A"/>
    <rect x="143.5" y="172.5" width="111" height="45" rx="5.5" stroke="#EF5350"/>
    <path d="M193.077 184.846C193.077 184.622 193.167 184.407 193.325 184.248C193.484 184.089 193.699 184 193.924 184H204.077C204.301 184 204.517 184.089 204.675 184.248C204.834 184.407 204.923 184.622 204.923 184.846C204.923 185.071 204.834 185.286 204.675 185.444C204.517 185.603 204.301 185.692 204.077 185.692H193.924C193.699 185.692 193.484 185.603 193.325 185.444C193.167 185.286 193.077 185.071 193.077 184.846ZM209.935 194.676C209.871 194.521 209.763 194.389 209.624 194.296C209.485 194.203 209.321 194.154 209.154 194.154H204.923V191.615C204.923 191.391 204.834 191.176 204.675 191.017C204.517 190.858 204.301 190.769 204.077 190.769H193.924C193.699 190.769 193.484 190.858 193.325 191.017C193.167 191.176 193.077 191.391 193.077 191.615V194.154H188.847C188.679 194.153 188.516 194.203 188.376 194.296C188.237 194.389 188.129 194.521 188.064 194.676C188 194.83 187.984 195.001 188.016 195.165C188.049 195.329 188.13 195.48 188.248 195.598L198.402 205.752C198.48 205.831 198.574 205.893 198.676 205.936C198.779 205.978 198.889 206 199 206C199.111 206 199.222 205.978 199.324 205.936C199.427 205.893 199.52 205.831 199.599 205.752L209.752 195.598C209.871 195.48 209.951 195.329 209.984 195.165C210.016 195.001 210 194.831 209.935 194.676ZM193.924 189.077H204.077C204.301 189.077 204.517 188.988 204.675 188.829C204.834 188.67 204.923 188.455 204.923 188.231C204.923 188.006 204.834 187.791 204.675 187.632C204.517 187.474 204.301 187.385 204.077 187.385H193.924C193.699 187.385 193.484 187.474 193.325 187.632C193.167 187.791 193.077 188.006 193.077 188.231C193.077 188.455 193.167 188.67 193.325 188.829C193.484 188.988 193.699 189.077 193.924 189.077Z"
          fill="#EF5350"/>
    <path d="M181.418 235.828C181.418 237.324 180.358 238.088 178.238 238.12V239.776H177.386V238.096C176.242 238 175.426 237.676 174.938 237.124C174.45 236.564 174.206 235.796 174.206 234.82H175.37C175.37 235.572 175.534 236.12 175.862 236.464C176.198 236.8 176.706 237.004 177.386 237.076V234.004C176.434 233.716 175.73 233.404 175.274 233.068C174.818 232.724 174.59 232.216 174.59 231.544C174.59 230.2 175.522 229.492 177.386 229.42V227.764H178.238V229.444C179.198 229.548 179.91 229.872 180.374 230.416C180.838 230.96 181.07 231.6 181.07 232.336H179.906C179.906 231.8 179.754 231.376 179.45 231.064C179.154 230.752 178.75 230.556 178.238 230.476V233.188C178.622 233.308 178.93 233.412 179.162 233.5C179.402 233.58 179.682 233.7 180.002 233.86C180.322 234.02 180.57 234.184 180.746 234.352C180.93 234.52 181.086 234.732 181.214 234.988C181.35 235.244 181.418 235.524 181.418 235.828ZM175.754 231.532C175.754 231.876 175.874 232.144 176.114 232.336C176.362 232.52 176.786 232.712 177.386 232.912V230.428C176.298 230.484 175.754 230.852 175.754 231.532ZM178.238 237.112C178.918 237.096 179.422 236.992 179.75 236.8C180.086 236.608 180.254 236.3 180.254 235.876C180.254 235.452 180.082 235.128 179.738 234.904C179.394 234.672 178.894 234.46 178.238 234.268V237.112ZM183.565 238C183.565 236.192 183.945 234.696 184.705 233.512C185.465 232.32 186.613 231.372 188.149 230.668V230.344L187.381 230.548H182.197V229.54H188.461V231.424C187.197 232.04 186.265 232.876 185.665 233.932C185.073 234.98 184.777 236.336 184.777 238H183.565ZM192.931 229.42C194.099 229.42 195.007 229.824 195.655 230.632C196.303 231.432 196.627 232.476 196.627 233.764C196.627 235.06 196.303 236.112 195.655 236.92C195.007 237.72 194.099 238.12 192.931 238.12C191.755 238.12 190.843 237.72 190.195 236.92C189.547 236.112 189.223 235.06 189.223 233.764C189.223 232.476 189.547 231.432 190.195 230.632C190.843 229.824 191.755 229.42 192.931 229.42ZM192.931 230.428C192.115 230.428 191.487 230.732 191.047 231.34C190.615 231.94 190.399 232.748 190.399 233.764C190.399 234.476 190.507 235.092 190.723 235.612L194.563 231.052C194.131 230.636 193.587 230.428 192.931 230.428ZM192.931 237.112C193.747 237.112 194.371 236.812 194.803 236.212C195.235 235.604 195.451 234.788 195.451 233.764C195.451 233.036 195.343 232.416 195.127 231.904L191.287 236.488C191.719 236.904 192.267 237.112 192.931 237.112ZM201.556 229.42C202.724 229.42 203.632 229.824 204.28 230.632C204.928 231.432 205.252 232.476 205.252 233.764C205.252 235.06 204.928 236.112 204.28 236.92C203.632 237.72 202.724 238.12 201.556 238.12C200.38 238.12 199.468 237.72 198.82 236.92C198.172 236.112 197.848 235.06 197.848 233.764C197.848 232.476 198.172 231.432 198.82 230.632C199.468 229.824 200.38 229.42 201.556 229.42ZM201.556 230.428C200.74 230.428 200.112 230.732 199.672 231.34C199.24 231.94 199.024 232.748 199.024 233.764C199.024 234.476 199.132 235.092 199.348 235.612L203.188 231.052C202.756 230.636 202.212 230.428 201.556 230.428ZM201.556 237.112C202.372 237.112 202.996 236.812 203.428 236.212C203.86 235.604 204.076 234.788 204.076 233.764C204.076 233.036 203.968 232.416 203.752 231.904L199.912 236.488C200.344 236.904 200.892 237.112 201.556 237.112ZM207.417 235.996L208.389 236.26L207.405 239.884L206.433 239.62L207.417 235.996ZM213.755 229.42C214.923 229.42 215.831 229.824 216.479 230.632C217.127 231.432 217.451 232.476 217.451 233.764C217.451 235.06 217.127 236.112 216.479 236.92C215.831 237.72 214.923 238.12 213.755 238.12C212.579 238.12 211.667 237.72 211.019 236.92C210.371 236.112 210.047 235.06 210.047 233.764C210.047 232.476 210.371 231.432 211.019 230.632C211.667 229.824 212.579 229.42 213.755 229.42ZM213.755 230.428C212.939 230.428 212.311 230.732 211.871 231.34C211.439 231.94 211.223 232.748 211.223 233.764C211.223 234.476 211.331 235.092 211.547 235.612L215.387 231.052C214.955 230.636 214.411 230.428 213.755 230.428ZM213.755 237.112C214.571 237.112 215.195 236.812 215.627 236.212C216.059 235.604 216.275 234.788 216.275 233.764C216.275 233.036 216.167 232.416 215.951 231.904L212.111 236.488C212.543 236.904 213.091 237.112 213.755 237.112ZM222.38 229.42C223.548 229.42 224.456 229.824 225.104 230.632C225.752 231.432 226.076 232.476 226.076 233.764C226.076 235.06 225.752 236.112 225.104 236.92C224.456 237.72 223.548 238.12 222.38 238.12C221.204 238.12 220.292 237.72 219.644 236.92C218.996 236.112 218.672 235.06 218.672 233.764C218.672 232.476 218.996 231.432 219.644 230.632C220.292 229.824 221.204 229.42 222.38 229.42ZM222.38 230.428C221.564 230.428 220.936 230.732 220.496 231.34C220.064 231.94 219.848 232.748 219.848 233.764C219.848 234.476 219.956 235.092 220.172 235.612L224.012 231.052C223.58 230.636 223.036 230.428 222.38 230.428ZM222.38 237.112C223.196 237.112 223.82 236.812 224.252 236.212C224.684 235.604 224.9 234.788 224.9 233.764C224.9 233.036 224.792 232.416 224.576 231.904L220.736 236.488C221.168 236.904 221.716 237.112 222.38 237.112Z"
          fill="#EF5350"/>
    <rect x="116" y="113" width="45" height="22" rx="3" fill="#1B1B1B"/>
    <path d="M122.998 124.976H124.174C124.174 126.4 124.99 127.112 126.622 127.112C127.374 127.112 127.95 126.92 128.35 126.536C128.75 126.144 128.95 125.584 128.95 124.856C128.95 124.232 128.798 123.752 128.494 123.416C128.198 123.08 127.75 122.912 127.15 122.912C126.262 122.912 125.57 123.276 125.074 124.004L123.634 123.236V119.54H129.502V120.548H124.798V122.432L124.606 123.188L124.87 123.344C125.11 122.904 125.45 122.556 125.89 122.3C126.33 122.036 126.838 121.904 127.414 121.904C128.238 121.904 128.894 122.172 129.382 122.708C129.87 123.236 130.114 123.964 130.114 124.892C130.114 125.916 129.798 126.712 129.166 127.28C128.534 127.84 127.686 128.12 126.622 128.12C125.502 128.12 124.618 127.852 123.97 127.316C123.322 126.772 122.998 125.992 122.998 124.976ZM135.085 119.42C136.253 119.42 137.161 119.824 137.809 120.632C138.457 121.432 138.781 122.476 138.781 123.764C138.781 125.06 138.457 126.112 137.809 126.92C137.161 127.72 136.253 128.12 135.085 128.12C133.909 128.12 132.997 127.72 132.349 126.92C131.701 126.112 131.377 125.06 131.377 123.764C131.377 122.476 131.701 121.432 132.349 120.632C132.997 119.824 133.909 119.42 135.085 119.42ZM135.085 120.428C134.269 120.428 133.641 120.732 133.201 121.34C132.769 121.94 132.553 122.748 132.553 123.764C132.553 124.476 132.661 125.092 132.877 125.612L136.717 121.052C136.285 120.636 135.741 120.428 135.085 120.428ZM135.085 127.112C135.901 127.112 136.525 126.812 136.957 126.212C137.389 125.604 137.605 124.788 137.605 123.764C137.605 123.036 137.497 122.416 137.281 121.904L133.441 126.488C133.873 126.904 134.421 127.112 135.085 127.112ZM147.991 118.268L148.867 118.592L145.123 129.344L144.247 129.032L147.991 118.268ZM144.811 123.416C144.339 123.904 143.731 124.148 142.987 124.148C142.243 124.148 141.631 123.904 141.151 123.416C140.679 122.92 140.443 122.316 140.443 121.604C140.443 120.892 140.679 120.292 141.151 119.804C141.631 119.308 142.243 119.06 142.987 119.06C143.731 119.06 144.339 119.308 144.811 119.804C145.291 120.292 145.531 120.892 145.531 121.604C145.531 122.316 145.291 122.92 144.811 123.416ZM142.987 123.224C143.451 123.224 143.835 123.068 144.139 122.756C144.443 122.436 144.595 122.052 144.595 121.604C144.595 121.156 144.443 120.776 144.139 120.464C143.835 120.144 143.451 119.984 142.987 119.984C142.515 119.984 142.127 120.144 141.823 120.464C141.519 120.776 141.367 121.156 141.367 121.604C141.367 122.052 141.519 122.436 141.823 122.756C142.127 123.068 142.515 123.224 142.987 123.224ZM151.999 127.628C151.527 128.116 150.919 128.36 150.175 128.36C149.431 128.36 148.819 128.116 148.339 127.628C147.867 127.132 147.631 126.528 147.631 125.816C147.631 125.104 147.867 124.504 148.339 124.016C148.819 123.52 149.431 123.272 150.175 123.272C150.919 123.272 151.527 123.52 151.999 124.016C152.479 124.504 152.719 125.104 152.719 125.816C152.719 126.528 152.479 127.132 151.999 127.628ZM149.011 126.968C149.323 127.28 149.711 127.436 150.175 127.436C150.639 127.436 151.023 127.28 151.327 126.968C151.639 126.648 151.795 126.264 151.795 125.816C151.795 125.368 151.639 124.988 151.327 124.676C151.023 124.356 150.639 124.196 150.175 124.196C149.711 124.196 149.323 124.356 149.011 124.676C148.707 124.988 148.555 125.368 148.555 125.816C148.555 126.264 148.707 126.648 149.011 126.968Z"
          fill="#F2C037"/>
    <rect x="163" y="113" width="45" height="22" rx="3" fill="#1B1B1B"/>
    <path d="M172.803 128C172.803 126.192 173.183 124.696 173.943 123.512C174.703 122.32 175.851 121.372 177.387 120.668V120.344L176.619 120.548H171.435V119.54H177.699V121.424C176.435 122.04 175.503 122.876 174.903 123.932C174.311 124.98 174.015 126.336 174.015 128H172.803ZM178.391 124.976H179.567C179.567 126.4 180.383 127.112 182.015 127.112C182.767 127.112 183.343 126.92 183.743 126.536C184.143 126.144 184.343 125.584 184.343 124.856C184.343 124.232 184.191 123.752 183.887 123.416C183.591 123.08 183.143 122.912 182.543 122.912C181.655 122.912 180.963 123.276 180.467 124.004L179.027 123.236V119.54H184.895V120.548H180.191V122.432L179.999 123.188L180.263 123.344C180.503 122.904 180.843 122.556 181.283 122.3C181.723 122.036 182.231 121.904 182.807 121.904C183.631 121.904 184.287 122.172 184.775 122.708C185.263 123.236 185.507 123.964 185.507 124.892C185.507 125.916 185.191 126.712 184.559 127.28C183.927 127.84 183.079 128.12 182.015 128.12C180.895 128.12 180.011 127.852 179.363 127.316C178.715 126.772 178.391 125.992 178.391 124.976ZM194.278 118.268L195.154 118.592L191.41 129.344L190.534 129.032L194.278 118.268ZM191.098 123.416C190.626 123.904 190.018 124.148 189.274 124.148C188.53 124.148 187.918 123.904 187.438 123.416C186.966 122.92 186.73 122.316 186.73 121.604C186.73 120.892 186.966 120.292 187.438 119.804C187.918 119.308 188.53 119.06 189.274 119.06C190.018 119.06 190.626 119.308 191.098 119.804C191.578 120.292 191.818 120.892 191.818 121.604C191.818 122.316 191.578 122.92 191.098 123.416ZM189.274 123.224C189.738 123.224 190.122 123.068 190.426 122.756C190.73 122.436 190.882 122.052 190.882 121.604C190.882 121.156 190.73 120.776 190.426 120.464C190.122 120.144 189.738 119.984 189.274 119.984C188.802 119.984 188.414 120.144 188.11 120.464C187.806 120.776 187.654 121.156 187.654 121.604C187.654 122.052 187.806 122.436 188.11 122.756C188.414 123.068 188.802 123.224 189.274 123.224ZM198.286 127.628C197.814 128.116 197.206 128.36 196.462 128.36C195.718 128.36 195.106 128.116 194.626 127.628C194.154 127.132 193.918 126.528 193.918 125.816C193.918 125.104 194.154 124.504 194.626 124.016C195.106 123.52 195.718 123.272 196.462 123.272C197.206 123.272 197.814 123.52 198.286 124.016C198.766 124.504 199.006 125.104 199.006 125.816C199.006 126.528 198.766 127.132 198.286 127.628ZM195.298 126.968C195.61 127.28 195.998 127.436 196.462 127.436C196.926 127.436 197.31 127.28 197.614 126.968C197.926 126.648 198.082 126.264 198.082 125.816C198.082 125.368 197.926 124.988 197.614 124.676C197.31 124.356 196.926 124.196 196.462 124.196C195.998 124.196 195.61 124.356 195.298 124.676C194.994 124.988 194.842 125.368 194.842 125.816C194.842 126.264 194.994 126.648 195.298 126.968Z"
          fill="#F2C037"/>
    <rect x="210" y="113" width="45" height="22" rx="3" fill="#1B1B1B"/>
    <path d="M220.196 128V119.54H222.524L224.696 127.676H225.02L227.192 119.54H229.52V128H228.356V120.656L228.548 119.864H228.236L226.016 128H223.688L221.48 119.864H221.156L221.36 120.656V128H220.196ZM230.866 126.344C230.866 125.32 231.546 124.728 232.906 124.568L235.198 124.328C235.15 123.352 234.618 122.864 233.602 122.864C233.146 122.864 232.77 122.98 232.474 123.212C232.178 123.436 232.03 123.784 232.03 124.256H230.902C230.902 123.584 231.146 123.024 231.634 122.576C232.122 122.128 232.778 121.904 233.602 121.904C234.442 121.904 235.11 122.148 235.606 122.636C236.11 123.124 236.362 123.784 236.362 124.616V126.992H237.238V128H236.122C235.89 128 235.706 127.936 235.57 127.808C235.442 127.68 235.378 127.496 235.378 127.256V126.98L235.558 126.344H235.246C234.95 127.528 234.166 128.12 232.894 128.12C232.478 128.12 232.126 128.06 231.838 127.94C231.55 127.82 231.342 127.66 231.214 127.46C231.086 127.26 230.994 127.072 230.938 126.896C230.89 126.72 230.866 126.536 230.866 126.344ZM232.03 126.176C232.03 126.48 232.122 126.712 232.306 126.872C232.498 127.032 232.75 127.112 233.062 127.112C233.702 127.112 234.218 126.928 234.61 126.56C235.002 126.184 235.198 125.712 235.198 125.144L233.11 125.36C232.734 125.408 232.458 125.492 232.282 125.612C232.114 125.732 232.03 125.92 232.03 126.176ZM237.941 128L240.197 125.168V124.844L237.941 122.024H239.321L241.049 124.328L242.789 122.024H244.169L241.913 124.844V125.168L244.169 128H242.789L241.049 125.684L239.321 128H237.941Z"
          fill="#F2C037"/>
</svg>
