<svg width="1170" height="109" viewBox="0 0 1170 109" fill="none" xmlns="http://www.w3.org/2000/svg">
    <rect width="570" height="79" rx="12" fill="#1F1F1F"/>
    <line x1="60.5" y1="0.5" x2="509.5" y2="0.5" stroke="url(#paint0_radial_0_1)" stroke-linecap="round"/>
    <line x1="60.5" y1="78.5" x2="509.5" y2="78.5" stroke="url(#paint1_radial_0_1)" stroke-linecap="round"/>
    <path d="M229.44 51.24C229.44 53.7867 227.634 55.1067 224.02 55.2V57.96H222.32V55.14C220.4 54.98 219.014 54.4333 218.16 53.5C217.32 52.5667 216.9 51.2733 216.9 49.62H219.48C219.48 50.6867 219.707 51.4733 220.16 51.98C220.614 52.4733 221.334 52.7733 222.32 52.88V48.58C221.507 48.3133 220.86 48.08 220.38 47.88C219.914 47.68 219.434 47.4133 218.94 47.08C218.447 46.7467 218.087 46.36 217.86 45.92C217.647 45.4667 217.54 44.9333 217.54 44.32C217.54 43.2133 217.94 42.3533 218.74 41.74C219.54 41.1133 220.734 40.7733 222.32 40.72V37.94H224.02V40.76C225.634 40.9467 226.84 41.4933 227.64 42.4C228.454 43.2933 228.86 44.3733 228.86 45.64H226.28C226.28 44.2 225.527 43.3333 224.02 43.04V46.76C224.66 46.96 225.18 47.14 225.58 47.3C225.98 47.4467 226.454 47.66 227 47.94C227.547 48.2067 227.974 48.4867 228.28 48.78C228.6 49.06 228.874 49.4133 229.1 49.84C229.327 50.2667 229.44 50.7333 229.44 51.24ZM220.12 44.38C220.12 44.8067 220.274 45.1467 220.58 45.4C220.887 45.64 221.467 45.9067 222.32 46.2V42.96C220.854 43.0533 220.12 43.5267 220.12 44.38ZM224.02 52.96C225.007 52.9333 225.727 52.7867 226.18 52.52C226.634 52.2533 226.86 51.8467 226.86 51.3C226.86 50.7667 226.62 50.3467 226.14 50.04C225.674 49.72 224.967 49.4133 224.02 49.12V52.96ZM231.727 46.76C233.021 46.2533 233.941 45.54 234.487 44.62C235.034 43.6867 235.314 42.4467 235.327 40.9H240.387V55H237.807V43.1L238.287 41.56H237.607C237.541 42.52 237.427 43.3467 237.267 44.04C237.121 44.7333 236.874 45.4267 236.527 46.12C236.181 46.8 235.681 47.3867 235.027 47.88C234.374 48.36 233.567 48.7533 232.607 49.06L231.727 46.76ZM242.608 49.62H245.188C245.188 50.8733 245.468 51.7467 246.028 52.24C246.588 52.72 247.534 52.96 248.868 52.96C249.988 52.96 250.794 52.7867 251.288 52.44C251.794 52.0933 252.048 51.5533 252.048 50.82C252.048 49.4733 251.294 48.8 249.788 48.8H247.828V46.56H249.788C251.161 46.56 251.848 45.98 251.848 44.82C251.848 44.1933 251.621 43.7267 251.168 43.42C250.714 43.1 249.948 42.94 248.868 42.94C247.574 42.94 246.668 43.1467 246.148 43.56C245.641 43.9733 245.388 44.66 245.388 45.62H242.808C242.808 43.9533 243.341 42.72 244.408 41.92C245.488 41.1067 246.974 40.7 248.868 40.7C250.574 40.7 251.928 41.0333 252.928 41.7C253.928 42.3667 254.428 43.2933 254.428 44.48C254.428 45.3867 254.161 46.0467 253.628 46.46C253.108 46.8733 252.341 47.1667 251.328 47.34V48C251.848 48.0933 252.274 48.1933 252.608 48.3C252.954 48.4067 253.294 48.5733 253.628 48.8C253.974 49.0133 254.228 49.3133 254.388 49.7C254.548 50.0867 254.628 50.5667 254.628 51.14C254.628 52.4467 254.101 53.4533 253.048 54.16C252.008 54.8533 250.614 55.2 248.868 55.2C246.934 55.2 245.408 54.76 244.288 53.88C243.168 52.9867 242.608 51.5667 242.608 49.62ZM268.472 50.08V52.32H266.812V55H264.252V52.32H256.832V47.66C258.526 47.22 259.892 46.42 260.932 45.26C261.986 44.1 262.592 42.6467 262.752 40.9H265.312C265.139 43.1133 264.399 44.9867 263.092 46.52C261.799 48.04 259.939 49.16 257.512 49.88V50.56L259.172 50.08H264.252V46.16H266.812V50.08H268.472ZM271.26 51.52L273.24 52.04L271.44 58.6L269.46 58.08L271.26 51.52ZM275.716 49.88H278.276C278.276 51.9333 279.53 52.96 282.036 52.96C283.223 52.96 284.09 52.6933 284.636 52.16C285.196 51.6267 285.476 50.8267 285.476 49.76C285.476 47.92 284.603 47 282.856 47C281.563 47 280.503 47.5533 279.676 48.66L276.676 46.98V40.9H286.976V43.14H279.256V45.72L278.776 47.26L279.336 47.58C280.123 45.7 281.536 44.76 283.576 44.76C284.91 44.76 285.99 45.2067 286.816 46.1C287.643 46.98 288.056 48.1933 288.056 49.74C288.056 51.5267 287.516 52.8867 286.436 53.82C285.37 54.74 283.903 55.2 282.036 55.2C280.116 55.2 278.583 54.7533 277.436 53.86C276.29 52.9667 275.716 51.64 275.716 49.88ZM289.99 49.62H292.57C292.57 50.8733 292.85 51.7467 293.41 52.24C293.97 52.72 294.917 52.96 296.25 52.96C297.37 52.96 298.177 52.7867 298.67 52.44C299.177 52.0933 299.43 51.5533 299.43 50.82C299.43 49.4733 298.677 48.8 297.17 48.8H295.21V46.56H297.17C298.544 46.56 299.23 45.98 299.23 44.82C299.23 44.1933 299.004 43.7267 298.55 43.42C298.097 43.1 297.33 42.94 296.25 42.94C294.957 42.94 294.05 43.1467 293.53 43.56C293.024 43.9733 292.77 44.66 292.77 45.62H290.19C290.19 43.9533 290.724 42.72 291.79 41.92C292.87 41.1067 294.357 40.7 296.25 40.7C297.957 40.7 299.31 41.0333 300.31 41.7C301.31 42.3667 301.81 43.2933 301.81 44.48C301.81 45.3867 301.544 46.0467 301.01 46.46C300.49 46.8733 299.724 47.1667 298.71 47.34V48C299.23 48.0933 299.657 48.1933 299.99 48.3C300.337 48.4067 300.677 48.5733 301.01 48.8C301.357 49.0133 301.61 49.3133 301.77 49.7C301.93 50.0867 302.01 50.5667 302.01 51.14C302.01 52.4467 301.484 53.4533 300.43 54.16C299.39 54.8533 297.997 55.2 296.25 55.2C294.317 55.2 292.79 54.76 291.67 53.88C290.55 52.9867 289.99 51.5667 289.99 49.62ZM305.757 42.7C306.903 41.3667 308.49 40.7 310.517 40.7C312.543 40.7 314.123 41.3667 315.257 42.7C316.403 44.0333 316.977 45.78 316.977 47.94C316.977 50.1133 316.403 51.8667 315.257 53.2C314.123 54.5333 312.543 55.2 310.517 55.2C308.49 55.2 306.903 54.5333 305.757 53.2C304.61 51.8667 304.037 50.1133 304.037 47.94C304.037 45.7667 304.61 44.02 305.757 42.7ZM310.517 42.94C309.263 42.94 308.297 43.3867 307.617 44.28C306.937 45.16 306.597 46.38 306.597 47.94C306.597 48.9133 306.723 49.74 306.977 50.42L312.897 43.72C312.257 43.2 311.463 42.94 310.517 42.94ZM310.517 52.96C311.77 52.96 312.73 52.52 313.397 51.64C314.077 50.7467 314.417 49.5133 314.417 47.94C314.417 46.9933 314.297 46.1733 314.057 45.48L308.117 52.16C308.757 52.6933 309.557 52.96 310.517 52.96ZM321.439 55.2C320.852 55.2 320.372 55.0133 319.999 54.64C319.639 54.2533 319.459 53.7733 319.459 53.2C319.459 52.64 319.639 52.1733 319.999 51.8C320.372 51.4267 320.852 51.24 321.439 51.24C322.012 51.24 322.486 51.4267 322.859 51.8C323.246 52.1733 323.439 52.64 323.439 53.2C323.439 53.7733 323.246 54.2533 322.859 54.64C322.486 55.0133 322.012 55.2 321.439 55.2ZM327.632 42.7C328.778 41.3667 330.365 40.7 332.392 40.7C334.418 40.7 335.998 41.3667 337.132 42.7C338.278 44.0333 338.852 45.78 338.852 47.94C338.852 50.1133 338.278 51.8667 337.132 53.2C335.998 54.5333 334.418 55.2 332.392 55.2C330.365 55.2 328.778 54.5333 327.632 53.2C326.485 51.8667 325.912 50.1133 325.912 47.94C325.912 45.7667 326.485 44.02 327.632 42.7ZM332.392 42.94C331.138 42.94 330.172 43.3867 329.492 44.28C328.812 45.16 328.472 46.38 328.472 47.94C328.472 48.9133 328.598 49.74 328.852 50.42L334.772 43.72C334.132 43.2 333.338 42.94 332.392 42.94ZM332.392 52.96C333.645 52.96 334.605 52.52 335.272 51.64C335.952 50.7467 336.292 49.5133 336.292 47.94C336.292 46.9933 336.172 46.1733 335.932 45.48L329.992 52.16C330.632 52.6933 331.432 52.96 332.392 52.96ZM342.397 42.7C343.544 41.3667 345.131 40.7 347.157 40.7C349.184 40.7 350.764 41.3667 351.897 42.7C353.044 44.0333 353.617 45.78 353.617 47.94C353.617 50.1133 353.044 51.8667 351.897 53.2C350.764 54.5333 349.184 55.2 347.157 55.2C345.131 55.2 343.544 54.5333 342.397 53.2C341.251 51.8667 340.677 50.1133 340.677 47.94C340.677 45.7667 341.251 44.02 342.397 42.7ZM347.157 42.94C345.904 42.94 344.937 43.3867 344.257 44.28C343.577 45.16 343.237 46.38 343.237 47.94C343.237 48.9133 343.364 49.74 343.617 50.42L349.537 43.72C348.897 43.2 348.104 42.94 347.157 42.94ZM347.157 52.96C348.411 52.96 349.371 52.52 350.037 51.64C350.717 50.7467 351.057 49.5133 351.057 47.94C351.057 46.9933 350.937 46.1733 350.697 45.48L344.757 52.16C345.397 52.6933 346.197 52.96 347.157 52.96Z" fill="#F2C037"/>
    <path d="M70.2663 46.76C71.5597 46.2533 72.4797 45.54 73.0263 44.62C73.573 43.6867 73.853 42.4467 73.8663 40.9H78.9263V55H76.3463V43.1L76.8263 41.56H76.1463C76.0797 42.52 75.9663 43.3467 75.8063 44.04C75.6597 44.7333 75.413 45.4267 75.0663 46.12C74.7197 46.8 74.2197 47.3867 73.5663 47.88C72.913 48.36 72.1063 48.7533 71.1463 49.06L70.2663 46.76ZM83.7866 55.2C83.2 55.2 82.72 55.0133 82.3466 54.64C81.9866 54.2533 81.8066 53.7733 81.8066 53.2C81.8066 52.64 81.9866 52.1733 82.3466 51.8C82.72 51.4267 83.2 51.24 83.7866 51.24C84.36 51.24 84.8333 51.4267 85.2066 51.8C85.5933 52.1733 85.7866 52.64 85.7866 53.2C85.7866 53.7733 85.5933 54.2533 85.2066 54.64C84.8333 55.0133 84.36 55.2 83.7866 55.2ZM88.1793 47.5C88.1793 45.1933 88.766 43.4867 89.9393 42.38C91.126 41.26 92.6793 40.7 94.5993 40.7C96.2393 40.7 97.5526 41.1133 98.5393 41.94C99.526 42.7667 100.019 43.9333 100.019 45.44C100.019 46.0933 99.9193 46.7 99.7193 47.26C99.5326 47.8067 99.2793 48.2933 98.9593 48.72C98.6393 49.1333 98.2126 49.52 97.6793 49.88C97.146 50.2267 96.5926 50.5267 96.0193 50.78C95.4593 51.02 94.7726 51.2533 93.9593 51.48C93.1593 51.7067 92.386 51.9 91.6393 52.06C90.906 52.22 90.046 52.3867 89.0593 52.56V53.22L90.7193 52.76H100.019V55H88.3793V50.5C88.6593 50.46 88.8926 50.4267 89.0793 50.4C89.266 50.3733 89.606 50.3133 90.0993 50.22C90.5926 50.1267 91.0193 50.04 91.3793 49.96C91.7393 49.8667 92.1926 49.74 92.7393 49.58C93.286 49.4067 93.7526 49.2333 94.1393 49.06C94.5393 48.8733 94.9593 48.6533 95.3993 48.4C95.8393 48.1333 96.1993 47.8533 96.4793 47.56C96.7593 47.2667 96.986 46.9333 97.1593 46.56C97.346 46.1733 97.4393 45.7667 97.4393 45.34C97.4393 44.6067 97.206 44.0267 96.7393 43.6C96.286 43.16 95.586 42.94 94.6393 42.94C93.3593 42.94 92.3926 43.3 91.7393 44.02C91.086 44.74 90.7593 45.9 90.7593 47.5H88.1793ZM101.345 49.88H103.905C103.905 51.9333 105.159 52.96 107.665 52.96C108.852 52.96 109.719 52.6933 110.265 52.16C110.825 51.6267 111.105 50.8267 111.105 49.76C111.105 47.92 110.232 47 108.485 47C107.192 47 106.132 47.5533 105.305 48.66L102.305 46.98V40.9H112.605V43.14H104.885V45.72L104.405 47.26L104.965 47.58C105.752 45.7 107.165 44.76 109.205 44.76C110.539 44.76 111.619 45.2067 112.445 46.1C113.272 46.98 113.685 48.1933 113.685 49.74C113.685 51.5267 113.145 52.8867 112.065 53.82C110.999 54.74 109.532 55.2 107.665 55.2C105.745 55.2 104.212 54.7533 103.065 53.86C101.919 52.9667 101.345 51.64 101.345 49.88ZM115.479 55L119.279 50.3V49.64L115.479 44.96H118.539L121.159 48.5L123.759 44.96H126.819L123.019 49.64V50.3L126.819 55H123.759L121.159 51.44L118.539 55H115.479Z" fill="#26A69A"/>
    <path opacity="0.2" d="M63.9953 28.332V22.13H65.3533V27.996C65.3533 29.0227 65.5446 29.774 65.9273 30.25C66.3193 30.726 67.0099 30.964 67.9993 30.964C68.9886 30.964 69.6793 30.726 70.0713 30.25C70.4726 29.7647 70.6732 29.0133 70.6732 27.996V22.13H72.0312V28.332C72.0312 30.8707 70.6873 32.14 67.9993 32.14C65.3299 32.14 63.9953 30.8707 63.9953 28.332ZM76.6072 22.13C77.2698 22.13 77.8392 22.1767 78.3152 22.27C78.7912 22.3633 79.2205 22.5313 79.6032 22.774C79.9858 23.0073 80.2705 23.3433 80.4572 23.782C80.6532 24.2207 80.7512 24.762 80.7512 25.406C80.7512 26.05 80.6532 26.5913 80.4572 27.03C80.2705 27.4687 79.9858 27.8093 79.6032 28.052C79.2205 28.2853 78.7912 28.4487 78.3152 28.542C77.8392 28.6353 77.2698 28.682 76.6072 28.682H75.0532V32H73.6952V22.13H76.6072ZM76.6492 27.506C77.0972 27.506 77.4705 27.4827 77.7692 27.436C78.0678 27.38 78.3478 27.282 78.6092 27.142C78.8798 27.002 79.0758 26.792 79.1972 26.512C79.3278 26.2227 79.3932 25.854 79.3932 25.406C79.3932 24.958 79.3278 24.594 79.1972 24.314C79.0758 24.0247 78.8798 23.81 78.6092 23.67C78.3478 23.53 78.0678 23.4367 77.7692 23.39C77.4705 23.334 77.0972 23.306 76.6492 23.306H75.0532V27.506H76.6492ZM86.9569 25.028H88.3149V25.924L88.0769 26.806H88.4549C88.6229 26.2367 88.9402 25.7747 89.4069 25.42C89.8736 25.0653 90.4896 24.888 91.2549 24.888C92.2536 24.888 93.0469 25.2287 93.6349 25.91C94.2322 26.5913 94.5309 27.4593 94.5309 28.514C94.5309 29.5687 94.2322 30.4367 93.6349 31.118C93.0469 31.7993 92.2536 32.14 91.2549 32.14C90.4896 32.14 89.8736 31.9627 89.4069 31.608C88.9402 31.2533 88.6229 30.7867 88.4549 30.208H88.0769L88.3149 31.104V34.562H86.9569V25.028ZM88.9869 26.68C88.5389 27.0813 88.3149 27.6927 88.3149 28.514C88.3149 29.3353 88.5389 29.9513 88.9869 30.362C89.4442 30.7633 90.0462 30.964 90.7929 30.964C91.5209 30.964 92.0996 30.7633 92.5289 30.362C92.9582 29.9513 93.1729 29.3353 93.1729 28.514C93.1729 27.6927 92.9582 27.0813 92.5289 26.68C92.0996 26.2693 91.5209 26.064 90.7929 26.064C90.0462 26.064 89.4442 26.2693 88.9869 26.68ZM95.8234 30.068C95.8234 28.8733 96.6167 28.1827 98.2034 27.996L100.877 27.716C100.821 26.5773 100.201 26.008 99.0154 26.008C98.4834 26.008 98.0447 26.1433 97.6994 26.414C97.354 26.6753 97.1814 27.0813 97.1814 27.632H95.8654C95.8654 26.848 96.15 26.1947 96.7194 25.672C97.2887 25.1493 98.054 24.888 99.0154 24.888C99.9954 24.888 100.775 25.1727 101.353 25.742C101.941 26.3113 102.235 27.0813 102.235 28.052V30.824H103.257V32H101.955C101.685 32 101.47 31.9253 101.311 31.776C101.162 31.6267 101.087 31.412 101.087 31.132V30.81L101.297 30.068H100.933C100.588 31.4493 99.6734 32.14 98.1894 32.14C97.704 32.14 97.2934 32.07 96.9574 31.93C96.6214 31.79 96.3787 31.6033 96.2294 31.37C96.08 31.1367 95.9727 30.9173 95.9074 30.712C95.8514 30.5067 95.8234 30.292 95.8234 30.068ZM97.1814 29.872C97.1814 30.2267 97.2887 30.4973 97.5034 30.684C97.7274 30.8707 98.0214 30.964 98.3854 30.964C99.132 30.964 99.734 30.7493 100.191 30.32C100.649 29.8813 100.877 29.3307 100.877 28.668L98.4414 28.92C98.0027 28.976 97.6807 29.074 97.4754 29.214C97.2794 29.354 97.1814 29.5733 97.1814 29.872ZM108.949 25.028H110.461L107.395 31.86V33.848C107.395 34.4827 107.059 34.786 106.387 34.758L103.545 34.632V33.456L106.023 33.554V31.86L102.957 25.028H104.455L106.527 30.124V30.782H106.891V30.124L108.949 25.028ZM110.999 28.5C110.999 27.4453 111.344 26.582 112.035 25.91C112.726 25.2287 113.626 24.888 114.737 24.888C115.838 24.888 116.734 25.2287 117.425 25.91C118.116 26.582 118.461 27.4453 118.461 28.5C118.461 29.564 118.116 30.4367 117.425 31.118C116.734 31.7993 115.838 32.14 114.737 32.14C113.626 32.14 112.726 31.804 112.035 31.132C111.344 30.4507 110.999 29.5733 110.999 28.5ZM112.357 28.5C112.357 29.228 112.567 29.8207 112.987 30.278C113.407 30.7353 113.99 30.964 114.737 30.964C115.474 30.964 116.048 30.7353 116.459 30.278C116.879 29.8207 117.089 29.228 117.089 28.5C117.089 27.7813 116.879 27.198 116.459 26.75C116.048 26.2927 115.474 26.064 114.737 26.064C113.99 26.064 113.407 26.2927 112.987 26.75C112.567 27.198 112.357 27.7813 112.357 28.5ZM122.832 30.964C123.56 30.964 124.143 30.7073 124.582 30.194C125.02 29.6713 125.24 28.9433 125.24 28.01V25.028H126.612V32H125.24V30.866L125.478 29.984H125.1C124.95 30.6467 124.647 31.174 124.19 31.566C123.742 31.9487 123.154 32.14 122.426 32.14C121.595 32.14 120.946 31.8927 120.48 31.398C120.013 30.894 119.78 30.1567 119.78 29.186V25.028H121.138V29.004C121.138 29.704 121.273 30.208 121.544 30.516C121.814 30.8147 122.244 30.964 122.832 30.964ZM130.663 30.978L133.155 30.824V32L130.313 32.14C129.977 32.1587 129.725 32.084 129.557 31.916C129.389 31.7387 129.305 31.4773 129.305 31.132V26.204H127.751V25.028H129.305V23.32L130.663 22.9V25.028H132.875V26.204H130.663V30.978Z" fill="white"/>
    <path opacity="0.2" d="M427.412 22.13C427.954 22.13 428.444 22.1627 428.882 22.228C429.321 22.2933 429.769 22.4333 430.226 22.648C430.693 22.8533 431.08 23.1333 431.388 23.488C431.696 23.8333 431.948 24.3093 432.144 24.916C432.35 25.5227 432.452 26.2367 432.452 27.058C432.452 27.8793 432.35 28.5933 432.144 29.2C431.948 29.8067 431.696 30.2873 431.388 30.642C431.08 30.9873 430.693 31.2673 430.226 31.482C429.769 31.6967 429.321 31.8367 428.882 31.902C428.444 31.9673 427.954 32 427.412 32H424.192V22.13H427.412ZM427.412 30.824C427.832 30.824 428.187 30.81 428.476 30.782C428.775 30.7447 429.097 30.656 429.442 30.516C429.797 30.3667 430.082 30.1613 430.296 29.9C430.52 29.6387 430.707 29.27 430.856 28.794C431.006 28.3087 431.08 27.73 431.08 27.058C431.08 26.386 431.006 25.812 430.856 25.336C430.707 24.8507 430.52 24.482 430.296 24.23C430.082 23.9687 429.797 23.768 429.442 23.628C429.097 23.4787 428.775 23.39 428.476 23.362C428.187 23.3247 427.832 23.306 427.412 23.306H425.55V30.824H427.412ZM433.814 27.058C433.814 25.5833 434.234 24.37 435.074 23.418C435.914 22.466 437.057 21.99 438.504 21.99C439.941 21.99 441.08 22.466 441.92 23.418C442.76 24.37 443.18 25.5833 443.18 27.058C443.18 28.542 442.76 29.76 441.92 30.712C441.08 31.664 439.941 32.14 438.504 32.14C437.057 32.14 435.914 31.664 435.074 30.712C434.234 29.76 433.814 28.542 433.814 27.058ZM435.172 27.058C435.172 28.2433 435.457 29.1907 436.026 29.9C436.595 30.6093 437.421 30.964 438.504 30.964C439.587 30.964 440.408 30.6093 440.968 29.9C441.537 29.1907 441.822 28.2433 441.822 27.058C441.822 25.882 441.537 24.9393 440.968 24.23C440.408 23.5207 439.587 23.166 438.504 23.166C437.421 23.166 436.595 23.5207 436.026 24.23C435.457 24.9393 435.172 25.882 435.172 27.058ZM443.908 22.13H445.21L447.142 31.622H447.506L449.368 22.13H452.196L454.058 31.622H454.422L456.354 22.13H457.656L455.64 32H452.84L450.964 22.508H450.6L448.724 32H445.924L443.908 22.13ZM458.809 32V22.13H461.539L466.061 31.622H466.439L466.201 30.698V22.13H467.573V32H464.843L460.307 22.508H459.929L460.167 23.432V32H458.809ZM474.04 25.028H475.398V25.924L475.16 26.806H475.538C475.706 26.2367 476.023 25.7747 476.49 25.42C476.957 25.0653 477.573 24.888 478.338 24.888C479.337 24.888 480.13 25.2287 480.718 25.91C481.315 26.5913 481.614 27.4593 481.614 28.514C481.614 29.5687 481.315 30.4367 480.718 31.118C480.13 31.7993 479.337 32.14 478.338 32.14C477.573 32.14 476.957 31.9627 476.49 31.608C476.023 31.2533 475.706 30.7867 475.538 30.208H475.16L475.398 31.104V34.562H474.04V25.028ZM476.07 26.68C475.622 27.0813 475.398 27.6927 475.398 28.514C475.398 29.3353 475.622 29.9513 476.07 30.362C476.527 30.7633 477.129 30.964 477.876 30.964C478.604 30.964 479.183 30.7633 479.612 30.362C480.041 29.9513 480.256 29.3353 480.256 28.514C480.256 27.6927 480.041 27.0813 479.612 26.68C479.183 26.2693 478.604 26.064 477.876 26.064C477.129 26.064 476.527 26.2693 476.07 26.68ZM482.906 30.068C482.906 28.8733 483.7 28.1827 485.286 27.996L487.96 27.716C487.904 26.5773 487.284 26.008 486.098 26.008C485.566 26.008 485.128 26.1433 484.782 26.414C484.437 26.6753 484.264 27.0813 484.264 27.632H482.948C482.948 26.848 483.233 26.1947 483.802 25.672C484.372 25.1493 485.137 24.888 486.098 24.888C487.078 24.888 487.858 25.1727 488.436 25.742C489.024 26.3113 489.318 27.0813 489.318 28.052V30.824H490.34V32H489.038C488.768 32 488.553 31.9253 488.394 31.776C488.245 31.6267 488.17 31.412 488.17 31.132V30.81L488.38 30.068H488.016C487.671 31.4493 486.756 32.14 485.272 32.14C484.787 32.14 484.376 32.07 484.04 31.93C483.704 31.79 483.462 31.6033 483.312 31.37C483.163 31.1367 483.056 30.9173 482.99 30.712C482.934 30.5067 482.906 30.292 482.906 30.068ZM484.264 29.872C484.264 30.2267 484.372 30.4973 484.586 30.684C484.81 30.8707 485.104 30.964 485.468 30.964C486.215 30.964 486.817 30.7493 487.274 30.32C487.732 29.8813 487.96 29.3307 487.96 28.668L485.524 28.92C485.086 28.976 484.764 29.074 484.558 29.214C484.362 29.354 484.264 29.5733 484.264 29.872ZM496.032 25.028H497.544L494.478 31.86V33.848C494.478 34.4827 494.142 34.786 493.47 34.758L490.628 34.632V33.456L493.106 33.554V31.86L490.04 25.028H491.538L493.61 30.124V30.782H493.974V30.124L496.032 25.028ZM498.082 28.5C498.082 27.4453 498.427 26.582 499.118 25.91C499.809 25.2287 500.709 24.888 501.82 24.888C502.921 24.888 503.817 25.2287 504.508 25.91C505.199 26.582 505.544 27.4453 505.544 28.5C505.544 29.564 505.199 30.4367 504.508 31.118C503.817 31.7993 502.921 32.14 501.82 32.14C500.709 32.14 499.809 31.804 499.118 31.132C498.427 30.4507 498.082 29.5733 498.082 28.5ZM499.44 28.5C499.44 29.228 499.65 29.8207 500.07 30.278C500.49 30.7353 501.073 30.964 501.82 30.964C502.557 30.964 503.131 30.7353 503.542 30.278C503.962 29.8207 504.172 29.228 504.172 28.5C504.172 27.7813 503.962 27.198 503.542 26.75C503.131 26.2927 502.557 26.064 501.82 26.064C501.073 26.064 500.49 26.2927 500.07 26.75C499.65 27.198 499.44 27.7813 499.44 28.5ZM509.915 30.964C510.643 30.964 511.226 30.7073 511.665 30.194C512.103 29.6713 512.323 28.9433 512.323 28.01V25.028H513.695V32H512.323V30.866L512.561 29.984H512.183C512.033 30.6467 511.73 31.174 511.273 31.566C510.825 31.9487 510.237 32.14 509.509 32.14C508.678 32.14 508.029 31.8927 507.563 31.398C507.096 30.894 506.863 30.1567 506.863 29.186V25.028H508.221V29.004C508.221 29.704 508.356 30.208 508.627 30.516C508.897 30.8147 509.327 30.964 509.915 30.964ZM517.746 30.978L520.238 30.824V32L517.396 32.14C517.06 32.1587 516.808 32.084 516.64 31.916C516.472 31.7387 516.388 31.4773 516.388 31.132V26.204H514.834V25.028H516.388V23.32L517.746 22.9V25.028H519.958V26.204H517.746V30.978Z" fill="white"/>
    <path d="M441.9 47.5C441.9 45.1933 442.487 43.4867 443.66 42.38C444.847 41.26 446.4 40.7 448.32 40.7C449.96 40.7 451.273 41.1133 452.26 41.94C453.247 42.7667 453.74 43.9333 453.74 45.44C453.74 46.0933 453.64 46.7 453.44 47.26C453.253 47.8067 453 48.2933 452.68 48.72C452.36 49.1333 451.933 49.52 451.4 49.88C450.867 50.2267 450.313 50.5267 449.74 50.78C449.18 51.02 448.493 51.2533 447.68 51.48C446.88 51.7067 446.107 51.9 445.36 52.06C444.627 52.22 443.767 52.3867 442.78 52.56V53.22L444.44 52.76H453.74V55H442.1V50.5C442.38 50.46 442.613 50.4267 442.8 50.4C442.987 50.3733 443.327 50.3133 443.82 50.22C444.313 50.1267 444.74 50.04 445.1 49.96C445.46 49.8667 445.913 49.74 446.46 49.58C447.007 49.4067 447.473 49.2333 447.86 49.06C448.26 48.8733 448.68 48.6533 449.12 48.4C449.56 48.1333 449.92 47.8533 450.2 47.56C450.48 47.2667 450.707 46.9333 450.88 46.56C451.067 46.1733 451.16 45.7667 451.16 45.34C451.16 44.6067 450.927 44.0267 450.46 43.6C450.007 43.16 449.307 42.94 448.36 42.94C447.08 42.94 446.113 43.3 445.46 44.02C444.807 44.74 444.48 45.9 444.48 47.5H441.9ZM458.171 55.2C457.585 55.2 457.105 55.0133 456.731 54.64C456.371 54.2533 456.191 53.7733 456.191 53.2C456.191 52.64 456.371 52.1733 456.731 51.8C457.105 51.4267 457.585 51.24 458.171 51.24C458.745 51.24 459.218 51.4267 459.591 51.8C459.978 52.1733 460.171 52.64 460.171 53.2C460.171 53.7733 459.978 54.2533 459.591 54.64C459.218 55.0133 458.745 55.2 458.171 55.2ZM474.404 50.08V52.32H472.744V55H470.184V52.32H462.764V47.66C464.457 47.22 465.824 46.42 466.864 45.26C467.917 44.1 468.524 42.6467 468.684 40.9H471.244C471.071 43.1133 470.331 44.9867 469.024 46.52C467.731 48.04 465.871 49.16 463.444 49.88V50.56L465.104 50.08H470.184V46.16H472.744V50.08H474.404ZM475.945 49.88H478.505C478.505 51.9333 479.758 52.96 482.265 52.96C483.452 52.96 484.318 52.6933 484.865 52.16C485.425 51.6267 485.705 50.8267 485.705 49.76C485.705 47.92 484.832 47 483.085 47C481.792 47 480.732 47.5533 479.905 48.66L476.905 46.98V40.9H487.205V43.14H479.485V45.72L479.005 47.26L479.565 47.58C480.352 45.7 481.765 44.76 483.805 44.76C485.138 44.76 486.218 45.2067 487.045 46.1C487.872 46.98 488.285 48.1933 488.285 49.74C488.285 51.5267 487.745 52.8867 486.665 53.82C485.598 54.74 484.132 55.2 482.265 55.2C480.345 55.2 478.812 54.7533 477.665 53.86C476.518 52.9667 475.945 51.64 475.945 49.88ZM490.079 55L493.879 50.3V49.64L490.079 44.96H493.139L495.759 48.5L498.359 44.96H501.419L497.619 49.64V50.3L501.419 55H498.359L495.759 51.44L493.139 55H490.079Z" fill="#EF5350"/>
    <rect x="196.5" y="0.5" width="177" height="78" stroke="#F2C037"/>
    <path d="M242.5 79.5H327.5V103C327.5 106.038 325.038 108.5 322 108.5H248C244.962 108.5 242.5 106.038 242.5 103V79.5Z" fill="#F2C037" stroke="#F2C037"/>
    <path d="M256.204 87.7C257.351 86.3667 258.937 85.7 260.964 85.7C262.991 85.7 264.571 86.3667 265.704 87.7C266.851 89.0333 267.424 90.78 267.424 92.94C267.424 95.1133 266.851 96.8667 265.704 98.2C264.571 99.5333 262.991 100.2 260.964 100.2C258.937 100.2 257.351 99.5333 256.204 98.2C255.057 96.8667 254.484 95.1133 254.484 92.94C254.484 90.7667 255.057 89.02 256.204 87.7ZM260.964 87.94C259.711 87.94 258.744 88.3867 258.064 89.28C257.384 90.16 257.044 91.38 257.044 92.94C257.044 93.9133 257.171 94.74 257.424 95.42L263.344 88.72C262.704 88.2 261.911 87.94 260.964 87.94ZM260.964 97.96C262.217 97.96 263.177 97.52 263.844 96.64C264.524 95.7467 264.864 94.5133 264.864 92.94C264.864 91.9933 264.744 91.1733 264.504 90.48L258.564 97.16C259.204 97.6933 260.004 97.96 260.964 97.96ZM269.188 94.62H271.768C271.768 95.8733 272.048 96.7467 272.608 97.24C273.168 97.72 274.114 97.96 275.448 97.96C276.568 97.96 277.374 97.7867 277.868 97.44C278.374 97.0933 278.628 96.5533 278.628 95.82C278.628 94.4733 277.874 93.8 276.368 93.8H274.408V91.56H276.368C277.741 91.56 278.428 90.98 278.428 89.82C278.428 89.1933 278.201 88.7267 277.748 88.42C277.294 88.1 276.528 87.94 275.448 87.94C274.154 87.94 273.248 88.1467 272.728 88.56C272.221 88.9733 271.968 89.66 271.968 90.62H269.388C269.388 88.9533 269.921 87.72 270.988 86.92C272.068 86.1067 273.554 85.7 275.448 85.7C277.154 85.7 278.508 86.0333 279.508 86.7C280.508 87.3667 281.008 88.2933 281.008 89.48C281.008 90.3867 280.741 91.0467 280.208 91.46C279.688 91.8733 278.921 92.1667 277.908 92.34V93C278.428 93.0933 278.854 93.1933 279.188 93.3C279.534 93.4067 279.874 93.5733 280.208 93.8C280.554 94.0133 280.808 94.3133 280.968 94.7C281.128 95.0867 281.208 95.5667 281.208 96.14C281.208 97.4467 280.681 98.4533 279.628 99.16C278.588 99.8533 277.194 100.2 275.448 100.2C273.514 100.2 271.988 99.76 270.868 98.88C269.748 97.9867 269.188 96.5667 269.188 94.62ZM285.793 93.74C285.206 93.74 284.726 93.5533 284.353 93.18C283.993 92.7933 283.813 92.3133 283.813 91.74C283.813 91.18 283.993 90.7133 284.353 90.34C284.726 89.9533 285.206 89.76 285.793 89.76C286.366 89.76 286.839 89.9533 287.213 90.34C287.599 90.7133 287.793 91.18 287.793 91.74C287.793 92.3 287.599 92.7733 287.213 93.16C286.839 93.5467 286.366 93.74 285.793 93.74ZM285.793 100.2C285.206 100.2 284.726 100.013 284.353 99.64C283.993 99.2533 283.813 98.7733 283.813 98.2C283.813 97.64 283.993 97.1733 284.353 96.8C284.726 96.4267 285.206 96.24 285.793 96.24C286.366 96.24 286.839 96.4267 287.213 96.8C287.599 97.1733 287.793 97.64 287.793 98.2C287.793 98.7733 287.599 99.2533 287.213 99.64C286.839 100.013 286.366 100.2 285.793 100.2ZM302.025 95.08V97.32H300.365V100H297.805V97.32H290.385V92.66C292.078 92.22 293.445 91.42 294.485 90.26C295.538 89.1 296.145 87.6467 296.305 85.9H298.865C298.692 88.1133 297.952 89.9867 296.645 91.52C295.352 93.04 293.492 94.16 291.065 94.88V95.56L292.725 95.08H297.805V91.16H300.365V95.08H302.025ZM303.566 94.88H306.126C306.126 96.9333 307.379 97.96 309.886 97.96C311.073 97.96 311.939 97.6933 312.486 97.16C313.046 96.6267 313.326 95.8267 313.326 94.76C313.326 92.92 312.453 92 310.706 92C309.413 92 308.353 92.5533 307.526 93.66L304.526 91.98V85.9H314.826V88.14H307.106V90.72L306.626 92.26L307.186 92.58C307.973 90.7 309.386 89.76 311.426 89.76C312.759 89.76 313.839 90.2067 314.666 91.1C315.493 91.98 315.906 93.1933 315.906 94.74C315.906 96.5267 315.366 97.8867 314.286 98.82C313.219 99.74 311.753 100.2 309.886 100.2C307.966 100.2 306.433 99.7533 305.286 98.86C304.139 97.9667 303.566 96.64 303.566 94.88Z" fill="#1B1B1B"/>
    <rect x="197" y="1" width="176" height="19" fill="#F2C037"/>
    <path d="M272.081 15V5.2H273.929V13.32H278.409V15H272.081ZM279.669 15V5.2H281.517V15H279.669ZM285.181 15L282.689 5.2H284.593L286.665 13.81H286.861L288.933 5.2H290.837L288.345 15H285.181ZM292.015 15V5.2H298.315V6.88L293.863 6.88V9.218H297.923V10.898H293.863V13.32H298.399V15H292.015Z" fill="#1B1B1B"/>
    <rect x="600" width="570" height="79" rx="12" fill="#1F1F1F"/>
    <line x1="660.5" y1="0.5" x2="1109.5" y2="0.5" stroke="url(#paint2_radial_0_1)" stroke-linecap="round"/>
    <line x1="660.5" y1="78.5" x2="1109.5" y2="78.5" stroke="url(#paint3_radial_0_1)" stroke-linecap="round"/>
    <path d="M865.495 51.24C865.495 53.7867 863.688 55.1067 860.075 55.2V57.96H858.375V55.14C856.455 54.98 855.068 54.4333 854.215 53.5C853.375 52.5667 852.955 51.2733 852.955 49.62H855.535C855.535 50.6867 855.762 51.4733 856.215 51.98C856.668 52.4733 857.388 52.7733 858.375 52.88V48.58C857.562 48.3133 856.915 48.08 856.435 47.88C855.968 47.68 855.488 47.4133 854.995 47.08C854.502 46.7467 854.142 46.36 853.915 45.92C853.702 45.4667 853.595 44.9333 853.595 44.32C853.595 43.2133 853.995 42.3533 854.795 41.74C855.595 41.1133 856.788 40.7733 858.375 40.72V37.94H860.075V40.76C861.688 40.9467 862.895 41.4933 863.695 42.4C864.508 43.2933 864.915 44.3733 864.915 45.64H862.335C862.335 44.2 861.582 43.3333 860.075 43.04V46.76C860.715 46.96 861.235 47.14 861.635 47.3C862.035 47.4467 862.508 47.66 863.055 47.94C863.602 48.2067 864.028 48.4867 864.335 48.78C864.655 49.06 864.928 49.4133 865.155 49.84C865.382 50.2667 865.495 50.7333 865.495 51.24ZM856.175 44.38C856.175 44.8067 856.328 45.1467 856.635 45.4C856.942 45.64 857.522 45.9067 858.375 46.2V42.96C856.908 43.0533 856.175 43.5267 856.175 44.38ZM860.075 52.96C861.062 52.9333 861.782 52.7867 862.235 52.52C862.688 52.2533 862.915 51.8467 862.915 51.3C862.915 50.7667 862.675 50.3467 862.195 50.04C861.728 49.72 861.022 49.4133 860.075 49.12V52.96ZM869.702 42.7C870.849 41.3667 872.435 40.7 874.462 40.7C876.489 40.7 878.069 41.3667 879.202 42.7C880.349 44.0333 880.922 45.78 880.922 47.94C880.922 50.1133 880.349 51.8667 879.202 53.2C878.069 54.5333 876.489 55.2 874.462 55.2C872.435 55.2 870.849 54.5333 869.702 53.2C868.555 51.8667 867.982 50.1133 867.982 47.94C867.982 45.7667 868.555 44.02 869.702 42.7ZM874.462 42.94C873.209 42.94 872.242 43.3867 871.562 44.28C870.882 45.16 870.542 46.38 870.542 47.94C870.542 48.9133 870.669 49.74 870.922 50.42L876.842 43.72C876.202 43.2 875.409 42.94 874.462 42.94ZM874.462 52.96C875.715 52.96 876.675 52.52 877.342 51.64C878.022 50.7467 878.362 49.5133 878.362 47.94C878.362 46.9933 878.242 46.1733 878.002 45.48L872.062 52.16C872.702 52.6933 873.502 52.96 874.462 52.96ZM885.384 55.2C884.798 55.2 884.318 55.0133 883.944 54.64C883.584 54.2533 883.404 53.7733 883.404 53.2C883.404 52.64 883.584 52.1733 883.944 51.8C884.318 51.4267 884.798 51.24 885.384 51.24C885.958 51.24 886.431 51.4267 886.804 51.8C887.191 52.1733 887.384 52.64 887.384 53.2C887.384 53.7733 887.191 54.2533 886.804 54.64C886.431 55.0133 885.958 55.2 885.384 55.2ZM891.577 42.7C892.724 41.3667 894.31 40.7 896.337 40.7C898.364 40.7 899.944 41.3667 901.077 42.7C902.224 44.0333 902.797 45.78 902.797 47.94C902.797 50.1133 902.224 51.8667 901.077 53.2C899.944 54.5333 898.364 55.2 896.337 55.2C894.31 55.2 892.724 54.5333 891.577 53.2C890.43 51.8667 889.857 50.1133 889.857 47.94C889.857 45.7667 890.43 44.02 891.577 42.7ZM896.337 42.94C895.084 42.94 894.117 43.3867 893.437 44.28C892.757 45.16 892.417 46.38 892.417 47.94C892.417 48.9133 892.544 49.74 892.797 50.42L898.717 43.72C898.077 43.2 897.284 42.94 896.337 42.94ZM896.337 52.96C897.59 52.96 898.55 52.52 899.217 51.64C899.897 50.7467 900.237 49.5133 900.237 47.94C900.237 46.9933 900.117 46.1733 899.877 45.48L893.937 52.16C894.577 52.6933 895.377 52.96 896.337 52.96ZM906.343 42.7C907.489 41.3667 909.076 40.7 911.103 40.7C913.129 40.7 914.709 41.3667 915.843 42.7C916.989 44.0333 917.563 45.78 917.563 47.94C917.563 50.1133 916.989 51.8667 915.843 53.2C914.709 54.5333 913.129 55.2 911.103 55.2C909.076 55.2 907.489 54.5333 906.343 53.2C905.196 51.8667 904.623 50.1133 904.623 47.94C904.623 45.7667 905.196 44.02 906.343 42.7ZM911.103 42.94C909.849 42.94 908.883 43.3867 908.203 44.28C907.523 45.16 907.183 46.38 907.183 47.94C907.183 48.9133 907.309 49.74 907.563 50.42L913.483 43.72C912.843 43.2 912.049 42.94 911.103 42.94ZM911.103 52.96C912.356 52.96 913.316 52.52 913.983 51.64C914.663 50.7467 915.003 49.5133 915.003 47.94C915.003 46.9933 914.883 46.1733 914.643 45.48L908.703 52.16C909.343 52.6933 910.143 52.96 911.103 52.96Z" fill="white"/>
    <path d="M669.061 42.7C670.208 41.3667 671.795 40.7 673.821 40.7C675.848 40.7 677.428 41.3667 678.561 42.7C679.708 44.0333 680.281 45.78 680.281 47.94C680.281 50.1133 679.708 51.8667 678.561 53.2C677.428 54.5333 675.848 55.2 673.821 55.2C671.795 55.2 670.208 54.5333 669.061 53.2C667.915 51.8667 667.341 50.1133 667.341 47.94C667.341 45.7667 667.915 44.02 669.061 42.7ZM673.821 42.94C672.568 42.94 671.601 43.3867 670.921 44.28C670.241 45.16 669.901 46.38 669.901 47.94C669.901 48.9133 670.028 49.74 670.281 50.42L676.201 43.72C675.561 43.2 674.768 42.94 673.821 42.94ZM673.821 52.96C675.075 52.96 676.035 52.52 676.701 51.64C677.381 50.7467 677.721 49.5133 677.721 47.94C677.721 46.9933 677.601 46.1733 677.361 45.48L671.421 52.16C672.061 52.6933 672.861 52.96 673.821 52.96ZM684.744 55.2C684.157 55.2 683.677 55.0133 683.304 54.64C682.944 54.2533 682.764 53.7733 682.764 53.2C682.764 52.64 682.944 52.1733 683.304 51.8C683.677 51.4267 684.157 51.24 684.744 51.24C685.317 51.24 685.79 51.4267 686.164 51.8C686.55 52.1733 686.744 52.64 686.744 53.2C686.744 53.7733 686.55 54.2533 686.164 54.64C685.79 55.0133 685.317 55.2 684.744 55.2ZM690.936 42.7C692.083 41.3667 693.67 40.7 695.696 40.7C697.723 40.7 699.303 41.3667 700.436 42.7C701.583 44.0333 702.156 45.78 702.156 47.94C702.156 50.1133 701.583 51.8667 700.436 53.2C699.303 54.5333 697.723 55.2 695.696 55.2C693.67 55.2 692.083 54.5333 690.936 53.2C689.79 51.8667 689.216 50.1133 689.216 47.94C689.216 45.7667 689.79 44.02 690.936 42.7ZM695.696 42.94C694.443 42.94 693.476 43.3867 692.796 44.28C692.116 45.16 691.776 46.38 691.776 47.94C691.776 48.9133 691.903 49.74 692.156 50.42L698.076 43.72C697.436 43.2 696.643 42.94 695.696 42.94ZM695.696 52.96C696.95 52.96 697.91 52.52 698.576 51.64C699.256 50.7467 699.596 49.5133 699.596 47.94C699.596 46.9933 699.476 46.1733 699.236 45.48L693.296 52.16C693.936 52.6933 694.736 52.96 695.696 52.96ZM705.702 42.7C706.849 41.3667 708.435 40.7 710.462 40.7C712.489 40.7 714.069 41.3667 715.202 42.7C716.349 44.0333 716.922 45.78 716.922 47.94C716.922 50.1133 716.349 51.8667 715.202 53.2C714.069 54.5333 712.489 55.2 710.462 55.2C708.435 55.2 706.849 54.5333 705.702 53.2C704.555 51.8667 703.982 50.1133 703.982 47.94C703.982 45.7667 704.555 44.02 705.702 42.7ZM710.462 42.94C709.209 42.94 708.242 43.3867 707.562 44.28C706.882 45.16 706.542 46.38 706.542 47.94C706.542 48.9133 706.669 49.74 706.922 50.42L712.842 43.72C712.202 43.2 711.409 42.94 710.462 42.94ZM710.462 52.96C711.715 52.96 712.675 52.52 713.342 51.64C714.022 50.7467 714.362 49.5133 714.362 47.94C714.362 46.9933 714.242 46.1733 714.002 45.48L708.062 52.16C708.702 52.6933 709.502 52.96 710.462 52.96ZM718.604 55L722.404 50.3V49.64L718.604 44.96H721.664L724.284 48.5L726.884 44.96H729.944L726.144 49.64V50.3L729.944 55H726.884L724.284 51.44L721.664 55H718.604Z" fill="#26A69A"/>
    <path opacity="0.2" d="M663.995 28.332V22.13H665.353V27.996C665.353 29.0227 665.545 29.774 665.927 30.25C666.319 30.726 667.01 30.964 667.999 30.964C668.989 30.964 669.679 30.726 670.071 30.25C670.473 29.7647 670.673 29.0133 670.673 27.996V22.13H672.031V28.332C672.031 30.8707 670.687 32.14 667.999 32.14C665.33 32.14 663.995 30.8707 663.995 28.332ZM676.607 22.13C677.27 22.13 677.839 22.1767 678.315 22.27C678.791 22.3633 679.221 22.5313 679.603 22.774C679.986 23.0073 680.271 23.3433 680.457 23.782C680.653 24.2207 680.751 24.762 680.751 25.406C680.751 26.05 680.653 26.5913 680.457 27.03C680.271 27.4687 679.986 27.8093 679.603 28.052C679.221 28.2853 678.791 28.4487 678.315 28.542C677.839 28.6353 677.27 28.682 676.607 28.682H675.053V32H673.695V22.13H676.607ZM676.649 27.506C677.097 27.506 677.471 27.4827 677.769 27.436C678.068 27.38 678.348 27.282 678.609 27.142C678.88 27.002 679.076 26.792 679.197 26.512C679.328 26.2227 679.393 25.854 679.393 25.406C679.393 24.958 679.328 24.594 679.197 24.314C679.076 24.0247 678.88 23.81 678.609 23.67C678.348 23.53 678.068 23.4367 677.769 23.39C677.471 23.334 677.097 23.306 676.649 23.306H675.053V27.506H676.649ZM686.957 25.028H688.315V25.924L688.077 26.806H688.455C688.623 26.2367 688.94 25.7747 689.407 25.42C689.874 25.0653 690.49 24.888 691.255 24.888C692.254 24.888 693.047 25.2287 693.635 25.91C694.232 26.5913 694.531 27.4593 694.531 28.514C694.531 29.5687 694.232 30.4367 693.635 31.118C693.047 31.7993 692.254 32.14 691.255 32.14C690.49 32.14 689.874 31.9627 689.407 31.608C688.94 31.2533 688.623 30.7867 688.455 30.208H688.077L688.315 31.104V34.562H686.957V25.028ZM688.987 26.68C688.539 27.0813 688.315 27.6927 688.315 28.514C688.315 29.3353 688.539 29.9513 688.987 30.362C689.444 30.7633 690.046 30.964 690.793 30.964C691.521 30.964 692.1 30.7633 692.529 30.362C692.958 29.9513 693.173 29.3353 693.173 28.514C693.173 27.6927 692.958 27.0813 692.529 26.68C692.1 26.2693 691.521 26.064 690.793 26.064C690.046 26.064 689.444 26.2693 688.987 26.68ZM695.823 30.068C695.823 28.8733 696.617 28.1827 698.203 27.996L700.877 27.716C700.821 26.5773 700.201 26.008 699.015 26.008C698.483 26.008 698.045 26.1433 697.699 26.414C697.354 26.6753 697.181 27.0813 697.181 27.632H695.865C695.865 26.848 696.15 26.1947 696.719 25.672C697.289 25.1493 698.054 24.888 699.015 24.888C699.995 24.888 700.775 25.1727 701.353 25.742C701.941 26.3113 702.235 27.0813 702.235 28.052V30.824H703.257V32H701.955C701.685 32 701.47 31.9253 701.311 31.776C701.162 31.6267 701.087 31.412 701.087 31.132V30.81L701.297 30.068H700.933C700.588 31.4493 699.673 32.14 698.189 32.14C697.704 32.14 697.293 32.07 696.957 31.93C696.621 31.79 696.379 31.6033 696.229 31.37C696.08 31.1367 695.973 30.9173 695.907 30.712C695.851 30.5067 695.823 30.292 695.823 30.068ZM697.181 29.872C697.181 30.2267 697.289 30.4973 697.503 30.684C697.727 30.8707 698.021 30.964 698.385 30.964C699.132 30.964 699.734 30.7493 700.191 30.32C700.649 29.8813 700.877 29.3307 700.877 28.668L698.441 28.92C698.003 28.976 697.681 29.074 697.475 29.214C697.279 29.354 697.181 29.5733 697.181 29.872ZM708.949 25.028H710.461L707.395 31.86V33.848C707.395 34.4827 707.059 34.786 706.387 34.758L703.545 34.632V33.456L706.023 33.554V31.86L702.957 25.028H704.455L706.527 30.124V30.782H706.891V30.124L708.949 25.028ZM710.999 28.5C710.999 27.4453 711.344 26.582 712.035 25.91C712.726 25.2287 713.626 24.888 714.737 24.888C715.838 24.888 716.734 25.2287 717.425 25.91C718.116 26.582 718.461 27.4453 718.461 28.5C718.461 29.564 718.116 30.4367 717.425 31.118C716.734 31.7993 715.838 32.14 714.737 32.14C713.626 32.14 712.726 31.804 712.035 31.132C711.344 30.4507 710.999 29.5733 710.999 28.5ZM712.357 28.5C712.357 29.228 712.567 29.8207 712.987 30.278C713.407 30.7353 713.99 30.964 714.737 30.964C715.474 30.964 716.048 30.7353 716.459 30.278C716.879 29.8207 717.089 29.228 717.089 28.5C717.089 27.7813 716.879 27.198 716.459 26.75C716.048 26.2927 715.474 26.064 714.737 26.064C713.99 26.064 713.407 26.2927 712.987 26.75C712.567 27.198 712.357 27.7813 712.357 28.5ZM722.832 30.964C723.56 30.964 724.143 30.7073 724.582 30.194C725.02 29.6713 725.24 28.9433 725.24 28.01V25.028H726.612V32H725.24V30.866L725.478 29.984H725.1C724.95 30.6467 724.647 31.174 724.19 31.566C723.742 31.9487 723.154 32.14 722.426 32.14C721.595 32.14 720.946 31.8927 720.48 31.398C720.013 30.894 719.78 30.1567 719.78 29.186V25.028H721.138V29.004C721.138 29.704 721.273 30.208 721.544 30.516C721.814 30.8147 722.244 30.964 722.832 30.964ZM730.663 30.978L733.155 30.824V32L730.313 32.14C729.977 32.1587 729.725 32.084 729.557 31.916C729.389 31.7387 729.305 31.4773 729.305 31.132V26.204H727.751V25.028H729.305V23.32L730.663 22.9V25.028H732.875V26.204H730.663V30.978Z" fill="white"/>
    <path opacity="0.2" d="M1027.41 22.13C1027.95 22.13 1028.44 22.1627 1028.88 22.228C1029.32 22.2933 1029.77 22.4333 1030.23 22.648C1030.69 22.8533 1031.08 23.1333 1031.39 23.488C1031.7 23.8333 1031.95 24.3093 1032.14 24.916C1032.35 25.5227 1032.45 26.2367 1032.45 27.058C1032.45 27.8793 1032.35 28.5933 1032.14 29.2C1031.95 29.8067 1031.7 30.2873 1031.39 30.642C1031.08 30.9873 1030.69 31.2673 1030.23 31.482C1029.77 31.6967 1029.32 31.8367 1028.88 31.902C1028.44 31.9673 1027.95 32 1027.41 32H1024.19V22.13H1027.41ZM1027.41 30.824C1027.83 30.824 1028.19 30.81 1028.48 30.782C1028.77 30.7447 1029.1 30.656 1029.44 30.516C1029.8 30.3667 1030.08 30.1613 1030.3 29.9C1030.52 29.6387 1030.71 29.27 1030.86 28.794C1031.01 28.3087 1031.08 27.73 1031.08 27.058C1031.08 26.386 1031.01 25.812 1030.86 25.336C1030.71 24.8507 1030.52 24.482 1030.3 24.23C1030.08 23.9687 1029.8 23.768 1029.44 23.628C1029.1 23.4787 1028.77 23.39 1028.48 23.362C1028.19 23.3247 1027.83 23.306 1027.41 23.306H1025.55V30.824H1027.41ZM1033.81 27.058C1033.81 25.5833 1034.23 24.37 1035.07 23.418C1035.91 22.466 1037.06 21.99 1038.5 21.99C1039.94 21.99 1041.08 22.466 1041.92 23.418C1042.76 24.37 1043.18 25.5833 1043.18 27.058C1043.18 28.542 1042.76 29.76 1041.92 30.712C1041.08 31.664 1039.94 32.14 1038.5 32.14C1037.06 32.14 1035.91 31.664 1035.07 30.712C1034.23 29.76 1033.81 28.542 1033.81 27.058ZM1035.17 27.058C1035.17 28.2433 1035.46 29.1907 1036.03 29.9C1036.6 30.6093 1037.42 30.964 1038.5 30.964C1039.59 30.964 1040.41 30.6093 1040.97 29.9C1041.54 29.1907 1041.82 28.2433 1041.82 27.058C1041.82 25.882 1041.54 24.9393 1040.97 24.23C1040.41 23.5207 1039.59 23.166 1038.5 23.166C1037.42 23.166 1036.6 23.5207 1036.03 24.23C1035.46 24.9393 1035.17 25.882 1035.17 27.058ZM1043.91 22.13H1045.21L1047.14 31.622H1047.51L1049.37 22.13H1052.2L1054.06 31.622H1054.42L1056.35 22.13H1057.66L1055.64 32H1052.84L1050.96 22.508H1050.6L1048.72 32H1045.92L1043.91 22.13ZM1058.81 32V22.13H1061.54L1066.06 31.622H1066.44L1066.2 30.698V22.13H1067.57V32H1064.84L1060.31 22.508H1059.93L1060.17 23.432V32H1058.81ZM1074.04 25.028H1075.4V25.924L1075.16 26.806H1075.54C1075.71 26.2367 1076.02 25.7747 1076.49 25.42C1076.96 25.0653 1077.57 24.888 1078.34 24.888C1079.34 24.888 1080.13 25.2287 1080.72 25.91C1081.32 26.5913 1081.61 27.4593 1081.61 28.514C1081.61 29.5687 1081.32 30.4367 1080.72 31.118C1080.13 31.7993 1079.34 32.14 1078.34 32.14C1077.57 32.14 1076.96 31.9627 1076.49 31.608C1076.02 31.2533 1075.71 30.7867 1075.54 30.208H1075.16L1075.4 31.104V34.562H1074.04V25.028ZM1076.07 26.68C1075.62 27.0813 1075.4 27.6927 1075.4 28.514C1075.4 29.3353 1075.62 29.9513 1076.07 30.362C1076.53 30.7633 1077.13 30.964 1077.88 30.964C1078.6 30.964 1079.18 30.7633 1079.61 30.362C1080.04 29.9513 1080.26 29.3353 1080.26 28.514C1080.26 27.6927 1080.04 27.0813 1079.61 26.68C1079.18 26.2693 1078.6 26.064 1077.88 26.064C1077.13 26.064 1076.53 26.2693 1076.07 26.68ZM1082.91 30.068C1082.91 28.8733 1083.7 28.1827 1085.29 27.996L1087.96 27.716C1087.9 26.5773 1087.28 26.008 1086.1 26.008C1085.57 26.008 1085.13 26.1433 1084.78 26.414C1084.44 26.6753 1084.26 27.0813 1084.26 27.632H1082.95C1082.95 26.848 1083.23 26.1947 1083.8 25.672C1084.37 25.1493 1085.14 24.888 1086.1 24.888C1087.08 24.888 1087.86 25.1727 1088.44 25.742C1089.02 26.3113 1089.32 27.0813 1089.32 28.052V30.824H1090.34V32H1089.04C1088.77 32 1088.55 31.9253 1088.39 31.776C1088.25 31.6267 1088.17 31.412 1088.17 31.132V30.81L1088.38 30.068H1088.02C1087.67 31.4493 1086.76 32.14 1085.27 32.14C1084.79 32.14 1084.38 32.07 1084.04 31.93C1083.7 31.79 1083.46 31.6033 1083.31 31.37C1083.16 31.1367 1083.06 30.9173 1082.99 30.712C1082.93 30.5067 1082.91 30.292 1082.91 30.068ZM1084.26 29.872C1084.26 30.2267 1084.37 30.4973 1084.59 30.684C1084.81 30.8707 1085.1 30.964 1085.47 30.964C1086.22 30.964 1086.82 30.7493 1087.27 30.32C1087.73 29.8813 1087.96 29.3307 1087.96 28.668L1085.52 28.92C1085.09 28.976 1084.76 29.074 1084.56 29.214C1084.36 29.354 1084.26 29.5733 1084.26 29.872ZM1096.03 25.028H1097.54L1094.48 31.86V33.848C1094.48 34.4827 1094.14 34.786 1093.47 34.758L1090.63 34.632V33.456L1093.11 33.554V31.86L1090.04 25.028H1091.54L1093.61 30.124V30.782H1093.97V30.124L1096.03 25.028ZM1098.08 28.5C1098.08 27.4453 1098.43 26.582 1099.12 25.91C1099.81 25.2287 1100.71 24.888 1101.82 24.888C1102.92 24.888 1103.82 25.2287 1104.51 25.91C1105.2 26.582 1105.54 27.4453 1105.54 28.5C1105.54 29.564 1105.2 30.4367 1104.51 31.118C1103.82 31.7993 1102.92 32.14 1101.82 32.14C1100.71 32.14 1099.81 31.804 1099.12 31.132C1098.43 30.4507 1098.08 29.5733 1098.08 28.5ZM1099.44 28.5C1099.44 29.228 1099.65 29.8207 1100.07 30.278C1100.49 30.7353 1101.07 30.964 1101.82 30.964C1102.56 30.964 1103.13 30.7353 1103.54 30.278C1103.96 29.8207 1104.17 29.228 1104.17 28.5C1104.17 27.7813 1103.96 27.198 1103.54 26.75C1103.13 26.2927 1102.56 26.064 1101.82 26.064C1101.07 26.064 1100.49 26.2927 1100.07 26.75C1099.65 27.198 1099.44 27.7813 1099.44 28.5ZM1109.91 30.964C1110.64 30.964 1111.23 30.7073 1111.66 30.194C1112.1 29.6713 1112.32 28.9433 1112.32 28.01V25.028H1113.69V32H1112.32V30.866L1112.56 29.984H1112.18C1112.03 30.6467 1111.73 31.174 1111.27 31.566C1110.82 31.9487 1110.24 32.14 1109.51 32.14C1108.68 32.14 1108.03 31.8927 1107.56 31.398C1107.1 30.894 1106.86 30.1567 1106.86 29.186V25.028H1108.22V29.004C1108.22 29.704 1108.36 30.208 1108.63 30.516C1108.9 30.8147 1109.33 30.964 1109.91 30.964ZM1117.75 30.978L1120.24 30.824V32L1117.4 32.14C1117.06 32.1587 1116.81 32.084 1116.64 31.916C1116.47 31.7387 1116.39 31.4773 1116.39 31.132V26.204H1114.83V25.028H1116.39V23.32L1117.75 22.9V25.028H1119.96V26.204H1117.75V30.978Z" fill="white"/>
    <path d="M1043.06 42.7C1044.21 41.3667 1045.79 40.7 1047.82 40.7C1049.85 40.7 1051.43 41.3667 1052.56 42.7C1053.71 44.0333 1054.28 45.78 1054.28 47.94C1054.28 50.1133 1053.71 51.8667 1052.56 53.2C1051.43 54.5333 1049.85 55.2 1047.82 55.2C1045.79 55.2 1044.21 54.5333 1043.06 53.2C1041.91 51.8667 1041.34 50.1133 1041.34 47.94C1041.34 45.7667 1041.91 44.02 1043.06 42.7ZM1047.82 42.94C1046.57 42.94 1045.6 43.3867 1044.92 44.28C1044.24 45.16 1043.9 46.38 1043.9 47.94C1043.9 48.9133 1044.03 49.74 1044.28 50.42L1050.2 43.72C1049.56 43.2 1048.77 42.94 1047.82 42.94ZM1047.82 52.96C1049.07 52.96 1050.03 52.52 1050.7 51.64C1051.38 50.7467 1051.72 49.5133 1051.72 47.94C1051.72 46.9933 1051.6 46.1733 1051.36 45.48L1045.42 52.16C1046.06 52.6933 1046.86 52.96 1047.82 52.96ZM1058.74 55.2C1058.16 55.2 1057.68 55.0133 1057.3 54.64C1056.94 54.2533 1056.76 53.7733 1056.76 53.2C1056.76 52.64 1056.94 52.1733 1057.3 51.8C1057.68 51.4267 1058.16 51.24 1058.74 51.24C1059.32 51.24 1059.79 51.4267 1060.16 51.8C1060.55 52.1733 1060.74 52.64 1060.74 53.2C1060.74 53.7733 1060.55 54.2533 1060.16 54.64C1059.79 55.0133 1059.32 55.2 1058.74 55.2ZM1064.94 42.7C1066.08 41.3667 1067.67 40.7 1069.7 40.7C1071.72 40.7 1073.3 41.3667 1074.44 42.7C1075.58 44.0333 1076.16 45.78 1076.16 47.94C1076.16 50.1133 1075.58 51.8667 1074.44 53.2C1073.3 54.5333 1071.72 55.2 1069.7 55.2C1067.67 55.2 1066.08 54.5333 1064.94 53.2C1063.79 51.8667 1063.22 50.1133 1063.22 47.94C1063.22 45.7667 1063.79 44.02 1064.94 42.7ZM1069.7 42.94C1068.44 42.94 1067.48 43.3867 1066.8 44.28C1066.12 45.16 1065.78 46.38 1065.78 47.94C1065.78 48.9133 1065.9 49.74 1066.16 50.42L1072.08 43.72C1071.44 43.2 1070.64 42.94 1069.7 42.94ZM1069.7 52.96C1070.95 52.96 1071.91 52.52 1072.58 51.64C1073.26 50.7467 1073.6 49.5133 1073.6 47.94C1073.6 46.9933 1073.48 46.1733 1073.24 45.48L1067.3 52.16C1067.94 52.6933 1068.74 52.96 1069.7 52.96ZM1079.7 42.7C1080.85 41.3667 1082.44 40.7 1084.46 40.7C1086.49 40.7 1088.07 41.3667 1089.2 42.7C1090.35 44.0333 1090.92 45.78 1090.92 47.94C1090.92 50.1133 1090.35 51.8667 1089.2 53.2C1088.07 54.5333 1086.49 55.2 1084.46 55.2C1082.44 55.2 1080.85 54.5333 1079.7 53.2C1078.56 51.8667 1077.98 50.1133 1077.98 47.94C1077.98 45.7667 1078.56 44.02 1079.7 42.7ZM1084.46 42.94C1083.21 42.94 1082.24 43.3867 1081.56 44.28C1080.88 45.16 1080.54 46.38 1080.54 47.94C1080.54 48.9133 1080.67 49.74 1080.92 50.42L1086.84 43.72C1086.2 43.2 1085.41 42.94 1084.46 42.94ZM1084.46 52.96C1085.72 52.96 1086.68 52.52 1087.34 51.64C1088.02 50.7467 1088.36 49.5133 1088.36 47.94C1088.36 46.9933 1088.24 46.1733 1088 45.48L1082.06 52.16C1082.7 52.6933 1083.5 52.96 1084.46 52.96ZM1092.6 55L1096.4 50.3V49.64L1092.6 44.96H1095.66L1098.28 48.5L1100.88 44.96H1103.94L1100.14 49.64V50.3L1103.94 55H1100.88L1098.28 51.44L1095.66 55H1092.6Z" fill="#EF5350"/>
    <rect x="796.5" y="0.5" width="177" height="78" stroke="#4C4C4C"/>
    <path opacity="0.2" d="M842 79H928V103C928 106.314 925.314 109 922 109H848C844.686 109 842 106.314 842 103V79Z" fill="white"/>
    <path d="M855.959 92.5C855.959 90.1933 856.545 88.4867 857.719 87.38C858.905 86.26 860.459 85.7 862.379 85.7C864.019 85.7 865.332 86.1133 866.319 86.94C867.305 87.7667 867.799 88.9333 867.799 90.44C867.799 91.0933 867.699 91.7 867.499 92.26C867.312 92.8067 867.059 93.2933 866.739 93.72C866.419 94.1333 865.992 94.52 865.459 94.88C864.925 95.2267 864.372 95.5267 863.799 95.78C863.239 96.02 862.552 96.2533 861.739 96.48C860.939 96.7067 860.165 96.9 859.419 97.06C858.685 97.22 857.825 97.3867 856.839 97.56V98.22L858.499 97.76H867.799V100H856.159V95.5C856.439 95.46 856.672 95.4267 856.859 95.4C857.045 95.3733 857.385 95.3133 857.879 95.22C858.372 95.1267 858.799 95.04 859.159 94.96C859.519 94.8667 859.972 94.74 860.519 94.58C861.065 94.4067 861.532 94.2333 861.919 94.06C862.319 93.8733 862.739 93.6533 863.179 93.4C863.619 93.1333 863.979 92.8533 864.259 92.56C864.539 92.2667 864.765 91.9333 864.939 91.56C865.125 91.1733 865.219 90.7667 865.219 90.34C865.219 89.6067 864.985 89.0267 864.519 88.6C864.065 88.16 863.365 87.94 862.419 87.94C861.139 87.94 860.172 88.3 859.519 89.02C858.865 89.74 858.539 90.9 858.539 92.5H855.959ZM869.655 93.2C869.655 92.04 869.775 91 870.015 90.08C870.268 89.1467 870.648 88.3267 871.155 87.62C871.675 86.9133 872.375 86.3933 873.255 86.06C874.135 85.7133 875.161 85.5933 876.335 85.7L880.795 86.1V88.34L876.335 87.94C874.935 87.82 873.848 88.0933 873.075 88.76C872.315 89.4267 871.801 90.46 871.535 91.86L870.875 93.4H871.535C871.695 92.2933 872.235 91.4133 873.155 90.76C874.088 90.0933 875.215 89.76 876.535 89.76C878.201 89.76 879.508 90.2267 880.455 91.16C881.415 92.08 881.895 93.3267 881.895 94.9C881.895 96.4733 881.341 97.7533 880.235 98.74C879.141 99.7133 877.661 100.2 875.795 100.2C873.888 100.2 872.388 99.6133 871.295 98.44C870.201 97.2533 869.655 95.5067 869.655 93.2ZM872.235 95.1C872.235 95.8733 872.548 96.5467 873.175 97.12C873.801 97.68 874.675 97.96 875.795 97.96C878.141 97.96 879.315 96.94 879.315 94.9C879.315 92.9667 878.208 92 875.995 92C874.795 92 873.868 92.2733 873.215 92.82C872.561 93.3533 872.235 94.1133 872.235 95.1ZM886.214 93.74C885.628 93.74 885.148 93.5533 884.774 93.18C884.414 92.7933 884.234 92.3133 884.234 91.74C884.234 91.18 884.414 90.7133 884.774 90.34C885.148 89.9533 885.628 89.76 886.214 89.76C886.788 89.76 887.261 89.9533 887.634 90.34C888.021 90.7133 888.214 91.18 888.214 91.74C888.214 92.3 888.021 92.7733 887.634 93.16C887.261 93.5467 886.788 93.74 886.214 93.74ZM886.214 100.2C885.628 100.2 885.148 100.013 884.774 99.64C884.414 99.2533 884.234 98.7733 884.234 98.2C884.234 97.64 884.414 97.1733 884.774 96.8C885.148 96.4267 885.628 96.24 886.214 96.24C886.788 96.24 887.261 96.4267 887.634 96.8C888.021 97.1733 888.214 97.64 888.214 98.2C888.214 98.7733 888.021 99.2533 887.634 99.64C887.261 100.013 886.788 100.2 886.214 100.2ZM890.487 91.76C891.78 91.2533 892.7 90.54 893.247 89.62C893.794 88.6867 894.074 87.4467 894.087 85.9H899.147V100H896.567V88.1L897.047 86.56H896.367C896.3 87.52 896.187 88.3467 896.027 89.04C895.88 89.7333 895.634 90.4267 895.287 91.12C894.94 91.8 894.44 92.3867 893.787 92.88C893.134 93.36 892.327 93.7533 891.367 94.06L890.487 91.76ZM901.507 94.88H904.067C904.067 96.9333 905.321 97.96 907.827 97.96C909.014 97.96 909.881 97.6933 910.427 97.16C910.987 96.6267 911.267 95.8267 911.267 94.76C911.267 92.92 910.394 92 908.647 92C907.354 92 906.294 92.5533 905.467 93.66L902.467 91.98V85.9H912.767V88.14H905.047V90.72L904.567 92.26L905.127 92.58C905.914 90.7 907.327 89.76 909.367 89.76C910.701 89.76 911.781 90.2067 912.607 91.1C913.434 91.98 913.847 93.1933 913.847 94.74C913.847 96.5267 913.307 97.8867 912.227 98.82C911.161 99.74 909.694 100.2 907.827 100.2C905.907 100.2 904.374 99.7533 903.227 98.86C902.081 97.9667 901.507 96.64 901.507 94.88Z" fill="white"/>
    <rect opacity="0.2" x="797" y="1" width="176" height="19" fill="white"/>
    <path d="M866.928 15V5.13H870.498L874.264 14.538H874.726L874.404 13.362V5.13H876.196V15H872.626L868.874 5.592H868.412L868.734 6.768V15H866.928ZM877.797 15V5.13L884.475 5.13V6.698H879.603V9.274H883.775V10.842H879.603V13.432H884.475V15H877.797ZM885.454 15L888.828 10.31V9.806L885.454 5.13H887.526L890.34 9.092L893.154 5.13H895.226L891.838 9.806V10.31L895.226 15H893.154L890.34 11.024L887.526 15H885.454ZM904.48 5.13V6.698H901.19V15H899.384V6.698H896.066V5.13H904.48Z" fill="white"/>
    <defs>
        <radialGradient id="paint0_radial_0_1" cx="0" cy="0" r="1" gradientUnits="userSpaceOnUse" gradientTransform="translate(285 0.999941) rotate(180) scale(287.25 57450)">
            <stop offset="0.305785" stop-color="#F2C037"/>
            <stop offset="0.717859" stop-color="#F2C037" stop-opacity="0"/>
        </radialGradient>
        <radialGradient id="paint1_radial_0_1" cx="0" cy="0" r="1" gradientUnits="userSpaceOnUse" gradientTransform="translate(285 78.9999) rotate(180) scale(287.25 57450)">
            <stop offset="0.304444" stop-color="#F2C037"/>
            <stop offset="0.717859" stop-color="#F2C037" stop-opacity="0"/>
        </radialGradient>
        <radialGradient id="paint2_radial_0_1" cx="0" cy="0" r="1" gradientUnits="userSpaceOnUse" gradientTransform="translate(885 0.999941) rotate(180) scale(287.25 57450)">
            <stop offset="0.305785" stop-color="white" stop-opacity="0.2"/>
            <stop offset="0.717859" stop-color="white" stop-opacity="0"/>
        </radialGradient>
        <radialGradient id="paint3_radial_0_1" cx="0" cy="0" r="1" gradientUnits="userSpaceOnUse" gradientTransform="translate(885 78.9999) rotate(180) scale(287.25 57450)">
            <stop offset="0.304444" stop-color="white" stop-opacity="0.2"/>
            <stop offset="0.717859" stop-color="white" stop-opacity="0"/>
        </radialGradient>
    </defs>
</svg>
